<?xml version="1.0" encoding="utf-8"?>
<!-- Generator: Adobe Illustrator 15.1.0, SVG Export Plug-In . SVG Version: 6.00 Build 0)  -->
<!DOCTYPE svg PUBLIC "-//W3C//DTD SVG 1.1//EN" "http://www.w3.org/Graphics/SVG/1.1/DTD/svg11.dtd">
<svg version="1.1" id="Calque_2" xmlns="http://www.w3.org/2000/svg" xmlns:xlink="http://www.w3.org/1999/xlink" x="0px" y="0px"
	 width="350.105px" height="590px" viewBox="0 0 350.105 590" enable-background="new 0 0 350.105 590" xml:space="preserve">
<g>
	<path d="M248.191,80.792c23.466-32.646,19.581-80.793,19.581-80.793s-43.123,8.886-67.273,41.029
		c-24.148,32.145-20.181,75.373-20.181,75.373S224.095,114.313,248.191,80.792z"/>
	<path d="M261.886,442.036c-6.455-14.941-6.848-50.166,4.318-71.257c13.818-26.098,38.558-37.942,59.225-43.495
		c-30.229-42.258-36.092-55.834-45.346-89.146c-9.254-33.314-0.926-76.808-28.596-101.939c-23.078-20.962-46.618-9.568-59.625-5.405
		c-7.711,2.468-17.273,3.085-26.835-3.701c-9.563-6.786-31.772-10.179-45.961,0c-14.189,10.179-27.761,27.762-32.08,62.31
		c-4.319,34.547-2.776,66.321-36.09,117.215C21.496,351.532,0,376.019,0,441.416c0,57.375,20.359,86.37,53.057,120.301
		c32.696,33.932,74.03,32.08,92.229,20.668c18.199-11.414,46.578-14.188,74.34,1.542s74.956-0.926,95.314-28.996
		c20.357-28.069,33.006-40.102,35.165-56.448C312.164,496.631,283.479,492.006,261.886,442.036z"/>
</g>
</svg>
