<?xml version="1.0" encoding="utf-8"?>
<!-- Generator: Adobe Illustrator 15.1.0, SVG Export Plug-In . SVG Version: 6.00 Build 0)  -->
<!DOCTYPE svg PUBLIC "-//W3C//DTD SVG 1.1//EN" "http://www.w3.org/Graphics/SVG/1.1/DTD/svg11.dtd">
<svg version="1.1" id="Calque_1" xmlns="http://www.w3.org/2000/svg" xmlns:xlink="http://www.w3.org/1999/xlink" x="0px" y="0px"
	 width="434.948px" height="589.674px" viewBox="0 0 434.948 589.674" enable-background="new 0 0 434.948 589.674"
	 xml:space="preserve">
<g>
	<path d="M122.656,302.177v45.435c0,0,10,26.552,42,28.912c0,0,0-36.674,0-43.403c5-5.81,15-3.818,15-3.818v47.615h26v-48.188
		l18.292,0.27l-0.294,47.918h25.002v-47.598c0,0,10-0.607,13,3.818c0,5.458,0,43.386,0,43.386s36,3.54,43-28.912v-45.435
		c0,0,79.574-35.993,78.984-76.707l-7.712-96.768c0,0-47.814-132.172-165.235-128.632c0,0-104.45-4.721-158.735,128.042
		l-8.905,94.408C43.053,222.52,52.656,276.805,122.656,302.177z M269.287,105.689c0,0,48.369,1.18,72.369,74.347v30.092
		c0,0-1.563,46.024-43.455,48.384c0,0-48.871,7.081-59.492-76.411l-3.592-45.139C235.117,136.962,236.833,111.59,269.287,105.689z
		 M214.509,221.339c30.37,9.249,27.436,54.285,27.436,54.285c-14.161-11.211-28.616-11.211-28.616-11.211
		c-13.865,0-27.438,11.211-27.438,11.211C186.481,223.7,214.509,221.339,214.509,221.339z M86.656,180.036
		c24-73.167,72.334-74.347,72.334-74.347c32.453,5.9,34.102,31.273,34.102,31.273l-3.601,45.139
		c-10.621,83.492-59.384,76.411-59.384,76.411c-41.894-2.36-43.452-48.384-43.452-48.384V180.036z"/>
	<path d="M433.568,512.755c-7.626-24.286-49.913-10.715-59.354-5.208c-16.125-8.876-59.053-33.179-107.136-60.503l107.762-59.67
		c0,0,0.982,1.573,17.307,8.457c16.325,6.883,34.027,7.67,41.287-9.499c7.259-17.169-13.357-32.002-24.283-36.313
		c-10.927-4.31-6.775-5.917-7.365-18.702c0.787-24.586-18.882-35.993-37.478-25.021c-18.597,10.973-12.613,36.004-12.613,36.004
		s-64.977,37.106-134.221,76.527c-69.244-39.421-134.221-76.527-134.221-76.527s5.983-25.031-12.612-36.004
		c-18.596-10.973-38.265,0.435-37.478,25.021c-0.59,12.785,3.561,14.393-7.366,18.702c-10.926,4.311-31.542,19.144-24.283,36.313
		s24.962,16.382,41.287,9.499c16.325-6.884,17.308-8.457,17.308-8.457l107.761,59.67c-48.083,27.324-91.01,51.627-107.135,60.503
		c-9.44-5.507-51.728-19.078-59.353,5.208c-7.626,24.285,18.64,33.933,22.758,40.238c4.118,6.307,1.749,11.22,2.372,23.993
		c0.624,12.773,5.591,11.204,21.051,12.471c49.374,3.826,40.97-44.177,40.97-44.177l121.551-66.676l7.391-4.093l7.391,4.093
		l121.551,66.676c0,0-8.403,48.003,40.97,44.177c15.462-1.267,20.429,0.303,21.052-12.471c0.624-12.773-1.746-17.687,2.372-23.993
		C414.928,546.688,441.193,537.04,433.568,512.755z"/>
</g>
</svg>
