<?xml version="1.0" encoding="utf-8"?>
<!-- Generator: Adobe Illustrator 15.1.0, SVG Export Plug-In . SVG Version: 6.00 Build 0)  -->
<!DOCTYPE svg PUBLIC "-//W3C//DTD SVG 1.1//EN" "http://www.w3.org/Graphics/SVG/1.1/DTD/svg11.dtd">
<svg version="1.1" id="Calque_1" xmlns="http://www.w3.org/2000/svg" xmlns:xlink="http://www.w3.org/1999/xlink" x="0px" y="0px"
	 width="365.631px" height="562.993px" viewBox="0 0 365.631 562.993" enable-background="new 0 0 365.631 562.993"
	 xml:space="preserve">
<g>
	<path d="M255.796,239.059c-2.828,0-5.658,0-8.486,0C241.696,230.803,258.726,226.057,255.796,239.059z"/>
	<path d="M77.563,241.888c1.936,1.808,1.936,6.678,0,8.487c-1.886,0-3.771,0-5.658,0C69.585,245.782,71.139,241.404,77.563,241.888z
		"/>
	<path d="M66.247,246.132c3.218,3.986,2.686,7.175-1.416,9.902c-4.526-0.188-6.222-3.208-5.657-8.487
		C60.816,246.359,62.967,245.68,66.247,246.132z"/>
	<path d="M108.683,284.325c-16.78-4.91-30.646-12.734-49.509-15.561C61.311,242.925,117.309,248.06,108.683,284.325z
		 M80.392,260.277c-0.987,6.174,4.083,6.29,4.244,11.316c4.368-1.763,11.097-1.165,11.315-7.073
		C92.536,259.829,87.056,258.354,80.392,260.277z M70.491,261.692c-0.896,7.515,7.582,6.056,7.072,0
		C75.704,259.875,72.348,259.875,70.491,261.692z"/>
	<path d="M54.93,265.935c-9.053,0.011-8.071-11.013,0-11.316C59.982,255.889,60.786,264.798,54.93,265.935z"/>
	<path d="M207.702,264.521c2.533-0.18,2.98,1.731,5.654,1.415c0,1.885,0,3.771,0,5.658c-1.809,1.934-6.678,1.934-8.484,0
		C203.659,267.08,207.101,267.219,207.702,264.521z"/>
	<path d="M217.604,294.225c-17.447,0-34.893,0-52.338,0C164.727,263.39,218.261,262.777,217.604,294.225z M209.116,281.495
		c-4.141-2.463-8.547-4.661-14.146-5.659C187.562,287.665,207.237,293.249,209.116,281.495z M183.655,287.153
		c4.053,0.277,7.721,0.176,7.072-4.242c-1.641-1.189-3.793-1.867-7.072-1.416C183.655,283.381,183.655,285.264,183.655,287.153z"/>
	<path d="M214.774,273.008c3.486-0.188,6.816-0.215,8.488,1.415c0,1.885,0,3.771,0,5.658c-1.672,1.629-5.002,1.602-8.488,1.416
		C213.505,277.354,213.505,277.148,214.774,273.008z"/>
	<path d="M228.921,285.739c1.688,4.221,0.389,4.811-1.416,8.486c-2.357,0-4.715,0-7.072,0
		C216.007,288.139,223.026,281.12,228.921,285.739z"/>
	<path d="M125.657,289.981c5.353,2.191,1.762,13.328,8.487,14.146c7.959-0.057,5.97-10.063,12.731-11.314
		C148.124,310.612,120.802,311.635,125.657,289.981z"/>
	<path d="M64.833,394.661c0.218,3.518-2.223,4.379-2.829,7.07C41.584,403.95,59.218,378.153,64.833,394.661z"/>
	<path d="M88.879,389.002c2.48,1.291,4.915,2.627,4.244,7.072C87.444,399.514,84.048,392.329,88.879,389.002z"/>
	<path d="M110.097,389.002c4.419-0.648,4.522,3.02,4.244,7.072c-9.617-1.131-11.132,5.842-16.976,8.486
		c2.189,2.523,8.49,0.938,9.902,4.242c0.678,4.449-2.015,5.529-2.828,8.486c-7.916,2.072-12.441-4.563-8.488-9.902
		c-1.818-3.953-2.924,4.455-7.072,2.83c0.822-4.836,4.73-6.586,4.244-12.729c5.775-0.434,0.756,2.949,1.414,5.658
		C100.92,399.627,106.543,395.348,110.097,389.002z"/>
	<path d="M187.897,391.831c3.701,3.373,8.924,5.221,11.316,9.9c4.146-1.197-0.844-4.555,0-7.07c4.225,2.848,4.324,9.82,7.074,14.145
		C199.909,403.395,191.196,400.319,187.897,391.831z"/>
	<path d="M200.63,420.122c-5.916,1.199-5.604-3.83-8.488-5.658C193.628,399.217,213.935,413.692,200.63,420.122z"/>
	<path d="M159.608,452.657c3.344,3.256,4.525,8.676,7.072,12.729c3.391,0.563-0.785-6.441,4.244-4.242
		c-2.088,5.158,1.215,12.564-2.829,12.729C165.364,466.704,160.346,461.819,159.608,452.657z"/>
	<path d="M186.483,456.901c4.896-0.992,5.072,4.959,2.83,7.068C184.415,464.963,184.239,459.014,186.483,456.901z"/>
	<path d="M118.585,499.336c-3.21-1.506-0.539-8.893-1.415-12.729c1.188-4.492,1.865,2.51,1.415,4.244
		c8.981-4.617,4.13-19.037,12.731-21.221c1.188,1.645,1.865,3.791,1.414,7.072C123.468,479.7,123.256,491.749,118.585,499.336z"/>
	<path d="M165.265,482.362c-5.627,2.906-10.853-0.793-11.315-7.072c2.203-2.984,5.244-5.131,11.315-4.244
		C167.345,473.102,167.345,480.303,165.265,482.362z"/>
	<path d="M81.806,476.704c5.401,1.197,5.224,7.98,7.073,12.73c2.488-0.344,3.224-2.436,2.828-5.658
		c4.176,3.855-1.266,10.904,1.416,14.146C87.669,492.53,84.907,484.446,81.806,476.704z"/>
	<path d="M107.268,480.948c3.28-0.451,5.432,0.227,7.073,1.414c0.647,4.42-3.022,4.521-7.073,4.244
		C107.268,484.719,107.268,482.833,107.268,480.948z"/>
	<path d="M128.487,488.02c4.148,0.096,5.254,3.23,7.073,5.656c0.218,3.521-2.223,4.381-2.829,7.072c-2.357,0-4.716,0-7.072,0
		C121.163,497.655,122.05,488.065,128.487,488.02z"/>
	<path d="M80.392,506.409c-1.876-2.367-3.748-4.74-2.829-9.9C87.184,485.325,98.282,509.405,80.392,506.409z"/>
	<path d="M267.114,33.949c4.271,24.281-3.072,48.64-9.9,66.484c16.383,25.616,30.131,42.658,33.949,74.971
		c1.764,14.925-3.234,35.941,1.416,53.753c6.66,25.526,23.781,44.199,42.436,55.168c11.592,6.814,27.143,9.1,29.705,19.803
		c8.055,33.643-39.586,42.438-53.752,55.168c-2.459-7.914-4.209-16.541-9.902-21.219c-1.145,10.723,2.174,19.146,0,26.877
		c-12.818,5.566-26.182,10.598-41.02,14.146c11.912,38.104,5.127,90.688-24.049,104.68c-2.289,32.602-14.561,55.225-25.461,79.213
		c-44.323,0-88.647,0-132.969,0c-7.793-15.391-17.488-29.459-22.633-49.508c-1.983-7.729,0.469-18.566-2.829-26.877
		c-3.406-8.584-13.732-11.553-18.389-18.391C17.97,445.09,14.397,383.426,37.96,359.295
		c-60.364-74.148-49.865-253.385,39.606-287.154C74.71,52.614,79.68-0.261,95.956,0c31.548,0.504,56.328,29.241,97.604,31.12
		C223.249,32.471,243.079,17.222,267.114,33.949z M165.265,420.122c-2.438-8.426-20.53-8.68-18.389-16.975
		c5.067,0.115,8.173,2.197,12.731,2.83c-0.507-4.213-2.254-7.18-4.244-9.902c-8.018,0-16.033,0-24.049,0
		c-0.324,2.193-5.438,6.6-1.414,8.486c-1.013-2.295,6.67-2.295,5.658,0c-3.378,6.521-12.984,6.816-14.146,15.561
		c5.865,1.621,5.513-2.975,9.902-2.828c-2.541,5.475-8.947,7.082-11.316,12.73c11.48,3.686,15.748-11.418,21.22-18.393
		c3.833,8.15,9.812,21.041,19.804,18.393c-1.035-6.076-12.908-8.73-9.902-14.146C152.69,420.436,158.905,420.352,165.265,420.122z
		 M97.366,8.487c-9.814,13.289-10.48,35.727-12.729,56.582c20.228-6.649,39.062-14.691,67.899-12.731
		c2.287-5.256,2.369-12.719,4.244-18.389C139.288,23.147,119.528,14.617,97.366,8.487z M158.194,52.337
		c10.354,0.017,18.816,1.929,26.874,4.244c0.105-6.026,2.365-9.894,1.416-16.975c-6.927-2.504-14.834-4.025-24.047-4.244
		C160.065,40.064,159.876,46.949,158.194,52.337z M192.142,41.021c0.57,6.699-2.521,9.734-1.414,16.975
		c21.113,5.292,35.693,17.115,52.338,26.876c0.104-20.174,5.346-35.207,12.73-48.095C229.864,36.292,214.312,37.601,192.142,41.021z
		 M132.731,243.303c-34.46-6.091-63.379-17.723-91.946-29.706c2.746,31.81,2.175,63.274,15.56,83.458
		c6.667,10.055,25.774,18.33,39.606,24.047c41.758,17.262,92.25,11.85,124.481-8.486c9.201-15.787,17.451-32.529,22.633-52.338
		c-7.688,2.173-10.527-7.591-19.803-9.902c-22.605-5.636-58.235,4.531-77.8-5.658c0.188-12.467,4.452-34.612,0-42.437
		C141.315,216.052,138.415,231.069,132.731,243.303z M241.651,216.426c-14.693-6.472-19.814,15.61-8.484,21.219
		c-12.404,9.185,4.227,26.816,15.561,16.975c1.482,3.702,4.068,6.303,8.486,7.073c10.719,0.407,15.582-7.942,12.729-16.975
		c9.119-1.167,14.494-11.582,8.488-19.804c-2.262-2.928-8.633-1.742-11.314-4.244C268.19,202.623,245.712,204.479,241.651,216.426z
		 M94.538,332.418c3.332,0.033,4.164-2.438,8.486-1.414c0.521-4.291-4.606-2.936-7.072-4.242
		C96.269,329.434,94.358,329.883,94.538,332.418z M127.073,333.834c-15.817-2.514-31.269,0.99-41.022,8.486
		c13.823,12.58,27.299,25.512,45.267,33.947C135.628,362.659,138.012,341.754,127.073,333.834z M158.194,335.249
		c-9.092,6.145-5.293,27.344-4.244,39.605c15.681-5.137,33.514-20.186,43.85-35.361
		C186.843,333.557,173.866,333.641,158.194,335.249z M144.047,363.54c1.548-2.316,5.234-9.729,1.415-12.73
		c-0.336,6.896-3.937,2.609-5.658,0C139.466,356.805,139.915,362.014,144.047,363.54z M135.56,381.93c5.187,0,10.373,0,15.56,0
		c-0.797-6.748-1.479-13.609-4.243-18.391c-1.421,1.881-1.339,5.264-4.244,5.658c-1.421-1.881-1.338-5.266-4.244-5.658
		C138.521,370.745,135.426,374.723,135.56,381.93z M69.075,473.875c32.453-12.598,49.246-60.84,62.24-94.775
		c-18.99,1.725-43.398,2.473-62.24,0c1.549,5.389-3.742,8.83,1.416,9.902c-1.03-2.314,2.811-6.154,2.828-2.828
		c-1.345,4.781-4.826,7.432-7.072,11.314c0-6.604,0-13.203,0-19.805c-11.814,0.496-18.471-4.16-24.047-9.9
		C18.623,391.764,27.152,490.147,69.075,473.875z M243.065,383.344c5.213,15.617-14.494,14.732-12.729,2.83
		c-0.336,10.547-1.67,13.695,4.244,18.391c29.365-11.605,21.865,44.879-1.414,29.705c-1.412,18.82-38.938,12.191-32.535-9.902
		c10.758-6.688,4.963-29.932,26.877-25.461c0.32-6.924-3.338-9.867-7.072-12.73c0.426,3.729-1.959,4.643-5.658,4.242
		c-15.422-4.389-42.741-4.402-57.997-4.242c14.486,29.811,29.706,76.072,60.825,87.701c38.621,14.43,46.838-60.064,33.949-91.945
		C247.228,380.903,247.392,384.368,243.065,383.344z M193.556,475.29c5.145-15.461-6.217-24.238-15.559-32.535
		c-17.271,0.018-53.422-0.092-70.729,0c-13.317,14.502-22.403,33.234-46.68,36.779c-1.039,33.1,11.291,52.834,21.218,74.969
		c41.021,0,82.044,0,123.067,0c9.186-22.877,22.428-41.699,21.219-74.969c-10.416-0.73-13.379-6.115-22.633-1.416
		C197.011,468.178,202.835,465.813,193.556,475.29z"/>
	<path d="M70.491,446.999c-2.762-3.369-8.408-3.854-7.073-11.314c-13.577,7.848-23.426-8.521-22.633-24.049
		c3.565-4.924,8.278-8.695,18.389-7.07c8.173-8.002,22.176-5.547,28.291,2.828c0.976,7.512,1.481,15.49,7.073,18.391
		C96.989,443.319,85.267,446.686,70.491,446.999z"/>
	<path d="M153.95,503.581c-0.892-10.793,1.709-18.094,11.315-18.389c1.634-13.939,30.707-18.957,32.535-1.416
		c5.086,1.516,9.268,3.936,12.729,7.07c4.639,7.631-4.646,24.223-14.145,25.465c-5.166,0.676-8.148-4.484-12.73-4.244
		c-3.766,0.195-6.048,4.688-9.9,4.244C164.362,515.233,158.997,507.991,153.95,503.581z"/>
	<path d="M94.538,540.358c-10.092-4.426-23.848-14.156-15.561-28.291c13.254-1.986,12.541-15.729,24.047-16.977
		c14.238-1.547,16.211,13.6,29.706,18.393c7.368,16.824-15.44,34.674-25.462,21.217C104.218,537.778,99.932,539.622,94.538,540.358z
		"/>
</g>
</svg>
