<?xml version="1.0" encoding="utf-8"?>
<!-- Generator: Adobe Illustrator 15.1.0, SVG Export Plug-In . SVG Version: 6.00 Build 0)  -->
<!DOCTYPE svg PUBLIC "-//W3C//DTD SVG 1.1//EN" "http://www.w3.org/Graphics/SVG/1.1/DTD/svg11.dtd">
<svg version="1.1" id="Calque_1" xmlns="http://www.w3.org/2000/svg" xmlns:xlink="http://www.w3.org/1999/xlink" x="0px" y="0px"
	 width="144.955px" height="593.333px" viewBox="0 0 144.955 593.333" enable-background="new 0 0 144.955 593.333"
	 xml:space="preserve">
<g>
	<path d="M67.564,59.579C35.011,18.427,28.869,19.655,28.869,19.655C23.955,19.041,0,4.914,0,4.914
		c13.514,22.112,52.209,61.421,52.21,61.422C57.737,63.265,67.564,59.579,67.564,59.579z"/>
	<path d="M85.377,54.665c0,0,15.354-1.842,20.886,0c0,0,30.711-24.569,38.692-54.665C144.955-0.001,122.843,17.811,85.377,54.665z"
		/>
	<polygon points="52.209,119.771 36.24,557.708 70.636,593.333 108.716,552.793 97.048,106.259 	"/>
	<path d="M51.901,114.859c0.226,0.081,0.982-0.617,0.982-0.617s4.412-2.89,22.466-7.983c18.053-5.093,22.81-4.907,23.822-6.756
		c1.014-1.849,5.051-9.946,7.703-41.766c-9.598-0.195-16.859,1.512-54.666,12.283C50.526,86.541,50.026,111.427,51.901,114.859z"/>
</g>
</svg>
