<?xml version="1.0" encoding="utf-8"?>
<!-- Generator: Adobe Illustrator 15.1.0, SVG Export Plug-In . SVG Version: 6.00 Build 0)  -->
<!DOCTYPE svg PUBLIC "-//W3C//DTD SVG 1.1//EN" "http://www.w3.org/Graphics/SVG/1.1/DTD/svg11.dtd">
<svg version="1.1" id="Calque_2" xmlns="http://www.w3.org/2000/svg" xmlns:xlink="http://www.w3.org/1999/xlink" x="0px" y="0px"
	 width="590px" height="491.7px" viewBox="0 0 590 491.7" enable-background="new 0 0 590 491.7" xml:space="preserve">
<path d="M289.236,344.178c-24.562,46.053-71.844,182.98-164.562,133.246C65.115,443.653,48.536,330.67,48.536,330.67
	c-3.07-33.771,6.753-58.945,120.349-88.418c-71.229-12.896-132.02,23.939-130.176-65.092c0.613-42.986-0.041-58.336-0.041-58.336
	c-1.801-31.932-27.59-58.334-27.59-58.334c-22.72-30.086-20.264-94.563,103.156-38.07
	c123.419,56.492,165.787,198.332,165.787,198.332c3.032-0.018,5.487-0.324,5.487-0.324l0.308-10.131
	c-7.983-17.193-41.753-68.158-24.869-91.184c4.605-4.605,9.226-1.494,4.605,19.035c-4.619,20.529,25.482,69.693,25.482,69.693
	c14.761-26.701,25.48-65.703,25.48-65.703c-0.307-12.586-1.535-28.855,7.063-23.025c10.478,7.105-11.357,59.256-26.71,90.877
	l-0.309,10.133l7.981-0.615c19.036-50.043,98.55-160.568,157.497-195.568C523.748-19.349,637.036,0,568.879,62.625
	c-23.61,31.438-25.789,70.92-25.789,70.92c0.921,31.314-1.842,50.658-1.842,50.658c-2.764,36.84,7.367,58.023-128.025,56.184
	c79.21,26.709,132.651,34.705,115.13,108.682c-16.577,70-43.289,112.367-94.866,139.074
	C367.172,518.54,289.236,344.178,289.236,344.178z"/>
</svg>
