<?xml version="1.0" encoding="utf-8"?>
<!-- Generator: Adobe Illustrator 15.1.0, SVG Export Plug-In . SVG Version: 6.00 Build 0)  -->
<!DOCTYPE svg PUBLIC "-//W3C//DTD SVG 1.1//EN" "http://www.w3.org/Graphics/SVG/1.1/DTD/svg11.dtd">
<svg version="1.1" id="Calque_1" xmlns="http://www.w3.org/2000/svg" xmlns:xlink="http://www.w3.org/1999/xlink" x="0px" y="0px"
	 width="478.997px" height="590px" viewBox="0 0 478.997 590" enable-background="new 0 0 478.997 590" xml:space="preserve">
<g>
	<path d="M195.421,0.097c13.061,0,26.121,0,39.182,0c6.34,0.946,11.699-0.701,17.268,0.166c1.363,0.212,3.836,1.073,5.479,1.66
		c1.656,0.592,3.02,2.39,4.318,2.655c1.467,0.303,3.852-0.357,5.811-0.498c6.072-0.433,11.943-0.119,17.434,0.83
		c11.613,7.694,21.9,16.402,34.701,22.58c6.803,3.284,14.836,4.114,22.414,6.145c29.252,7.834,54.41,22.065,69.732,44.662
		c3.645,5.375,7.717,12.676,8.301,20.256c0.07,0.91-0.256,2.104,0,2.988c0.365,1.258,3.275,2.922,4.648,3.984
		c11.625,8.992,20.039,19.761,24.074,36.361c3.922,16.136,3.166,37.768,0.332,55.121c-0.342,2.094-1.625,5.316-1.328,7.14
		c0.465,2.841,6.729,4.374,7.139,7.14c-2.162,1.367-4.637,1.664-6.641,3.154c-1.16,0.863-3.066,3.082-2.656,5.313
		c0.145,0.787,2.24,2.303,2.986,2.989c1.262,1.155,2.16,2.16,2.99,2.988c1.184,1.183,5.594,4.967,4.316,7.14
		c-1.375,2.336-7.627-1.464-8.801-2.158c-2.438-1.444-5.006-3.33-7.139-5.147c1.885,10.844,7.061,18.397,14.609,23.576
		c-0.17-2.037-1.908-8.095,1.66-7.637c1.428,0.183,2.654,4.514,3.32,6.309c0.959,2.582,1.453,5.328,2.49,7.139
		c0.783,1.368,2.463,2.392,3.984,3.487c1.383,0.994,3.311,2.255,4.814,2.49c1.303,0.204,3.102-0.618,4.482-0.166
		c1.297,0.425,3.1,4.952,3.652,6.31c0,0.83,0,1.66,0,2.49c-0.258,0.406-0.248,1.081-0.332,1.66
		c-1.807-0.036-3.252,0.291-5.146,0.166c0.439,2.051,3.143,4.162,3.652,6.143c-3.893-0.126-8.176,0.245-11.123-1.161
		c-5.354,2.938,1.588,9.117,3.816,12.119c0.406,0.547,0.654,1.185,0.996,1.661c0.256,0.354,1.064,0.663,0.664,1.162
		c-2.297-1.022-4.963-1.679-7.305-2.657c0,8.759,0,17.118,0,25.402c0,8.524,0.822,17.013,0.166,25.237
		c-0.416,5.206-1.865,10.583-2.988,15.605c-2.881,12.873-6.844,23.697-12.121,34.368c-0.977,1.977-2.641,4.393-2.986,6.145
		c-0.521,2.633-0.178,6.175-0.332,9.464c-0.49,10.379,0.484,23.741-9.133,24.903c0.633,17.14-5.811,30.502-18.098,35.862
		c-1.461,0.638-4.439,1.894-5.977,1.661c-2.408-0.364-3.098-3.072-2.49-5.979c1.145-2.566,4.164-2.828,6.143-4.482
		c2.371-1.982,2.41-5.279,2.49-9.795c-1.422-0.094-2.545,0.111-3.818,0.166c-2.459,3.131-3.619,7.561-7.473,9.297
		c-1.787-2.479,0.559-6.602,1.164-9.297c-2.748,0.165-6.572,2.266-9.797,0.996c1.209,14.182-4.836,23.371-18.762,22.414
		c0.865,13.014-1.213,27.23,2.49,37.189c3.109,8.364,8.197,15.056,13.283,21.584c0.664,0.854,1.758,1.621,1.826,2.822
		c-4.844,0.573-10.934,0.887-15.109-0.498c-0.361,4.322,1.605,7.096,1.328,10.792c-2.383-0.188-3.877-3.037-5.146-4.979
		c-1.352-2.068-2.887-4.461-3.32-7.141c-0.678,0.166-2.236,1.371-3.818,0.664c1.234,14.029,6.582,24.384,11.621,35.198
		c0.717,1.533,1.871,3.466,1.826,4.814c-0.063,1.967-2.27,4.147-3.818,4.98c-2.002,1.078-4.795,1.66-7.305,2.49
		c-16.445,5.442-35.254,10.864-56.451,11.456c-3.098,0-6.197,0-9.297,0c-35.617-2.346-65.613-10.903-99.619-15.938
		c-5.438-0.807-11.316-1.647-16.934-2.325c-6.203-0.747-11.902-1.061-15.275-3.818c-0.92-0.753-1.346-1.887-2.16-2.656
		c-0.9-0.854-2.564-1.258-2.988-2.323c-1.168-2.963,0.74-6.221,1.162-8.635c-1.518-1.968-3.703-3.269-5.479-4.98
		c-0.924-4.941-5.719-6.014-10.293-7.305c-2.91-7.511-4.176-15.101-7.637-20.257c-0.979-1.457-4.074-2.159-5.813-3.319
		c-3.459-2.313-6.049-7.775-3.32-12.619c2.918-5.182,20.023-7.909,25.9-3.32c1.176,0.918,3.719,5.213,5.479,5.146
		c0.268-0.011,1.801-0.902,1.826-1.328c0.041-0.642-2.518-2.252-3.152-2.656c-3.227-2.055-9.729-4.484-10.129-8.799
		c-0.35-3.771,2.104-6.013-1.328-7.474c0.676,3.196-0.613,11.3-3.32,11.789c-2.27,0.41-4.635-2.186-5.314-3.487
		c-1.256-2.406-1.289-6.412-0.332-8.633c1.438-3.335,6.133-3.798,6.809-7.14c-1.52-0.584-3.236-0.971-3.32-2.988
		c-5.707,5.66-11.512,10.771-18.762,15.44c-6.768,4.357-15.555,9.04-25.9,8.468c-9.721-0.538-16.746-6.938-20.256-14.112
		c-3.852-7.871-5.479-17.531-6.143-28.226c-0.119-1.906,3.207-3.87,3.486-5.978c0.594-4.47-1.578-8.775-3.652-11.789
		c-2.15-3.122-4.746-5.744-5.977-9.297c-0.693,2.958-2.6,4.707-4.316,6.641c-2.492-0.109-4.854-0.35-7.307-0.498
		c-1.977,0.827-3.719,2.451-5.645,3.818c-1.621,1.15-4.111,3.104-6.477,1.495c-0.385-1.15,0.314-2.085,0.5-3.155
		c1.805-0.844,4.055-1.75,6.143-2.987c1.529-0.905,4.342-2.593,4.814-4.316c0.527-1.917-0.381-4.181,0-6.808
		c2.186-0.584,3.986-1.549,6.145-2.158c-1.906-1.248-4.277-2.033-5.811-3.653c-1.848,3.448-2.631,8.138-5.146,11.955
		c-1.061,1.605-2.443,2.947-4.15,4.482c-1.313,1.179-3.518,3.967-5.645,2.655c-0.711-1.42-0.439-3.071,0-4.315
		c1.02-2.896,3.166-5.503,4.648-8.302c1.504-2.84,2.918-5.687,3.652-9.133c-5.758,1.188-9.732-2.973-14.279-4.315
		c-2.762-0.817-6.137,1.83-8.965,0.498c-1.682-0.792-2.193-3.185-2.656-4.647c-2.045-0.709-3.504-1.502-4.15-3.155
		c-0.871-2.228,0.365-4.702-0.166-7.14c-0.297-1.355-3.486-4.414-4.484-5.646c-1.697-2.096-3.721-3.535-3.486-6.31
		c2.525-1.034,4.584,1.236,6.145,2.656c1.758,1.603,3.244,3.624,4.814,4.98c1.998-0.592,2.617-3.188,4.648-3.486
		c1.664-0.246,3.707,1.564,5.811,0.332c0.727-1.697-0.404-2.975-0.83-4.316c-0.211-0.666-0.201-1.521-0.498-2.324
		c-1.51-4.087-6.604-6.094-10.293-8.635c-3.641-2.506-7.012-5.407-6.973-11.787c0.057-9.658,5.883-16.145,9.297-23.742
		c-0.455,4.17-1.652,8.783-1.328,13.614c0.771,11.479,9.525,15.107,19.592,17.434c3.152-1.915,6.627-3.104,10.459-4.813
		c3.711-1.655,10.174-3.802,8.469-9.465c-1.436-4.769-5.615-8.636-8.965-12.285c-3.553-3.87-7.156-7.436-10.129-11.125
		c-8.6,2.854-19.42,6.81-30.715,5.978c-11.205-0.824-17.186-7.45-18.596-18.429c0-0.887,0-1.771,0-2.657
		c2.715,3.587,4.58,5.948,7.471,8.633c2.611,2.425,6.104,5.285,10.627,5.479c6.645,0.286,10.426-4.344,13.115-8.966
		c2.584-4.438,5.215-10.899,4.816-17.269c-0.197-3.131-1.709-6.647-2.658-10.127c-0.918-3.372-2.541-7.458-2.324-10.294
		c0.262-3.384,5.303-4.504,5.646-7.803c0.262-2.527-1.293-4.496-2.492-6.143c-1.172-1.612-3.445-3.19-3.818-4.981
		c-0.207-1.002,0.332-2.647,0-3.818c-0.178-0.633-0.695-0.828-1.162-1.328c-1.486-1.599-1.336-4.015-2.158-6.144
		c-1.182-3.063-3.09-6.346-4.814-8.8c-0.598-0.851-1.771-2.036-0.83-3.154c2.102-0.43,3.188,0.979,3.984,2.49
		c0.713,1.354,1.713,2.781,2.656,4.151c1.662,2.413,4.229,6.827,6.973,6.973c7.516,0.401,6.264-7.777,4.65-13.78
		c-1.123-0.941-2.127-0.438-2.658-1.827c-1.146-2.999,1.455-8.944-0.664-11.29c-1.963-1.021-5.318,0.393-7.803-0.332
		c-1.732-0.504-0.75-1.351-2.158-1.991c-1.484-0.677-4.994-0.373-7.639-0.499c-2.955-0.142-6.141,0.453-7.803-0.332
		c-0.889-0.419-2.045-1.858-1.992-2.822c0.082-1.547,1.83-1.465,2.324-2.822c14.229-0.127,25.637-5.022,35.529-10.294
		c10.088-5.374,19.412-11.253,28.059-18.098c1.631-9.938,3.502-22.263,8.469-29.222c0.699-0.98,2.133-2.344,2.158-3.154
		c0.023-0.752-1.09-2.489-1.494-3.487c-3.475-8.553-7.35-17.027-8.137-27.562c-0.91-12.204,3.334-20.455,8.469-26.896
		c0.559-0.701,2.008-2.27,2.158-2.988c0.176-0.842-0.227-2.457-0.332-3.818c-0.291-3.754-0.98-8.771-0.832-12.12
		c0.121-2.697,1.928-6.104,3.156-9.131c1.277-3.146,2.412-6.057,3.652-8.469C111.507,28.694,146.585,8.023,195.421,0.097z
		 M218.666,42.601c0.34,1.187,1.229,2.243,0.996,3.321c-0.297,1.366-1.617,1.207-2.822,1.66c-1.854,0.695-3.766,2.271-4.65,3.651
		c2.086,0.604,5.336,0.999,7.307,0.83c2.328-0.199,3.77-1.597,5.977-1.162c1.34,0.265,1.715,1.443,2.822,2.159
		c2.539,1.641,5.91,2.347,9.631,1.66c-1.084-3.178-4.43-5.08-6.975-6.475c-1.016-0.559-2.406-0.543-2.988-1.66
		c0.355-1.25,1.465-1.746,2.656-2.159c1.207-2.229,3.676-4.066,3.652-6.974c-3.313-0.319-5.873,1.538-8.633,2.324
		c-2.762-1.943-4.736-4.672-8.467-5.645C217.388,36.645,218.042,40.428,218.666,42.601z M362.947,173.764
		c-0.012-1.696-0.764-3.844-1.162-5.978c-1.115-5.938-2.246-12.957-3.986-17.765c-2.404-6.646-9.002-11.258-14.277-14.776
		c-17.482-11.659-39.59-18.757-62.096-24.905c-7.492-2.047-15.654-3.337-24.406-4.648c-15.99-2.396-35.963-5.003-54.293-4.15
		c-12.482,0.581-23.818,1.676-34.367,4.648c-4.951,1.396-9.863,3.163-14.445,5.146c-4.623,2.001-9.416,3.979-13.115,6.476
		c-2.512,1.693-4.549,4.216-6.809,6.476c-6.563,6.563-13.422,14.534-15.273,24.904c2.182,1.396,4.891,2.943,4.979,5.812
		c0.121,3.817-0.898,8.366-1.328,12.784c-1.053,10.883-1.984,21.874-2.986,32.375c-0.219,2.276-0.025,4.705-0.498,6.641
		c-0.455,1.863-1.697,3.605-2.326,5.479c-2.029,6.046-2.781,12.861-3.32,20.421c-1.445,20.298,1.049,40.697,5.48,56.949
		c1.557,5.71,4.041,11.916,5.977,17.765c0.713,2.158,1.867,4.516,1.826,6.144c-0.027,1.096-0.619,1.958-0.498,3.153
		c0.07,0.702,0.492,1.165,0.498,1.993c2.188,0.356,4.838,0.712,4.814,2.657c-0.025,2.089-3.484,3.11-6.143,2.656
		c0,1.938,0,3.874,0,5.812c1.426,1.578,3.975,2.667,4.482,5.313c0.82,4.272-0.744,9.175,1.328,12.452
		c1.092-1.121,1.457-2.972,2.49-4.15c1.502,0.324,2.787,0.864,4.15,1.328c0.424,2.564,1.225,4.753,1.662,7.305
		c2.107-0.052,3.936,0.021,5.811,0.665c1.268,0.437,3.676,1.44,3.818,2.656c0.117,0.996-1.135,2.521-2.49,2.822
		c-1.641,0.364-3.602-0.356-5.146-0.498c-0.043,1.09-0.832,3.116,0,3.983c2.121,0.484,4.582-1.117,6.475,0
		c1.314,1.649,0.064,4.845,0.664,7.141c1.293,0.038,2.166-0.723,3.32-0.332c1.131,2.558,1.344,7.328,0.166,10.128
		c-0.631,1.501-2.111,1.787-2.49,2.987c3.447,1.07-0.313,5.989,0.498,9.299c1.115,3.245,6,4.156,10.295,3.154
		c0.49-1.327,2.338-2.213,2.988-4.649c0.771-2.894-0.123-7.403,2.324-8.135c2.523-0.755,5.256,0.961,4.814,4.149
		c2.926,1.207,5.057,3.778,4.152,8.303c1.637,0.088,3-0.101,4.482-0.166c3.406,6.842,8.621,14.072,16.604,17.101
		c2.66,1.01,5.986,2.448,8.799,2.491c1.734,0.025,4.527-0.653,6.973-0.332c1.768,0.23,3.75,1.001,5.813,1.494
		c1.967,0.47,3.992,1.021,6.143,1.327c4.453,0.634,9.025,1.91,13.115,1.826c5.25-0.106,5.068-4.284,6.973-7.14
		c1.518,0.128,3.42-0.654,4.318,0.332c0.5,1.171-0.246,2.217-0.166,3.486c1.99,0.627,4.727,0.254,6.475-0.332
		c0.166-1.507-0.816-2.52-0.332-3.818c3.268-2.299,8.293,1.671,11.955,0c0.646-2.23,0.021-5.732,1.328-7.305
		c2.939-2.705,7.924-3.365,13.447-3.486c-0.508-6.172,2.334-13.192-1.162-16.937c-1.072-1.147-3.195-2.438-5.645-2.489
		c-2.598-0.058-4.443,0.957-6.145,0.83c-2.186-0.166-3.314-1.402-5.146-2.656c-1.148-0.787-2.977-1.532-4.814-2.325
		c-1.865-0.804-3.949-1.909-5.146-2.158c-6.213-1.295-12.793,0.488-18.928-0.332c-2.32-0.311-5.076-1.505-7.969-1.66
		c-2.85-0.151-7.033,0.438-9.463-0.332c-0.6-0.188-1.779-1.509-2.99-2.323c-1.246-0.84-2.531-1.107-3.486-1.827
		c-1.016-0.766-2.939-5.188-2.822-6.476c0.275-3.021,5.34-4.106,8.801-4.315c6.137-0.373,12.158,0.479,18.262,0.165
		c2.77-0.143,5.439-0.573,8.303-0.83c2.773-0.248,6.191,0.005,8.635-0.664c1.129-0.311,3.234-1.689,4.646-2.656
		c2.543-1.738,5.58-4.179,5.48-7.638c-0.107-3.694-5.822-7.174-8.967-7.637c-3.102-0.457-6.928,0-10.625,0
		c-7.713-0.001-13.236,0.498-20.92,0.498c-3.771,0-8.232-0.572-10.627,0.166c-1.85,0.568-3.326,3.089-4.98,3.817
		c-1.121,0.494-3.24,0.942-5.313,1.494c-1.811,0.482-4.076,1.208-5.646,1.328c-3.684,0.283-7.756-0.953-7.969-3.652
		c-0.252-3.2,4.215-5.323,6.975-6.31c4.533-1.618,9.594-2.741,14.609-4.813c2.004-0.828,4.361-1.738,6.809-2.822
		c2.002-0.89,5.135-2.916,6.807-2.989c1.193-0.053,2.582,0.671,3.818,0.83c4.744,0.608,7.473-1.176,11.455-1.494
		c2.539-0.203,5.221-0.445,7.971-0.664c5.48-0.437,10.957-0.569,16.105-0.665c-1.697-3.184-6.463-3.8-9.631-6.143
		c-1.412-1.044-4.447-4.551-4.814-6.31c-1.063-5.093,2.09-8.286,2.988-11.29c1.43-4.778-0.059-11.451,0.166-17.101
		c0.047-1.149,0.498-2.348-0.166-3.487c-3.221-1.357-6.502,1.14-7.803,3.321c-1.607,0.614-2.816,1.407-4.482,1.66
		c-5.826,0.886-9.164-3.349-10.959-7.472c-4.637,0.066-6.896,2.511-10.127,3.984c-3.576-2.213-10.59-1.581-12.121-5.811
		c-0.898-2.487,0.256-4.567,1.494-6.476c0.689-1.062,1.783-3.192,3.32-3.485c1.633-0.313,3.898,0.466,5.646,0.664
		c2.064,0.233,3.887,0.308,5.977,0.498c2.766,2.99,6.809,3.666,11.623,4.317c5.006,0.678,9.986-1.113,13.115-2.823
		c1.438-0.783,3.352-2.862,4.982-3.154c1.684-0.302,4.256,0.338,6.143,0.499c6.648,0.563,11.252,2.286,14.777,5.479
		c0.592,3.892,1.281,7.683,1.992,11.456c0.799,0.196,1.248,0.744,1.99,0.996c0.199-3.675,0.104-7.646,4.318-7.306
		c5.021,3.582,3.709,12.983-3.654,12.452c-0.646,1.598-1.617,2.657-3.318,2.822c-2.145,0.209-4.342-1.731-6.145-1.66
		c-1.801,0.072-3.063,1.619-4.648,1.993c-2.768,8.239,4.338,11.78,8.801,15.274c2.432,1.905,4.641,4.321,6.973,5.313
		c3.293,1.401,7.07,1.891,10.293,2.657c3.424,0.814,6.281,1.842,9.299,3.653c2.457,1.474,5.047,3.277,7.639,5.313
		c1.93,1.517,5.496,5.248,8.135,4.98c2.217-0.226,2.465-2.833,3.486-4.317c3.076-4.467,10.242-7.183,15.107-9.629
		c1.701-0.854,4.039-1.572,4.816-3.487c-3.531-1.927-8.137-1.064-12.619-0.166c-2.398,0.481-5.535,2.115-7.471,1.827
		c-1.371-0.205-2.836-2.2-3.32-3.819c-1.131-3.767,0.033-11.387,1.328-14.444c0.521-1.237,1.713-2.591,2.49-3.984
		c0.785-1.413,1.643-2.829,2.654-3.818c6.205-2.097,12.467-4.138,18.764-6.144c-0.988-0.822-2.105-1.418-2.822-2.49
		c-1.664-2.479-2.271-8.881,0.996-9.132c3.072-0.235,3.615,3.705,4.646,5.978c2.783-2.377,3.762-6.295,5.314-9.796
		c1.582-3.567,2.898-7.399,4.316-10.958c3.539-2.327,6.658-5.075,10.459-7.14c-0.209-3.223-0.678-6.186-0.83-9.464
		c-5.342-1.244-11.826-2.945-18.596-3.319c-3.965-0.221-9.506-0.566-13.281,0c-1.654,0.248-3.672,1.637-5.479,1.825
		c-1.859,0.194-3.514-0.364-5.146-0.166c-0.148-2.962-1.951-6.32-0.83-8.966c2.32-1.163,4.795,0.846,6.973,0.332
		c-0.963-0.905-1.34-3.962-2.988-4.481c-2.117-0.668-4.883,1.013-7.471,0.83c-2.852-0.201-5.725-2.37-8.801-2.822
		c-2.23-0.329-4.047,0.164-6.143-0.499c-0.213-1.061-0.502-2.044-0.664-3.154c3.258-2.751,10.625-0.372,15.605-1.329
		c2.951-2.535,0.086-4.572-3.32-3.319c-1.596,0.586-2.137,1.792-3.818,2.157c-2.896,0.631-6.438-0.617-8.633,0.166
		c-1.184-1.773-2.287-3.513-3.818-5.313c-1.271-1.492-3.125-3.841-5.148-4.151c-2.754-0.422-5.648,1.348-8.135,2.325
		c-2.664,1.048-5.215,1.889-7.969,2.491c-1.08-0.654-3.051-2.004-4.814-0.997c-1.563,0.892-1.172,4.695-0.332,6.143
		c1.188,2.048,3.332,2.605,3.652,4.981c0.383,2.84-2.176,5.25-3.652,6.807c-1.16,1.222-2.961,2.42-3.154,2.989
		c-0.781,2.271,0.672,3.88-1.162,5.146c-0.953,0.658-2.137,0.56-3.486,0.332c-0.502-1.712-0.615-3.813-1.328-5.313
		c-0.701,2.132-1.479,6.324-3.32,6.973c-1.191,0.419-2.648-0.3-4.482,0c-1.119-1.593-2.068-3.355-3.154-4.98
		c-3.014-0.309-3.002-5.319-2.824-8.467c0.287-5.048,2.148-7.639,4.816-10.461c1.303-1.378,3.311-2.731,3.652-4.149
		c0.508-2.113-0.176-4.289,0-5.979c0.125-1.217,0.611-2.262,0.994-3.319c0.385-1.056,1.135-2.135,1.328-3.155
		c0.508-2.647-0.107-6.098-0.664-7.305c-0.863-1.882-4.758-3.051-4.979-4.649c-0.305-2.197,2.561-3.409,3.984-4.483
		c2.979-2.245,4.533-4.764,5.811-7.97c1.922-0.645,3.869-0.771,5.979-1.66c1.814-0.765,3.52-2.204,5.313-2.49
		c2.271-0.363,5.207-0.229,7.803-0.166c8.133,0.194,15.205,0.321,22.912-0.332c7.504-0.638,15.502-0.429,22.414-1.495
		c2.322-0.358,4.779-1.339,6.643-1.328c1.91,0.01,3.844,1.491,5.645,2.655c3.77,2.44,6.199,4.508,9.795,6.809
		c1.818,1.163,3.959,2.736,5.813,2.656c2.404-0.104,4.521-2.834,6.809-1.162c1.438,1.052,0.863,4.549,1.66,5.977
		C362.136,180.254,362.958,176.088,362.947,173.764z M282.751,347.598c0.166,3.939,7.207,0.768,9.631,1.494
		C292.728,345.072,282.574,343.364,282.751,347.598z M274.949,348.594c1.02,0.753,2.268,1.274,3.984,1.328
		c-0.291-0.971-0.75-1.814-0.166-2.822C277.333,347.437,275.601,347.476,274.949,348.594z M215.841,509.976
		c-2.084-1.52-5.188-2.695-6.973-4.317c-1.645-1.494-2.342-3.482-3.984-4.813c-3.42-2.771-8.842-3.056-14.113-3.985
		c-1.92-0.339-9.41-2.868-9.961,0.166c-0.203,1.121,2.109,3.137,3.154,3.985c9.479,7.688,19.707,13.748,30.051,20.089
		c10.357,6.35,21.471,11.9,30.883,19.26c2.609,2.041,4.16,4.574,8.301,3.154c-1.207-1.568-0.76-3.162-0.662-5.146
		c0.152-3.207-0.467-6.086-2.326-8.136c-1.895-2.089-4.232-2.183-6.143-4.647c-1.047-8.473-3.229-15.812-6.807-21.75
		c0.197,6.982,1.041,14.93-1.662,19.758C227.945,520.202,222.275,514.661,215.841,509.976z"/>
	<path d="M156.404,166.458c2.164,0.271,4.436,0.437,5.479,1.827c0.908,0.021,0.561-1.211,1.328-1.328
		c1.375,1.16,3.682,2.147,5.479,0.664c0.627,0.156,0.68,1.352,1.328,1.66c0.49,0.233,1.314-0.109,2.326,0
		c0.971,0.105,1.756,0.672,2.324,0.664c0.803-0.011,1.5-0.77,2.322-0.83c0.965-0.071,2.264,0.62,3.654,0.83
		c5.002,0.754,12.836-0.976,17.432-0.166c1.617,0.285,2.92,1.321,4.318,1.162c0.711-0.118,0.311-1.352,0.996-1.494
		c5.813,1.892,12.715,4.363,15.771,9.298c0.771,1.242,1.922,3.448,2.16,4.649c0.836,4.22-0.758,8.675-0.166,13.615
		c-2.369,0.73-3.666,2.531-4.98,4.315c-1.715,1.274-4.984,0.994-7.971,0.996c-0.338,0.659-0.102,1.891-0.498,2.49
		c-7.395,2.147-14.006-0.932-16.105-6.144c-1.604,0-3.209,0-4.814,0c-0.707,1.224-0.068,2.829-0.332,3.984
		c-0.373,1.646-2.416,3.54-3.652,4.814c-2,2.066-3.908,3.363-7.637,2.989c-4.703-0.472-8.191-3.87-11.291-5.978
		c-5.641,1.333-4.861,9.085-8.303,12.619c-7.102-0.163-18.973,2.066-19.59-4.317c-0.438-4.521,3.535-8.218,5.811-10.626
		c4.281-4.528,10.186-8.289,17.434-9.961c1.432-0.33,3.266-0.322,4.648-0.83c2.195-0.807,2.531-3.72,3.154-5.811
		c-1.689-0.939-3.482-1.799-5.645-1.826c-1.176-0.017-2.713,0.572-4.316,0.664c-0.756,0.041-1.727-0.056-2.49,0
		c-2.4,0.172-3.809,1.62-6.309,1.161c-1.145-0.21-1.699-1.284-2.658-1.495c-0.742,0.198-1.279,0.602-1.658,1.163
		c0.076,1.561,0.455,3.712-0.166,4.98c-0.938,0.835-3.078,0.455-4.318,0.166c-0.865,1.01-1.016,2.769-2.49,2.823
		c-1.262,0.046-2.516-2.055-2.656-3.487c-0.178-1.816,0.74-3.802,0.664-5.812c-0.037-0.979-0.145-2.143-0.5-3.154
		c-0.77-2.196-2.695-3.726-0.996-6.31c2.813-0.772,4.869-0.405,6.145-2.489c0.771-1.265,0.668-3.447,1.826-4.483
		c2.568-2.299,7.447-0.62,11.955-0.996C153.73,164.947,156.55,163.564,156.404,166.458z M174.003,199.498
		c0.582,0.082,1.08,0.248,1.826,0.166c0.449-1.044,1.223-1.764,1.162-3.32c-1.291,0.128-2.109-0.215-3.322-0.166
		C173.923,197.145,173.773,198.511,174.003,199.498z"/>
	<path d="M264.822,250.138c1.617,0.019,5.918,2.079,4.648,4.814c-0.904,1.948-6.686,1.302-7.803,0
		C259.732,252.699,261.96,250.104,264.822,250.138z"/>
	<path d="M203.058,284.838c-0.52-1.469-0.484-2.627,0-3.32c1.186-1.695,6.41-0.005,5.979,1.992
		C208.669,285.199,205.31,284.648,203.058,284.838z"/>
	<path d="M219.994,303.268c-0.877,0.456-2.574,1.084-3.652,0.83c-3.285-0.775-0.641-8.938,0.83-10.128
		C220.027,295.043,220.244,299.642,219.994,303.268z"/>
	<path d="M195.753,319.704c-0.91,3.57,0.41,13.303-3.654,13.781c-1.703,0.2-3.543-1.541-3.652-3.155
		c-0.061-0.879,0.857-2.692,0.996-4.481c0.158-2.063-0.234-3.788,0.332-5.147C190.826,318.185,194.626,316.863,195.753,319.704z"/>
	<path d="M133.99,320.036c2.619-0.635,3.221,9.122,3.154,12.619c-0.063,3.381-1.041,6.986-2.822,6.974
		c-2.109-0.016-3.582-4.804-3.818-7.638C130.156,327.82,131.939,320.533,133.99,320.036z"/>
	<path d="M184.296,324.686c0.404,4.979-2.293,9.825-7.139,6.974c-1.502,1.182-0.971,3.106-0.996,4.98
		c-0.039,2.864-0.676,6.706-0.996,10.46c-0.314,3.668-0.191,7.646-0.996,10.294c-0.576,1.894-3.086,4.816-4.982,5.146
		c-5.611,0.976-5.811-7.504-5.811-12.452c0-8.192,2.215-14.128,5.645-19.259c1.592-2.377,3.961-5.437,5.979-6.476
		C177.748,322.938,181.316,323.596,184.296,324.686z"/>
	<path d="M67.246,509.976c0.109,0,0.221,0,0.332,0c0.727,1.034,0.072,2.393,0,3.485c-0.545,8.129,3.254,16.313,0.664,24.406
		c0.258,0.832,1.717,1.813,2.324,2.822c1.441,2.398,3.418,9.395,0,10.128c-3.744,0.804-6.33-4.146-8.801-5.313
		c-0.227,5.504-3.797,9.017-9.629,7.972c-3.348-0.603-6.629-4.472-8.965-6.809c-7.809-7.808-13.828-18.836-16.77-30.55
		c12.434-2.874,24.789,2.134,33.869,5.645C61.949,517.186,64.052,513.035,67.246,509.976z"/>
	<path d="M133.658,520.767c3.686,2.534,2.197,10.61,4.15,14.942c0.861,1.907,3.494,3.809,4.982,5.646
		c3.295,4.068,5.313,8.217,5.313,15.938c0,3.283,0.184,7.192-0.664,9.797c-2.047,6.285-12.205,5.341-14.777,0.332
		c-0.559-1.088-0.58-2.705-0.996-4.151c-1.865-6.492-4.914-12.173-8.633-17.101c-1.922-2.545-6.441-8.672-2.988-12.618
		c2.537-2.901,8.975-0.901,12.949-0.498C133.085,529.28,130.248,522.243,133.658,520.767z"/>
	<path d="M398.808,539.528c2.732,2.69,4.252,6.596,4.98,11.29C397.07,551.733,396.025,543.836,398.808,539.528z"/>
	<path d="M423.878,552.811c4.961,2.179,13.26,5.833,17.434,10.294c1.322,1.414,3.027,3.963,2.656,6.476
		c-0.473,3.197-2.875,5.649-3.984,8.635c-8.795-2.289-10.941-11.613-14.611-19.426c-0.877-1.869-2.439-3.574-2.158-5.646
		C423.46,553.057,423.632,552.897,423.878,552.811z"/>
	<path d="M424.708,573.896c-1.191,1.34-5.66,1.729-7.305,0.664c-1.152-0.745-3.4-4.678-3.156-6.809
		c0.408-3.539,4.824,0.396,6.477,1.661C422.347,570.656,424.38,571.997,424.708,573.896z"/>
</g>
</svg>
