<?xml version="1.0" encoding="utf-8"?>
<!-- Generator: Adobe Illustrator 15.1.0, SVG Export Plug-In . SVG Version: 6.00 Build 0)  -->
<!DOCTYPE svg PUBLIC "-//W3C//DTD SVG 1.1//EN" "http://www.w3.org/Graphics/SVG/1.1/DTD/svg11.dtd">
<svg version="1.1" id="Calque_1" xmlns="http://www.w3.org/2000/svg" xmlns:xlink="http://www.w3.org/1999/xlink" x="0px" y="0px"
	 width="557.674px" height="185.489px" viewBox="0 0 557.674 185.489" enable-background="new 0 0 557.674 185.489"
	 xml:space="preserve">
<path d="M551.433,26.155c-2.582,0-20.398-0.668-30.732-6.668c-42.666-31-161.305-17-182.637-11.806
	c-21.334,5.194-28.604,3.472-28.604,3.472s-8.705-5-15.039-3c-6,3.668-15.746,4-15.746,4s-9.583-0.332-15.583-4
	c-6.333-2-14.875,3-14.875,3s-7.271,1.723-28.604-3.472S79.643-11.513,36.976,19.487c-10.333,6-28.152,6.668-30.735,6.668
	S0,25.821,0,30.155c0,4.332,1.337,20.332,2.337,22c1,1.666,3.92,4,3.92,4s8.208,5,10.542,12s10.104,46,23.104,65
	s31.385,52.332,94.718,52.332s113.026-38.666,124.359-125c-5.998-8.332-20.305-21.666,19.695-21.666
	c40,0,25.856,13.334,19.858,21.668c11.332,86.333,61.104,125,124.438,125s81.762-33.334,94.762-52.334s20.791-58,23.125-65
	c2.332-7,10.555-12,10.555-12s2.924-2.334,3.924-4c1-1.668,2.34-17.668,2.34-22C557.675,25.821,554.017,26.155,551.433,26.155z
	 M194.007,163.155c-67.677,39.479-120,2.334-133.667-12.666c-60.667-72-11.333-117.667-11.333-117.667c23-21,61-24.666,122-16
	c61,8.668,64,29,67.333,41.668C241.673,71.155,238.007,137.487,194.007,163.155z M497.335,150.489
	c-13.668,15-65.99,52.145-133.668,12.666c-44-25.666-47.666-92-44.332-104.667c3.332-12.666,6.332-33,67.332-41.666
	c61-8.668,99-5,122,16C508.667,32.821,558.001,78.489,497.335,150.489z"/>
</svg>
