<?xml version="1.0" encoding="utf-8"?>
<!-- Generator: Adobe Illustrator 15.1.0, SVG Export Plug-In . SVG Version: 6.00 Build 0)  -->
<!DOCTYPE svg PUBLIC "-//W3C//DTD SVG 1.1//EN" "http://www.w3.org/Graphics/SVG/1.1/DTD/svg11.dtd">
<svg version="1.1" id="Calque_2" xmlns="http://www.w3.org/2000/svg" xmlns:xlink="http://www.w3.org/1999/xlink" x="0px" y="0px"
	 width="600px" height="600px" viewBox="0 0 600 600" enable-background="new 0 0 600 600" xml:space="preserve">
<path fill="#FF0000" d="M219.333,393.795c0,0-156.465,124.941-208.066,37.74s145.065-130.2,171.065-131.035
	c-50.898-4.211-203.274-31.958-167.137-132.396s191.719,18.525,203.308,35.148C200.278,170.108,128.795,27.334,227.397,4.5
	S326,167.666,324,182.332c9.308-32.218,64.449-173.157,159.558-121.245s-46.462,175.534-74.255,190.138
	c51.339-14.389,180.918-35.539,189.474,46.783s-143.817,74.876-182.631,60.266c41.187,25.39,133.574,143.302,63.047,186.346
	S328.528,457.274,320.491,412.95c8.037,54.657,15.497,184.78-87.165,184.08S199.335,417.927,219.333,393.795z"/>
</svg>
