<?xml version="1.0" encoding="utf-8"?>
<!-- Generator: Adobe Illustrator 15.1.0, SVG Export Plug-In . SVG Version: 6.00 Build 0)  -->
<!DOCTYPE svg PUBLIC "-//W3C//DTD SVG 1.1//EN" "http://www.w3.org/Graphics/SVG/1.1/DTD/svg11.dtd">
<svg version="1.1" id="Calque_2" xmlns="http://www.w3.org/2000/svg" xmlns:xlink="http://www.w3.org/1999/xlink" x="0px" y="0px"
	 width="600px" height="600px" viewBox="0 0 600 600" enable-background="new 0 0 600 600" xml:space="preserve">
<path fill="#020202" d="M53.31,494.385c0,0-47.635-28.03-46.612-71.397c0.485-20.588,11.937-44.633,44.658-70.775
	c-17.39-25.907-25.551-60.441-15.863-88.388c7.78-22.442,27.07-40.637,62.333-46.703c0,0-31.072-74.587,7.838-118.039
	c18.442-20.594,52.604-34.194,113.247-29.544C245.5,23.5,271.607,4.173,318.054,4.586s85.249,81.527,93.848,127.47
	C430,112,475.273,116.586,499.637,147.293s25.783,77.944,24.323,87.076c23.184,10.448,58.302,28.784,65.921,71.958
	s-16.865,82.998-16.865,82.998s21.65,12.176,21.567,47.176S576,518.5,537.5,513c-9,27.5-46.535,71.316-87.018,71.658
	s-75.32-34.059-84.651-62.858c-8.331,25.2-41.166,68.864-97.249,70.782S189.1,538.41,182.8,512.955
	c-9.8,25.545-53.356,66.223-87.328,55.134S54.62,517.27,53.31,494.385z"/>
</svg>
