<?xml version="1.0" encoding="utf-8"?>
<!-- Generator: Adobe Illustrator 15.1.0, SVG Export Plug-In . SVG Version: 6.00 Build 0)  -->
<!DOCTYPE svg PUBLIC "-//W3C//DTD SVG 1.1//EN" "http://www.w3.org/Graphics/SVG/1.1/DTD/svg11.dtd">
<svg version="1.1" id="Calque_1" xmlns="http://www.w3.org/2000/svg" xmlns:xlink="http://www.w3.org/1999/xlink" x="0px" y="0px"
	 width="200px" height="200px" viewBox="0 0 200 200" enable-background="new 0 0 200 200" xml:space="preserve">
<g>
	<path fill="#8ABA2F" d="M200.5,180.5c0,11.046-8.954,20-20,20h-160c-11.046,0-20-8.954-20-20v-160c0-11.046,8.954-20,20-20h160
		c11.046,0,20,8.954,20,20V180.5z"/>
	<path fill="#1A171B" d="M168.627,20.169c6.729,0,12.204,5.475,12.204,12.204v136.254c0,6.729-5.475,12.204-12.204,12.204H32.373
		c-6.729,0-12.204-5.475-12.204-12.204V32.373c0-6.729,5.475-12.204,12.204-12.204H168.627 M180.5,0.5h-160
		c-11.046,0-20,8.954-20,20v160c0,11.046,8.954,20,20,20h160c11.046,0,20-8.954,20-20v-160C200.5,9.454,191.546,0.5,180.5,0.5
		L180.5,0.5z"/>
</g>
<g>
	<g>
		<path fill="#FFFFFF" d="M165.434,38.279H35.762c-2.169,0-3.927-1.762-3.927-3.933c0-2.169,1.758-3.927,3.927-3.927h129.675
			c2.171,0,3.929,1.763,3.929,3.932C169.365,36.521,167.607,38.279,165.434,38.279z"/>
	</g>
	<g>
		<path fill="#FFFFFF" d="M140.812,70.831H60.387c-2.17,0-3.928-1.762-3.928-3.932s1.758-3.932,3.928-3.932h80.424
			c2.17,0,3.929,1.758,3.929,3.932S142.981,70.831,140.812,70.831z"/>
	</g>
	<g>
		<path fill="#FFFFFF" d="M165.434,103.382H35.762c-2.169,0-3.927-1.762-3.927-3.93c0-2.171,1.758-3.934,3.927-3.934h129.675
			c2.171,0,3.929,1.758,3.929,3.934C169.365,101.62,167.607,103.382,165.434,103.382z"/>
	</g>
	<g>
		<path fill="#FFFFFF" d="M140.812,135.927H60.387c-2.17,0-3.928-1.755-3.928-3.93c0-2.169,1.758-3.931,3.928-3.931h80.424
			c2.17,0,3.929,1.758,3.929,3.931C144.74,134.172,142.981,135.927,140.812,135.927z"/>
	</g>
	<g>
		<path fill="#FFFFFF" d="M165.237,168.477H35.563c-2.169,0-3.928-1.754-3.928-3.927c0-2.17,1.758-3.933,3.928-3.933h129.675
			c2.171,0,3.934,1.763,3.934,3.933S167.408,168.477,165.237,168.477z"/>
	</g>
</g>
</svg>
