<?xml version="1.0" encoding="utf-8"?>
<!-- Generator: Adobe Illustrator 15.1.0, SVG Export Plug-In . SVG Version: 6.00 Build 0)  -->
<!DOCTYPE svg PUBLIC "-//W3C//DTD SVG 1.1//EN" "http://www.w3.org/Graphics/SVG/1.1/DTD/svg11.dtd">
<svg version="1.1" id="Calque_1" xmlns="http://www.w3.org/2000/svg" xmlns:xlink="http://www.w3.org/1999/xlink" x="0px" y="0px"
	 width="200px" height="200px" viewBox="0 0 200 200" enable-background="new 0 0 200 200" xml:space="preserve">
<g>
	<path fill="#8ABA2F" d="M200.5,180.5c0,11.046-8.954,20-20,20h-160c-11.046,0-20-8.954-20-20v-160c0-11.046,8.954-20,20-20h160
		c11.046,0,20,8.954,20,20V180.5z"/>
	<path fill="#1A171B" d="M168.627,20.169c6.729,0,12.204,5.475,12.204,12.204v136.254c0,6.729-5.475,12.204-12.204,12.204H32.373
		c-6.729,0-12.204-5.475-12.204-12.204V32.373c0-6.729,5.475-12.204,12.204-12.204H168.627 M180.5,0.5h-160
		c-11.046,0-20,8.954-20,20v160c0,11.046,8.954,20,20,20h160c11.046,0,20-8.954,20-20v-160C200.5,9.454,191.546,0.5,180.5,0.5
		L180.5,0.5z"/>
</g>
<g>
	<g>
		<path fill="#FFFFFF" d="M166.17,37.492H34.83c-2.199,0-3.979-1.781-3.979-3.983c-0.004-2.193,1.776-3.978,3.979-3.978h131.34
			c2.197,0,3.979,1.785,3.979,3.983S168.372,37.492,166.17,37.492z"/>
	</g>
	<g>
		<path fill="#FFFFFF" d="M116.29,70.462H34.83c-2.199,0-3.983-1.78-3.983-3.983c0-2.198,1.78-3.982,3.983-3.982h81.46
			c2.193,0,3.978,1.785,3.978,3.982C120.268,68.682,118.483,70.462,116.29,70.462z"/>
	</g>
	<g>
		<path fill="#FFFFFF" d="M166.17,103.434H34.83c-2.199,0-3.979-1.786-3.979-3.982c0-2.199,1.78-3.983,3.979-3.983h131.34
			c2.197,0,3.979,1.785,3.979,3.983C170.148,101.647,168.372,103.434,166.17,103.434z"/>
	</g>
	<g>
		<path fill="#FFFFFF" d="M116.29,136.396H34.83c-2.199,0-3.983-1.776-3.983-3.979s1.78-3.982,3.983-3.982h81.46
			c2.193,0,3.978,1.784,3.978,3.982C120.268,134.614,118.483,136.396,116.29,136.396z"/>
	</g>
	<g>
		<path fill="#FFFFFF" d="M166.17,169.366H34.83c-2.199,0-3.979-1.777-3.979-3.979c0-2.202,1.78-3.983,3.979-3.983h131.34
			c2.197,0,3.979,1.786,3.979,3.983C170.148,167.586,168.372,169.366,166.17,169.366z"/>
	</g>
</g>
</svg>
