<?xml version="1.0" encoding="utf-8"?>
<!-- Generator: Adobe Illustrator 15.1.0, SVG Export Plug-In . SVG Version: 6.00 Build 0)  -->
<!DOCTYPE svg PUBLIC "-//W3C//DTD SVG 1.1//EN" "http://www.w3.org/Graphics/SVG/1.1/DTD/svg11.dtd">
<svg version="1.1" id="Calque_1" xmlns="http://www.w3.org/2000/svg" xmlns:xlink="http://www.w3.org/1999/xlink" x="0px" y="0px"
	 width="200px" height="200px" viewBox="0 0 200 200" enable-background="new 0 0 200 200" xml:space="preserve">
<g>
	<path fill="#8ABA2F" d="M200.5,180.5c0,11.046-8.954,20-20,20h-160c-11.046,0-20-8.954-20-20v-160c0-11.046,8.954-20,20-20h160
		c11.046,0,20,8.954,20,20V180.5z"/>
	<path fill="#1A171B" d="M168.627,20.169c6.729,0,12.204,5.475,12.204,12.204v136.254c0,6.729-5.475,12.204-12.204,12.204H32.373
		c-6.729,0-12.204-5.475-12.204-12.204V32.373c0-6.729,5.475-12.204,12.204-12.204H168.627 M180.5,0.5h-160
		c-11.046,0-20,8.954-20,20v160c0,11.046,8.954,20,20,20h160c11.046,0,20-8.954,20-20v-160C200.5,9.454,191.546,0.5,180.5,0.5
		L180.5,0.5z"/>
</g>
<g>
	<g>
		<path fill="#FFFFFF" d="M164.917,39.674H36.078c-2.151,0-3.902-1.751-3.902-3.907s1.751-3.902,3.902-3.902h128.839
			c2.156,0,3.907,1.751,3.907,3.907S167.073,39.674,164.917,39.674z"/>
	</g>
	<g>
		<path fill="#FFFFFF" d="M164.917,72.016H85.016c-2.156,0-3.907-1.751-3.907-3.907c0-2.156,1.751-3.907,3.907-3.907h79.901
			c2.156,0,3.907,1.746,3.907,3.907C168.824,70.269,167.073,72.016,164.917,72.016z"/>
	</g>
	<g>
		<path fill="#FFFFFF" d="M164.917,104.357H36.078c-2.151,0-3.902-1.752-3.902-3.906c0-2.157,1.751-3.908,3.902-3.908h128.839
			c2.156,0,3.907,1.747,3.907,3.908C168.824,102.605,167.073,104.357,164.917,104.357z"/>
	</g>
	<g>
		<path fill="#FFFFFF" d="M164.917,136.69H85.016c-2.156,0-3.907-1.742-3.907-3.902c0-2.156,1.751-3.906,3.907-3.906h79.901
			c2.156,0,3.907,1.746,3.907,3.906S167.073,136.69,164.917,136.69z"/>
	</g>
	<g>
		<path fill="#FFFFFF" d="M164.917,169.032H36.078c-2.151,0-3.902-1.743-3.902-3.902c0-2.156,1.751-3.907,3.902-3.907h128.839
			c2.156,0,3.907,1.751,3.907,3.907S167.073,169.032,164.917,169.032z"/>
	</g>
</g>
</svg>
