<?xml version="1.0" encoding="utf-8"?>
<!-- Generator: Adobe Illustrator 15.1.0, SVG Export Plug-In . SVG Version: 6.00 Build 0)  -->
<!DOCTYPE svg PUBLIC "-//W3C//DTD SVG 1.1//EN" "http://www.w3.org/Graphics/SVG/1.1/DTD/svg11.dtd">
<svg version="1.1" id="Calque_1" xmlns="http://www.w3.org/2000/svg" xmlns:xlink="http://www.w3.org/1999/xlink" x="0px" y="0px"
	 width="200px" height="200px" viewBox="0 0 200 200" enable-background="new 0 0 200 200" xml:space="preserve">
<g>
	<path fill="#FFFFFF" d="M200.5,180.5c0,11.046-8.954,20-20,20h-160c-11.046,0-20-8.954-20-20v-160c0-11.046,8.954-20,20-20h160
		c11.046,0,20,8.954,20,20V180.5z"/>
	<path fill="#1A171B" d="M168.481,20.341c6.715,0,12.178,5.463,12.178,12.178v135.963c0,6.715-5.463,12.178-12.178,12.178H32.519
		c-6.715,0-12.178-5.463-12.178-12.178V32.519c0-6.715,5.463-12.178,12.178-12.178H168.481 M180.5,0.5h-160
		c-11.046,0-20,8.954-20,20v160c0,11.046,8.954,20,20,20h160c11.046,0,20-8.954,20-20v-160C200.5,9.454,191.546,0.5,180.5,0.5
		L180.5,0.5z"/>
</g>
<g>
	<g>
		<path fill="#1A171B" d="M99.902,27.075c-40.625,0-73.675,33.052-73.675,73.675c0,40.624,33.05,73.676,73.675,73.676
			c40.624,0,73.676-33.052,73.676-73.676C173.578,60.126,140.526,27.075,99.902,27.075z M99.902,165.216
			c-35.546,0-64.466-28.918-64.466-64.466c0-35.547,28.919-64.466,64.466-64.466c35.548,0,64.466,28.918,64.466,64.466
			C164.368,136.298,135.45,165.216,99.902,165.216z"/>
		<circle fill="#1A171B" cx="73.467" cy="76.256" r="9.987"/>
		<circle fill="#1A171B" cx="126.334" cy="76.256" r="9.987"/>
		<path fill="#1A171B" d="M147.195,111.268c-2.424-0.729-5.001,0.661-5.729,3.094c-0.081,0.274-8.607,27.507-41.564,27.507
			c-32.737,0-41.221-26.4-41.57-27.524c-0.736-2.428-3.317-3.8-5.723-3.076c-2.438,0.729-3.822,3.297-3.094,5.729
			c0.104,0.341,10.653,34.081,50.387,34.081c39.733,0,50.283-33.74,50.387-34.081C151.018,114.564,149.633,111.996,147.195,111.268z
			"/>
	</g>
</g>
</svg>
