<?xml version="1.0" encoding="utf-8"?>
<!-- Generator: Adobe Illustrator 15.1.0, SVG Export Plug-In . SVG Version: 6.00 Build 0)  -->
<!DOCTYPE svg PUBLIC "-//W3C//DTD SVG 1.1//EN" "http://www.w3.org/Graphics/SVG/1.1/DTD/svg11.dtd">
<svg version="1.1" id="Calque_1" xmlns="http://www.w3.org/2000/svg" xmlns:xlink="http://www.w3.org/1999/xlink" x="0px" y="0px"
	 width="200px" height="200px" viewBox="0 0 200 200" enable-background="new 0 0 200 200" xml:space="preserve">
<g id="Calque_1_-_copie" display="none">
	<g display="inline">
		<path fill="#8CBB2F" d="M200,180c0,11.046-8.954,20-20,20H20c-11.046,0-20-8.954-20-20V20C0,8.954,8.954,0,20,0h160
			c11.046,0,20,8.954,20,20V180z"/>
		<path d="M168.127,19.669c6.729,0,12.204,5.475,12.204,12.204v136.254c0,6.729-5.476,12.204-12.204,12.204H31.873
			c-6.729,0-12.204-5.476-12.204-12.204V31.873c0-6.729,5.475-12.204,12.204-12.204H168.127 M180,0H20C8.954,0,0,8.954,0,20v160
			c0,11.046,8.954,20,20,20h160c11.046,0,20-8.954,20-20V20C200,8.954,191.046,0,180,0L180,0z"/>
	</g>
</g>
<g id="Calque_1_-_copie_2">
	<g>
		<path fill="#8CBB2F" d="M200,180c0,11.046-8.954,20-20,20H20c-11.046,0-20-8.954-20-20V20C0,8.954,8.954,0,20,0h160
			c11.046,0,20,8.954,20,20V180z"/>
		<path d="M167.98,19.841c6.715,0,12.179,5.463,12.179,12.178v135.963c0,6.715-5.464,12.178-12.179,12.178H32.019
			c-6.715,0-12.178-5.463-12.178-12.178V32.019c0-6.715,5.463-12.178,12.178-12.178H167.98 M180,0H20C8.954,0,0,8.954,0,20v160
			c0,11.046,8.954,20,20,20h160c11.046,0,20-8.954,20-20V20C200,8.954,191.046,0,180,0L180,0z"/>
	</g>
</g>
<g id="Calque_20">
</g>
<g id="Calque_2" display="none">
	<g display="inline">
		<path d="M123.707,26.091l-80.008-0.184V171.96h116.105V62.19L123.707,26.091z M155.004,167.158H48.5V30.72l68.827,0.158v34.63
			l1.2,1.2h36.477V167.158z M155.004,64.307h-35.275V30.883l1.107,0.002l21.354,20.479l12.814,12.815V64.307z"/>
		<rect x="100.552" y="72.783" width="2.4" height="21.088"/>
		<rect x="100.552" y="113.07" width="2.4" height="21.09"/>
		<rect x="111.354" y="102.271" width="21.088" height="2.397"/>
		<rect x="71.063" y="102.271" width="21.088" height="2.397"/>
		<rect x="105.452" y="88.021" transform="matrix(-0.7071 0.7071 -0.7071 -0.7071 261.1042 70.284)" width="21.087" height="2.4"/>
		<rect x="86.308" y="107.17" transform="matrix(-0.707 -0.7072 0.7072 -0.707 66.1269 262.8259)" width="2.4" height="21.089"/>
		
			<rect x="105.452" y="116.516" transform="matrix(-0.7072 -0.7071 0.7071 -0.7072 114.7909 282.9752)" width="21.088" height="2.4"/>
		<rect x="76.963" y="88.026" transform="matrix(-0.7071 -0.7071 0.7071 -0.7071 86.2922 214.196)" width="21.089" height="2.401"/>
	</g>
</g>
<g id="Calque_8" display="none">
	<g display="inline">
		<path d="M130.068,35.304l-51.839,51.84c-0.412,0.412-0.706,0.925-0.853,1.49l-4.45,17.136c-0.291,1.121,0.034,2.313,0.853,3.133
			c0.621,0.621,1.455,0.957,2.312,0.957c0.273,0,0.549-0.032,0.821-0.104l17.135-4.449c0.564-0.146,1.079-0.44,1.489-0.854
			l51.839-51.838c0-0.001,0.002-0.002,0.002-0.002s0.002-0.002,0.003-0.002l10.437-10.437c1.275-1.276,1.275-3.346,0-4.622
			L145.13,24.862c-0.612-0.613-1.444-0.958-2.312-0.958c-0.866,0-1.698,0.344-2.313,0.958L130.073,35.3
			c0,0.001-0.001,0.002-0.001,0.002C130.07,35.303,130.07,35.304,130.068,35.304z M91.545,99.201l-10.892,2.828l2.828-10.892
			l48.901-48.901l8.063,8.064L91.545,99.201z M142.82,31.798l8.063,8.063l-5.814,5.816l-8.063-8.064L142.82,31.798z"/>
		<path d="M155.508,59.33c-1.806,0-3.271,1.463-3.271,3.269v105.043H49.688V42.656h60.505c1.806,0,3.269-1.464,3.269-3.268
			c0-1.806-1.463-3.27-3.269-3.27H46.419c-1.805,0-3.269,1.463-3.269,3.27V170.91c0,1.806,1.464,3.27,3.269,3.27h109.089
			c1.805,0,3.268-1.464,3.268-3.27V62.599C158.775,60.793,157.313,59.33,155.508,59.33z"/>
	</g>
</g>
<g id="Calque_5" display="none">
	<g display="inline">
		<g>
			<path d="M100,84.6c-12.013,0-21.75,9.741-21.75,21.75c0,12.016,9.737,21.75,21.75,21.75c12.012,0,21.751-9.734,21.751-21.75
				C121.751,94.34,112.012,84.6,100,84.6z M158.001,62.85h-17.399c-2.395,0-4.972-1.856-5.728-4.127l-4.498-13.498
				c-0.759-2.27-3.334-4.125-5.728-4.125H75.349c-2.392,0-4.97,1.856-5.726,4.126l-4.498,13.499
				c-0.758,2.269-3.333,4.125-5.726,4.125H42c-7.975,0-14.5,6.525-14.5,14.5v65.25c0,7.978,6.525,14.502,14.5,14.502h116.001
				c7.974,0,14.499-6.524,14.499-14.502V77.35C172.5,69.375,165.975,62.85,158.001,62.85z M100,142.6
				c-20.02,0-36.25-16.229-36.25-36.25c0-20.018,16.23-36.25,36.25-36.25c20.018,0,36.25,16.231,36.25,36.25
				C136.25,126.37,120.018,142.6,100,142.6z M152.925,87.49c-2.801,0-5.075-2.271-5.075-5.075c0-2.802,2.274-5.075,5.075-5.075
				c2.804,0,5.076,2.273,5.076,5.075C158.001,85.219,155.729,87.49,152.925,87.49z"/>
		</g>
	</g>
</g>
<g id="Calque_13" display="none">
	<g display="inline">
		<path d="M158.166,27.668l1.542,33.783h-3.903c-0.755-5.949-1.783-10.198-3.084-12.748c-2.123-4.106-4.949-7.134-8.476-9.083
			c-3.53-1.946-8.17-2.921-13.925-2.921h-19.625V146.76c0,8.854,0.926,14.379,2.772,16.572c2.604,2.977,6.61,4.461,12.022,4.461
			h4.828v3.934h-59.08v-3.934h4.932c5.891,0,10.069-1.84,12.536-5.523c1.506-2.265,2.261-7.436,2.261-15.51V36.698H74.219
			c-6.508,0-11.132,0.497-13.871,1.488c-3.563,1.346-6.611,3.931-9.145,7.755c-2.535,3.824-4.042,8.995-4.521,15.51h-3.905
			l1.644-33.783H158.166z"/>
	</g>
</g>
<g id="Calque_7">
	<g>
		<g>
			<path fill="#FFFFFF" d="M99.402,26.575c-40.625,0-73.675,33.052-73.675,73.675c0,40.624,33.05,73.676,73.675,73.676
				c40.624,0,73.676-33.052,73.676-73.676S140.025,26.575,99.402,26.575z M99.402,164.716c-35.546,0-64.466-28.918-64.466-64.466
				c0-35.547,28.919-64.466,64.466-64.466c35.548,0,64.466,28.918,64.466,64.466S134.95,164.716,99.402,164.716z"/>
			<circle fill="#FFFFFF" cx="72.967" cy="75.756" r="9.987"/>
			<circle fill="#FFFFFF" cx="125.834" cy="75.756" r="9.987"/>
			<path fill="#FFFFFF" d="M146.695,110.768c-2.424-0.729-5.002,0.662-5.729,3.094c-0.081,0.274-8.606,27.509-41.564,27.509
				c-32.737,0-41.221-26.399-41.57-27.522c-0.736-2.43-3.317-3.802-5.723-3.076c-2.438,0.729-3.822,3.297-3.094,5.729
				c0.104,0.341,10.653,34.081,50.387,34.081c39.733,0,50.284-33.74,50.387-34.081C150.518,114.064,149.133,111.496,146.695,110.768
				z"/>
		</g>
	</g>
</g>
<g id="Calque_19" display="none">
	<g display="inline">
		<g>
			<path d="M166.4,149.182l-33.262-33.266c-4.957,7.709-11.518,14.266-19.226,19.221l33.267,33.266
				c5.313,5.313,13.922,5.313,19.221,0C171.713,163.102,171.713,154.491,166.4,149.182z"/>
			<path d="M134.137,81.765c0-30.026-24.344-54.372-54.371-54.372c-30.026,0-54.372,24.346-54.372,54.372s24.346,54.37,54.372,54.37
				C109.793,136.135,134.137,111.791,134.137,81.765z M79.766,122.542c-22.486,0-40.778-18.29-40.778-40.777
				c0-22.486,18.292-40.777,40.778-40.777c22.486,0,40.779,18.291,40.779,40.777C120.545,104.252,102.252,122.542,79.766,122.542z"
				/>
			<path d="M48.05,81.765h9.061c0-12.491,10.164-22.655,22.655-22.655v-9.062C62.28,50.049,48.05,64.279,48.05,81.765z"/>
		</g>
	</g>
</g>
<g id="Calque_6" display="none">
	<path display="inline" d="M165.501,92.446c0,31.859-22.864,58.472-53.044,64.307v17.653l-47.986-27.516l47.986-27.518v16.162
		c18.695-5.415,32.406-22.678,32.406-43.091c0-24.738-20.127-44.865-44.863-44.865c-24.738,0-44.865,20.126-44.865,44.865
		c0,6.662,1.422,13.072,4.229,19.046l-18.679,8.771c-4.105-8.74-6.187-18.101-6.187-27.82c0.001-36.117,29.384-65.5,65.501-65.5
		C136.118,26.945,165.501,56.329,165.501,92.446z"/>
</g>
<g id="Calque_4" display="none">
	<g id="Delete__x2F__Trash" display="inline">
		<path d="M59.658,161.583c0,0,2.17,9.886,13.338,9.886h50.498c11.168,0,13.337-9.886,13.337-9.886l9.97-96.936h-97.11
			L59.658,161.583z M117.668,79.214c0-2.682,2.172-4.855,4.854-4.855c2.684,0,4.855,2.174,4.855,4.855l-4.855,72.834
			c0,2.681-2.174,4.854-4.854,4.854c-2.684,0-4.857-2.174-4.857-4.854L117.668,79.214z M93.39,79.214
			c0-2.682,2.173-4.855,4.854-4.855c2.682,0,4.855,2.174,4.855,4.855v72.834c0,2.681-2.176,4.854-4.855,4.854
			c-2.681,0-4.854-2.174-4.854-4.854V79.214z M73.967,74.358c2.682,0,4.855,2.174,4.855,4.855l4.856,72.834
			c0,2.682-2.173,4.855-4.856,4.855c-2.681,0-4.855-2.174-4.855-4.855l-4.855-72.833C69.111,76.532,71.286,74.358,73.967,74.358z
			 M143.887,45.232h-21.363v-9.718c0-7.367-2.383-9.712-9.713-9.712H83.678c-6.722,0-9.711,3.256-9.711,9.712v9.719H52.603
			c-4.293,0-7.769,3.259-7.769,7.287s3.475,7.288,7.769,7.288h91.284c4.295,0,7.771-3.26,7.771-7.288
			C151.654,48.492,148.182,45.232,143.887,45.232z M112.811,45.232H83.678v-9.719h29.132V45.232L112.811,45.232z"/>
	</g>
</g>
<g id="Calque_9" display="none">
	<g display="inline">
		<path d="M168.964,27.119h-32.505c-1.891,0-3.423,1.533-3.423,3.423v9.127c0,1.891,1.532,3.423,3.423,3.423h8.658l-26.072,26.072
			c-0.643,0.642-1.002,1.513-1.002,2.42s0.359,1.779,1.002,2.42l6.455,6.455c0.668,0.668,1.544,1.003,2.42,1.003
			s1.752-0.335,2.421-1.003l26.073-26.072v8.66c0,1.89,1.531,3.422,3.423,3.422h9.127c1.892,0,3.423-1.532,3.423-3.422V30.542
			C172.387,28.651,170.854,27.119,168.964,27.119z"/>
		<path d="M54.883,43.092h8.659c1.891,0,3.423-1.532,3.423-3.423v-9.127c0-1.891-1.532-3.423-3.423-3.423H31.037
			c-1.891,0-3.423,1.533-3.423,3.423v32.505c0,1.89,1.532,3.422,3.423,3.422h9.128c1.891,0,3.423-1.532,3.423-3.422v-8.659
			l26.071,26.071c0.668,0.668,1.545,1.003,2.421,1.003s1.752-0.335,2.421-1.003l6.455-6.455c0.642-0.641,1.002-1.512,1.002-2.42
			s-0.361-1.778-1.002-2.42L54.883,43.092z"/>
		<path d="M74.501,117.54c-1.337-1.336-3.504-1.336-4.842,0l-26.071,26.071v-8.659c0-1.89-1.532-3.423-3.423-3.423h-9.128
			c-1.891,0-3.423,1.533-3.423,3.423v32.505c0,1.891,1.532,3.423,3.423,3.423h32.505c1.891,0,3.423-1.532,3.423-3.423v-9.127
			c0-1.891-1.532-3.423-3.423-3.423h-8.659l26.072-26.071c0.642-0.643,1.002-1.513,1.002-2.42c0-0.908-0.36-1.777-1.002-2.42
			L74.501,117.54z"/>
		<path d="M168.964,131.529h-9.127c-1.892,0-3.423,1.533-3.423,3.423v8.661l-26.074-26.072c-1.337-1.337-3.504-1.337-4.84,0
			l-6.455,6.455c-0.643,0.643-1.002,1.513-1.002,2.42s0.359,1.779,1.003,2.421l26.071,26.07h-8.658
			c-1.891,0-3.423,1.532-3.423,3.423v9.128c0,1.892,1.532,3.424,3.423,3.424h32.505c1.892,0,3.423-1.532,3.423-3.424v-32.506
			C172.387,133.063,170.854,131.529,168.964,131.529z"/>
	</g>
</g>
<g id="Calque_10" display="none">
	<g display="inline">
		<g>
			<path fill="#010101" d="M165.67,36.992H34.33c-2.199,0-3.979-1.781-3.979-3.983c-0.004-2.193,1.776-3.978,3.979-3.978h131.34
				c2.197,0,3.979,1.785,3.979,3.983C169.648,35.212,167.872,36.992,165.67,36.992z"/>
		</g>
		<g>
			<path fill="#010101" d="M115.79,69.962H34.33c-2.199,0-3.983-1.78-3.983-3.983c0-2.198,1.78-3.982,3.983-3.982h81.46
				c2.192,0,3.978,1.785,3.978,3.982C119.768,68.182,117.982,69.962,115.79,69.962z"/>
		</g>
		<g>
			<path fill="#010101" d="M165.67,102.934H34.33c-2.199,0-3.979-1.785-3.979-3.98c0-2.199,1.78-3.983,3.979-3.983h131.34
				c2.197,0,3.979,1.785,3.979,3.983C169.648,101.146,167.872,102.934,165.67,102.934z"/>
		</g>
		<g>
			<path fill="#010101" d="M115.79,135.896H34.33c-2.199,0-3.983-1.776-3.983-3.979s1.78-3.981,3.983-3.981h81.46
				c2.192,0,3.978,1.783,3.978,3.981C119.768,134.114,117.982,135.896,115.79,135.896z"/>
		</g>
		<g>
			<path fill="#010101" d="M165.67,168.866H34.33c-2.199,0-3.979-1.777-3.979-3.979c0-2.201,1.78-3.982,3.979-3.982h131.34
				c2.197,0,3.979,1.785,3.979,3.982C169.648,167.086,167.872,168.866,165.67,168.866z"/>
		</g>
	</g>
</g>
<g id="Calque_11" display="none">
	<g display="inline">
		<g>
			<path fill="#010101" d="M164.934,37.779H35.262c-2.169,0-3.927-1.762-3.927-3.933c0-2.169,1.758-3.927,3.927-3.927h129.675
				c2.17,0,3.929,1.763,3.929,3.932C168.865,36.021,167.107,37.779,164.934,37.779z"/>
		</g>
		<g>
			<path fill="#010101" d="M140.313,70.331H59.887c-2.17,0-3.928-1.762-3.928-3.932s1.758-3.932,3.928-3.932h80.423
				c2.17,0,3.93,1.758,3.93,3.932C144.24,68.573,142.48,70.331,140.313,70.331z"/>
		</g>
		<g>
			<path fill="#010101" d="M164.934,102.882H35.262c-2.169,0-3.927-1.762-3.927-3.93c0-2.171,1.758-3.934,3.927-3.934h129.675
				c2.17,0,3.929,1.758,3.929,3.934C168.865,101.12,167.107,102.882,164.934,102.882z"/>
		</g>
		<g>
			<path fill="#010101" d="M140.313,135.427H59.887c-2.17,0-3.928-1.755-3.928-3.93c0-2.169,1.758-3.931,3.928-3.931h80.423
				c2.17,0,3.93,1.758,3.93,3.931C144.24,133.672,142.48,135.427,140.313,135.427z"/>
		</g>
		<g>
			<path fill="#010101" d="M164.736,167.977H35.063c-2.169,0-3.928-1.754-3.928-3.927c0-2.17,1.758-3.933,3.928-3.933h129.675
				c2.171,0,3.934,1.763,3.934,3.933C168.672,166.221,166.908,167.977,164.736,167.977z"/>
		</g>
	</g>
</g>
<g id="Calque_12" display="none">
	<g display="inline">
		<g>
			<path fill="#010101" d="M164.417,39.174H35.578c-2.151,0-3.902-1.751-3.902-3.907c0-2.156,1.751-3.902,3.902-3.902h128.839
				c2.156,0,3.907,1.751,3.907,3.907C168.324,37.428,166.573,39.174,164.417,39.174z"/>
		</g>
		<g>
			<path fill="#010101" d="M164.417,71.516H84.516c-2.156,0-3.907-1.751-3.907-3.907c0-2.156,1.751-3.907,3.907-3.907h79.901
				c2.156,0,3.907,1.746,3.907,3.907C168.324,69.769,166.573,71.516,164.417,71.516z"/>
		</g>
		<g>
			<path fill="#010101" d="M164.417,103.857H35.578c-2.151,0-3.902-1.752-3.902-3.906c0-2.157,1.751-3.908,3.902-3.908h128.839
				c2.156,0,3.907,1.747,3.907,3.908C168.324,102.105,166.573,103.857,164.417,103.857z"/>
		</g>
		<g>
			<path fill="#010101" d="M164.417,136.189H84.516c-2.156,0-3.907-1.741-3.907-3.901c0-2.156,1.751-3.906,3.907-3.906h79.901
				c2.156,0,3.907,1.746,3.907,3.906S166.573,136.189,164.417,136.189z"/>
		</g>
		<g>
			<path fill="#010101" d="M164.417,168.532H35.578c-2.151,0-3.902-1.743-3.902-3.902c0-2.155,1.751-3.907,3.902-3.907h128.839
				c2.156,0,3.907,1.752,3.907,3.907C168.324,166.786,166.573,168.532,164.417,168.532z"/>
		</g>
	</g>
</g>
<g id="Calque_14" display="none">
	<path display="inline" d="M169.377,88.916H140.91V33.713c0-2.715-2.201-4.916-4.916-4.916H33.247c-2.715,0-4.916,2.201-4.916,4.916
		v102.748c0,2.715,2.201,4.916,4.916,4.916h55.636v28.033c0,1.357,1.1,2.458,2.458,2.458h78.037c1.356,0,2.458-1.101,2.458-2.458
		V91.374C171.835,90.016,170.734,88.916,169.377,88.916z M131.079,93.831v37.715H93.798h-4.915H38.162V38.629h92.917v50.287V93.831z
		 M166.919,166.952H93.798v-25.575h42.196c2.715,0,4.916-2.201,4.916-4.916v-42.63h26.009V166.952L166.919,166.952z"/>
</g>
<g id="Calque_14_-_copie" display="none">
	<path display="inline" d="M168.734,89.021h-28.203v-54.69c0-2.689-2.18-4.87-4.869-4.87H33.866c-2.689,0-4.87,2.181-4.87,4.87
		v101.795c0,2.69,2.181,4.87,4.87,4.87h55.121v27.773c0,1.345,1.09,2.436,2.435,2.436h77.313c1.347,0,2.438-1.091,2.438-2.436
		V91.457C171.17,90.112,170.079,89.021,168.734,89.021z M38.736,131.257V39.201h92.056v49.821H91.421
		c-1.345,0-2.435,1.09-2.435,2.435v39.8H38.736z M140.531,93.892h25.768v72.443H93.856v-25.339v-9.739V93.892h36.936H140.531z"/>
</g>
<g id="Calque_16" display="none">
	<g display="inline">
		<path d="M50.026,115.293c-0.311,0-0.585-0.104-0.823-0.311c-0.238-0.207-0.409-0.616-0.513-1.229
			c-0.104-0.609-0.155-2.271-0.155-4.984v-9.663c0-2.754-0.187-4.577-0.559-5.467c-0.58-1.367-1.481-2.371-2.703-3.013
			c-1.615-0.849-3.687-1.274-6.213-1.274c-3.293,0-5.851,0.746-7.673,2.237c-1.822,1.491-2.733,3.127-2.733,4.908
			c0,0.932,0.243,1.667,0.73,2.206c0.486,0.539,1.113,0.808,1.879,0.808c0.787,0,1.424-0.259,1.911-0.776
			c0.486-0.518,0.73-1.253,0.73-2.206l-0.063-1.802c0-0.912,0.393-1.719,1.181-2.423c0.766-0.704,1.802-1.056,3.106-1.056
			c1.719,0,3.029,0.528,3.93,1.584s1.352,3.003,1.352,5.84v1.118c-4.888,1.781-8.383,3.293-10.484,4.535
			c-2.102,1.242-3.578,2.566-4.427,3.979c-0.622,1.014-0.932,2.215-0.932,3.604c0,2.195,0.637,3.966,1.911,5.313
			c1.273,1.346,2.894,2.021,4.861,2.021c1.263,0,2.454-0.261,3.573-0.776c0.746-0.354,2.578-1.656,5.499-3.914
			c0.02,1.698,0.331,2.899,0.932,3.604c0.601,0.703,1.409,1.058,2.423,1.058c2.112,0,4.328-1.554,6.648-4.66v-1.737
			c-1.243,1.242-2.082,1.998-2.517,2.268C50.647,115.221,50.357,115.293,50.026,115.293z M43.41,112.527
			c-2.568,2.072-4.64,3.105-6.213,3.105c-1.161,0-2.186-0.49-3.076-1.476c-0.891-0.983-1.336-2.222-1.336-3.714
			c0-1.18,0.352-2.268,1.056-3.262c0.704-0.994,1.875-1.947,3.511-2.856c0.911-0.519,2.93-1.396,6.058-2.642V112.527z"/>
		<path d="M72.238,89.354c-3.189,0-6.162,1.916-8.916,5.747V74.474h-1.398l-8.543,3.479l0.435,1.087
			c0.87-0.331,1.595-0.497,2.174-0.497c0.497,0,0.911,0.135,1.243,0.404c0.331,0.27,0.575,0.777,0.73,1.522
			c0.155,0.745,0.233,2.733,0.233,5.964v29.481c1.781,1.201,3.526,2.102,5.234,2.702c1.709,0.601,3.391,0.901,5.048,0.901
			c3.542,0,6.751-1.326,9.63-3.979c3.355-3.086,5.033-7.155,5.033-12.209c0-4.328-1.087-7.74-3.262-10.235
			C77.705,90.602,75.158,89.354,72.238,89.354z M75.329,114.145c-1.626,2.07-3.381,3.105-5.265,3.105
			c-1.181,0-2.335-0.264-3.464-0.792s-2.221-1.31-3.277-2.345V97.089c1.284-1.243,2.34-2.071,3.168-2.485
			c1.098-0.559,2.195-0.839,3.293-0.839c2.07,0,3.919,0.979,5.545,2.936s2.439,4.758,2.439,8.402
			C77.768,109.061,76.955,112.073,75.329,114.145z"/>
		<path d="M107.279,112.591c-1.615,1.388-3.438,2.081-5.469,2.081c-2.836,0-5.088-1.3-6.755-3.898
			c-1.667-2.6-2.501-5.597-2.501-8.991c0-3.334,0.839-6.016,2.516-8.046c1.264-1.533,2.931-2.299,5.002-2.299
			c1.284,0,2.288,0.311,3.013,0.932c0.726,0.642,1.146,1.574,1.259,2.796c0.113,1.223,0.348,2.05,0.698,2.485
			c0.622,0.788,1.543,1.181,2.767,1.181c0.91,0,1.619-0.244,2.127-0.73s0.763-1.124,0.763-1.911c0-1.595-0.901-3.132-2.703-4.613
			c-1.804-1.48-4.103-2.221-6.896-2.221c-3.729,0-6.923,1.398-9.583,4.194c-2.661,2.796-3.992,6.431-3.992,10.904
			c0,4.616,1.201,8.282,3.604,10.996c2.402,2.714,5.219,4.069,8.45,4.069c2.713,0,5.188-1.011,7.424-3.028
			c2.236-2.021,3.736-4.903,4.505-8.651l-0.899-0.436C109.525,109.909,108.418,111.639,107.279,112.591z"/>
		<path d="M142.973,115.448c-0.455,0-0.854-0.146-1.195-0.435c-0.342-0.291-0.59-0.805-0.744-1.539
			c-0.155-0.733-0.233-2.771-0.233-6.104V74.474H139.4l-8.48,3.479l0.403,1.087c0.891-0.331,1.604-0.497,2.144-0.497
			c0.497,0,0.911,0.135,1.242,0.404c0.332,0.27,0.575,0.777,0.73,1.522c0.153,0.745,0.231,2.744,0.231,5.995v5.25
			c-1.637-1.594-3.707-2.392-6.214-2.392c-4.038,0-7.341,1.693-9.909,5.079c-2.567,3.386-3.854,7.119-3.854,11.199
			s1.16,7.42,3.479,10.02s5.032,3.898,8.14,3.898c1.533,0,2.961-0.315,4.287-0.949c1.325-0.631,2.684-1.672,4.069-3.12v4.069h1.429
			l8.449-3.512l-0.342-1.087C144.277,115.271,143.532,115.448,142.973,115.448z M135.673,113.273
			c-1.761,1.886-3.583,2.826-5.468,2.826c-2.236,0-4.268-1.111-6.089-3.34c-1.822-2.227-2.733-5.432-2.733-9.613
			c0-4.144,0.942-7.291,2.826-9.443c1.43-1.636,3.057-2.454,4.878-2.454c0.974,0,1.974,0.295,2.997,0.885
			c1.025,0.59,1.85,1.465,2.471,2.625c0.621,1.16,0.993,2.444,1.118,3.852V113.273L135.673,113.273z"/>
		<path d="M167.404,112.917c-1.377,1.024-2.997,1.538-4.86,1.538c-2.796,0-5.229-1.201-7.301-3.604
			c-2.072-2.403-3.097-5.718-3.075-9.94h19.664c0-3.521-1.025-6.332-3.075-8.434c-2.051-2.102-4.67-3.153-7.858-3.153
			c-3.771,0-6.901,1.362-9.396,4.085c-2.495,2.723-3.743,6.519-3.743,11.385c0,4.494,1.218,8.072,3.65,10.733
			c2.433,2.66,5.356,3.992,8.774,3.992c3.147,0,5.769-1.166,7.858-3.496s3.354-4.912,3.79-7.75l-0.963-0.621
			C169.938,110.137,168.782,111.893,167.404,112.917z M154.544,93.532c1.356-1.335,2.896-2.003,4.613-2.003
			c1.118,0,2.19,0.331,3.216,0.994c1.023,0.663,1.796,1.574,2.314,2.733c0.33,0.746,0.549,2.03,0.65,3.852h-13.172
			C152.396,96.728,153.188,94.868,154.544,93.532z"/>
	</g>
</g>
<g id="Calque_17" display="none">
	<g display="inline">
		<path d="M56.481,113.117c-0.139,0.264-0.356,0.486-0.648,0.669c-0.273,0.171-0.573,0.229-0.896,0.178
			c-0.323-0.052-0.699-0.319-1.125-0.802c-0.428-0.48-1.385-1.918-2.874-4.313l-5.304-8.521c-1.511-2.43-2.676-3.936-3.495-4.516
			c-1.261-0.887-2.607-1.279-4.037-1.174c-1.891,0.137-3.951,0.899-6.18,2.286c-2.905,1.808-4.751,3.87-5.541,6.186
			c-0.789,2.314-0.696,4.26,0.282,5.828c0.512,0.823,1.129,1.338,1.855,1.547c0.725,0.207,1.425,0.102,2.1-0.317
			c0.695-0.435,1.116-1.01,1.261-1.733c0.144-0.725-0.045-1.507-0.566-2.348l-1.044-1.557c-0.5-0.803-0.596-1.73-0.289-2.783
			c0.29-1.041,1.01-1.921,2.161-2.638c1.516-0.943,2.961-1.196,4.336-0.759c1.374,0.437,2.84,1.907,4.396,4.41l0.615,0.986
			c-3.335,4.254-5.587,7.505-6.76,9.756c-1.172,2.25-1.747,4.229-1.722,5.938c0.009,1.235,0.395,2.467,1.156,3.688
			c1.205,1.938,2.739,3.15,4.601,3.639c1.863,0.489,3.661,0.192,5.396-0.888c1.114-0.69,2.022-1.575,2.726-2.646
			c0.464-0.721,1.364-2.877,2.702-6.473c0.949,1.488,1.883,2.377,2.799,2.667c0.917,0.294,1.822,0.16,2.717-0.396
			c1.864-1.16,2.967-3.746,3.308-7.76l-0.955-1.533C57.041,111.514,56.717,112.641,56.481,113.117z M44.704,121.13
			c-1.024,0.638-2.199,0.767-3.524,0.388c-1.325-0.381-2.397-1.228-3.215-2.543c-0.649-1.041-0.934-2.192-0.858-3.457
			c0.075-1.263,0.584-2.746,1.527-4.447c0.52-0.955,1.818-2.842,3.895-5.652l5.95,9.563C47.35,118.215,46.091,120.268,44.704,121.13
			z"/>
		<path d="M76.736,81.956c-2.838-1.941-5.726-2.531-8.662-1.77c-3.208,0.833-5.696,3.535-7.466,8.106L55.225,67.55l-1.406,0.365
			l-7.683,5.729l0.722,0.979c0.788-0.56,1.474-0.916,2.057-1.068c0.5-0.13,0.952-0.102,1.355,0.082
			c0.403,0.185,0.779,0.631,1.13,1.341c0.352,0.709,0.949,2.688,1.792,5.938l7.695,29.646c2.104,0.742,4.094,1.191,5.969,1.352
			s3.646,0.021,5.312-0.412c3.561-0.925,6.443-3.094,8.646-6.512c2.568-3.979,3.194-8.509,1.875-13.59
			C81.558,87.045,79.574,83.897,76.736,81.956z M77.652,104.311c-1.094,2.506-2.588,4.006-4.483,4.496
			c-1.187,0.31-2.417,0.346-3.691,0.107c-1.272-0.236-2.575-0.738-3.907-1.504l-4.444-17.118c0.967-1.584,1.813-2.694,2.538-3.326
			c0.957-0.849,1.988-1.417,3.093-1.703c2.082-0.541,4.196-0.04,6.342,1.504c2.146,1.543,3.694,4.148,4.646,7.814
			C78.778,98.559,78.747,101.802,77.652,104.311z"/>
		<path d="M106.031,97.777c-1.678,1.441-3.571,2.162-5.68,2.162c-2.948,0-5.289-1.35-7.02-4.051c-1.732-2.7-2.598-5.814-2.598-9.343
			c0-3.464,0.872-6.25,2.614-8.359c1.313-1.592,3.044-2.388,5.196-2.388c1.334,0,2.377,0.323,3.13,0.968
			c0.753,0.667,1.188,1.635,1.308,2.905c0.121,1.27,0.36,2.13,0.728,2.582c0.646,0.817,1.604,1.227,2.872,1.227
			c0.945,0,1.686-0.253,2.211-0.758c0.525-0.506,0.792-1.167,0.792-1.985c0-1.656-0.938-3.254-2.81-4.792
			c-1.873-1.539-4.262-2.308-7.166-2.308c-3.873,0-7.192,1.453-9.957,4.357c-2.765,2.905-4.147,6.681-4.147,11.329
			c0,4.799,1.248,8.607,3.744,11.426c2.496,2.819,5.422,4.228,8.778,4.228c2.818,0,5.389-1.049,7.714-3.146
			c2.322-2.098,3.884-5.094,4.68-8.988l-0.938-0.452C108.365,94.99,107.215,96.787,106.031,97.777z"/>
		<path d="M137.879,109.261c-0.459-0.118-0.822-0.366-1.092-0.745c-0.27-0.38-0.389-0.959-0.355-1.74
			c0.032-0.777,0.479-2.849,1.334-6.205l8.459-33.113l-1.408-0.359l-9.432,1.321l0.127,1.199c0.981-0.105,1.743-0.088,2.286,0.051
			c0.501,0.127,0.884,0.369,1.146,0.726c0.265,0.357,0.382,0.929,0.347,1.72c-0.037,0.79-0.474,2.822-1.31,6.096l-1.35,5.285
			c-1.236-2.026-3.115-3.361-5.64-4.006c-4.065-1.038-7.826-0.183-11.281,2.565s-5.708,6.176-6.757,10.283s-0.74,7.766,0.927,10.979
			c1.666,3.213,4.063,5.219,7.19,6.019c1.543,0.394,3.063,0.442,4.56,0.147c1.496-0.297,3.129-0.993,4.899-2.098l-1.047,4.096
			l1.438,0.369l9.408-1.36l-0.064-1.185C139.236,109.418,138.441,109.404,137.879,109.261z M134.857,90.435l-3.771,14.76
			c-2.256,1.443-4.334,1.924-6.229,1.438c-2.252-0.574-4.008-2.217-5.271-4.928c-1.264-2.708-1.354-6.169-0.279-10.381
			c1.065-4.169,2.822-7.095,5.273-8.778c1.857-1.28,3.705-1.686,5.54-1.217c0.979,0.25,1.909,0.804,2.79,1.661
			c0.879,0.858,1.482,1.951,1.813,3.278C135.051,87.597,135.096,88.985,134.857,90.435z"/>
		<path d="M170.881,112.482c1.926-3.109,2.559-6.154,1.896-9.133c-0.664-2.979-2.402-5.339-5.221-7.083
			c-3.33-2.061-6.843-2.57-10.535-1.529c-3.693,1.042-6.871,3.711-9.531,8.011c-2.457,3.973-3.338,7.797-2.645,11.479
			c0.694,3.681,2.551,6.455,5.569,8.322c2.78,1.721,5.731,2.125,8.854,1.211s5.648-2.507,7.588-4.775l-0.512-1.073
			c-2.184,1.687-4.162,2.604-5.939,2.757c-1.777,0.15-3.488-0.277-5.135-1.3c-2.472-1.527-3.965-3.92-4.48-7.175
			c-0.516-3.256,0.393-6.742,2.719-10.465L170.881,112.482z M159.645,96.513c1.929-0.439,3.65-0.188,5.17,0.752
			c0.987,0.611,1.752,1.49,2.297,2.636c0.543,1.146,0.728,2.373,0.551,3.681c-0.116,0.839-0.624,2.092-1.529,3.759l-11.636-7.202
			C155.997,98.16,157.714,96.951,159.645,96.513z"/>
	</g>
</g>
<g id="Calque_17_-_copie" display="none">
	<g display="inline">
		<path d="M50.584,81.595c-2.844-1.702-5.439-2.378-7.783-2.031c-2.344,0.346-3.977,1.289-4.896,2.828
			c-0.481,0.805-0.651,1.566-0.509,2.282c0.143,0.716,0.545,1.273,1.207,1.668c0.68,0.406,1.363,0.512,2.051,0.316
			c0.688-0.196,1.278-0.706,1.77-1.528l0.877-1.589c0.471-0.787,1.228-1.282,2.271-1.482c1.025-0.212,2.103,0.018,3.229,0.692
			c1.485,0.888,2.343,2.021,2.576,3.398c0.233,1.378-0.383,3.292-1.849,5.743l-0.578,0.966c-5.143-0.986-8.941-1.487-11.398-1.499
			c-2.458-0.012-4.417,0.371-5.878,1.149c-1.061,0.555-1.95,1.432-2.667,2.63c-1.134,1.896-1.499,3.755-1.093,5.576
			c0.404,1.819,1.457,3.239,3.156,4.255c1.091,0.652,2.253,1.045,3.487,1.176c0.825,0.08,3.083-0.101,6.771-0.541
			c-0.859,1.478-1.212,2.674-1.057,3.595c0.155,0.919,0.671,1.64,1.547,2.163c1.825,1.092,4.541,0.896,8.149-0.594l0.898-1.502
			c-1.715,0.435-2.83,0.651-3.345,0.66c-0.29-0.004-0.578-0.091-0.864-0.262c-0.268-0.16-0.453-0.393-0.551-0.693
			c-0.099-0.302-0.035-0.742,0.191-1.326c0.226-0.58,1.04-2.041,2.441-4.385l4.99-8.346c1.423-2.379,2.203-4.05,2.341-5.011
			c0.206-1.48-0.054-2.814-0.777-3.999C54.336,84.336,52.767,82.899,50.584,81.595z M42.372,103.857
			c-3.289,0.463-5.613,0.287-6.972-0.525c-1.002-0.6-1.633-1.553-1.894-2.862c-0.261-1.31-0.007-2.608,0.763-3.897
			c0.61-1.02,1.476-1.777,2.597-2.271c1.122-0.496,2.624-0.713,4.508-0.655c1.054,0.023,3.253,0.306,6.597,0.848L42.372,103.857z"/>
		<path d="M76.454,93.523c-3.113-0.783-6.483,0.357-10.112,3.42l5.064-20.133l-1.364-0.343l-9.192,1.299l0.157,1.168
			c0.93-0.11,1.679-0.095,2.244,0.048c0.485,0.122,0.856,0.356,1.114,0.7c0.257,0.344,0.37,0.899,0.338,1.665
			c-0.031,0.765-0.444,2.726-1.236,5.879L56.229,116c1.444,1.607,2.925,2.916,4.446,3.922c1.52,1.005,3.088,1.713,4.706,2.119
			c3.457,0.87,6.916,0.363,10.375-1.518c4.032-2.188,6.669-5.748,7.909-10.682c1.063-4.226,0.839-7.82-0.67-10.792
			C81.485,96.083,79.304,94.239,76.454,93.523z M77.985,110.253c-0.972,3.86-2.505,6.603-4.6,8.224
			c-2.095,1.623-4.063,2.203-5.902,1.738c-1.152-0.287-2.214-0.83-3.186-1.622c-0.972-0.792-1.846-1.823-2.623-3.094l4.18-16.615
			c1.558-0.898,2.793-1.447,3.703-1.648c1.208-0.276,2.348-0.28,3.419-0.009c2.021,0.508,3.585,1.917,4.691,4.226
			C78.773,103.762,78.879,106.695,77.985,110.253z"/>
		<path d="M107.823,120.264c-1.626,1.396-3.46,2.094-5.503,2.094c-2.855,0-5.125-1.309-6.8-3.924
			c-1.678-2.615-2.517-5.634-2.517-9.052c0-3.354,0.844-6.055,2.533-8.098c1.271-1.542,2.949-2.313,5.032-2.313
			c1.293,0,2.304,0.313,3.033,0.938c0.729,0.646,1.15,1.584,1.268,2.813c0.113,1.229,0.349,2.063,0.703,2.5
			c0.625,0.793,1.553,1.188,2.781,1.188c0.918,0,1.631-0.245,2.144-0.734c0.51-0.488,0.767-1.131,0.767-1.923
			c0-1.604-0.906-3.151-2.722-4.644c-1.813-1.49-4.127-2.235-6.94-2.235c-3.75,0-6.967,1.407-9.645,4.222
			c-2.678,2.813-4.018,6.473-4.018,10.973c0,4.647,1.208,8.339,3.627,11.068c2.417,2.729,5.252,4.096,8.503,4.096
			c2.731,0,5.222-1.017,7.473-3.047c2.251-2.033,3.763-4.937,4.533-8.709l-0.906-0.438
			C110.085,117.563,108.971,119.305,107.823,120.264z"/>
		<path d="M146.438,114.218c-0.44,0.12-0.867,0.087-1.275-0.104c-0.407-0.19-0.785-0.623-1.133-1.296
			c-0.346-0.674-0.959-2.627-1.844-5.864l-8.725-31.939l-1.355,0.371l-7.312,5.626l0.681,0.949c0.775-0.559,1.426-0.909,1.948-1.052
			c0.481-0.131,0.921-0.111,1.313,0.063c0.392,0.174,0.764,0.602,1.113,1.285c0.348,0.683,0.953,2.602,1.813,5.759l1.394,5.097
			c-2.013-1.115-4.233-1.339-6.666-0.674c-3.923,1.07-6.682,3.59-8.274,7.558c-1.595,3.968-1.853,7.935-0.771,11.896
			c1.081,3.961,3.094,6.896,6.032,8.803c2.938,1.91,5.92,2.451,8.938,1.629c1.485-0.406,2.791-1.092,3.91-2.059
			c1.119-0.965,2.16-2.334,3.123-4.107l1.08,3.949l1.387-0.379l7.271-5.647l-0.62-0.965
			C147.658,113.701,146.98,114.068,146.438,114.218z M134.216,118.236c-2.172,0.594-4.437,0.051-6.797-1.629
			c-2.358-1.678-4.095-4.547-5.203-8.607c-1.099-4.021-1.019-7.328,0.24-9.919c0.954-1.967,2.313-3.193,4.084-3.676
			c0.944-0.258,1.993-0.237,3.146,0.064c1.152,0.302,2.185,0.933,3.094,1.896c0.912,0.961,1.613,2.108,2.107,3.442l3.889,14.237
			C137.564,116.339,136.045,117.736,134.216,118.236z"/>
		<path d="M170.762,91.608l-1.154-0.027c0.509,2.623,0.438,4.736-0.203,6.34c-0.643,1.604-1.764,2.896-3.362,3.875
			c-2.397,1.472-5.119,1.72-8.159,0.746c-3.041-0.974-5.66-3.277-7.865-6.913l16.875-10.34c-1.854-3.021-4.209-4.895-7.074-5.621
			c-2.864-0.726-5.666-0.25-8.401,1.427c-3.235,1.982-5.208,4.797-5.916,8.447c-0.71,3.649,0.215,7.562,2.772,11.737
			c2.361,3.855,5.289,6.289,8.776,7.293s6.697,0.607,9.63-1.189c2.7-1.654,4.336-4.031,4.906-7.132
			C172.152,97.153,171.879,94.271,170.762,91.608z M148.174,88.048c0.463-1.859,1.432-3.241,2.905-4.145
			c0.961-0.588,2.054-0.868,3.282-0.838c1.229,0.03,2.369,0.406,3.425,1.129c0.675,0.466,1.536,1.453,2.584,2.963l-11.302,6.925
			C148.01,91.919,147.714,89.908,148.174,88.048z"/>
	</g>
</g>
</svg>
