<?xml version="1.0" encoding="utf-8"?>
<!-- Generator: Adobe Illustrator 15.1.0, SVG Export Plug-In . SVG Version: 6.00 Build 0)  -->
<!DOCTYPE svg PUBLIC "-//W3C//DTD SVG 1.1//EN" "http://www.w3.org/Graphics/SVG/1.1/DTD/svg11.dtd">
<svg version="1.1" id="Calque_1" xmlns="http://www.w3.org/2000/svg" xmlns:xlink="http://www.w3.org/1999/xlink" x="0px" y="0px"
	 width="34.005px" height="159px" viewBox="0 0 34.005 159" enable-background="new 0 0 34.005 159" xml:space="preserve">
<g>
	<path fill="#FFFFFF" d="M0.005,3.399C0.005,1.522,1.527,0,3.404,0h27.201c1.877,0,3.399,1.522,3.399,3.399v114.201
		c0,1.877-1.522,3.399-3.399,3.399H3.404c-1.877,0-3.399-1.522-3.399-3.399V3.399z"/>
	<path fill="#1B171B" d="M5.424,3.344h23.162c1.145,0,2.075,0.931,2.075,2.075v110.162c0,1.145-0.931,2.075-2.075,2.075H5.424
		c-1.145,0-2.075-0.931-2.075-2.075V5.419C3.349,4.274,4.279,3.344,5.424,3.344 M3.404,0C1.527,0,0.005,1.522,0.005,3.399v114.201
		c0,1.877,1.522,3.399,3.399,3.399h27.201c1.877,0,3.399-1.522,3.399-3.399V3.399C34.005,1.522,32.482,0,30.605,0H3.404L3.404,0z"/>
</g>
<g>
	<path fill="#8ABA31" d="M20.223,21.633l3.877,1.172c-0.261,1.087-0.671,1.995-1.23,2.725s-1.255,1.279-2.085,1.65
		s-1.887,0.557-3.169,0.557c-1.556,0-2.827-0.227-3.813-0.679c-0.986-0.451-1.838-1.247-2.554-2.386s-1.074-2.596-1.074-4.372
		c0-2.368,0.63-4.188,1.89-5.46c1.26-1.272,3.042-1.908,5.347-1.908c1.804,0,3.221,0.364,4.253,1.094s1.799,1.849,2.3,3.359
		l-3.906,0.869c-0.137-0.437-0.28-0.755-0.43-0.957c-0.247-0.339-0.55-0.599-0.908-0.781s-0.759-0.273-1.201-0.273
		c-1.003,0-1.771,0.403-2.305,1.21c-0.403,0.598-0.605,1.537-0.605,2.818c0,1.587,0.241,2.675,0.723,3.263
		c0.481,0.589,1.159,0.883,2.031,0.883c0.847,0,1.486-0.237,1.919-0.713S20.027,22.538,20.223,21.633z"/>
	<path fill="#8ABA31" d="M9.583,40.344c0-2.337,0.651-4.157,1.953-5.459s3.115-1.953,5.439-1.953c2.383,0,4.219,0.64,5.508,1.919
		s1.934,3.071,1.934,5.376c0,1.673-0.281,3.045-0.845,4.116s-1.377,1.904-2.441,2.5s-2.391,0.894-3.979,0.894
		c-1.614,0-2.951-0.257-4.009-0.771s-1.916-1.328-2.573-2.441S9.583,42.017,9.583,40.344z M14.007,40.363
		c0,1.445,0.269,2.483,0.806,3.115s1.268,0.947,2.192,0.947c0.95,0,1.687-0.31,2.207-0.928s0.781-1.729,0.781-3.33
		c0-1.348-0.271-2.332-0.815-2.954s-1.281-0.933-2.212-0.933c-0.892,0-1.608,0.315-2.148,0.947S14.007,38.905,14.007,40.363z"/>
	<path fill="#8ABA31" d="M11.8,53.176h4.424v10.791h6.904v3.525H11.8V53.176z"/>
	<path fill="#8ABA31" d="M9.583,80.344c0-2.337,0.651-4.157,1.953-5.459s3.115-1.953,5.439-1.953c2.383,0,4.219,0.64,5.508,1.919
		s1.934,3.071,1.934,5.376c0,1.673-0.281,3.045-0.845,4.116s-1.377,1.904-2.441,2.5s-2.391,0.894-3.979,0.894
		c-1.614,0-2.951-0.257-4.009-0.771s-1.916-1.328-2.573-2.441S9.583,82.017,9.583,80.344z M14.007,80.363
		c0,1.445,0.269,2.483,0.806,3.115s1.268,0.947,2.192,0.947c0.95,0,1.687-0.31,2.207-0.928s0.781-1.729,0.781-3.33
		c0-1.348-0.271-2.332-0.815-2.954s-1.281-0.933-2.212-0.933c-0.892,0-1.608,0.315-2.148,0.947S14.007,78.905,14.007,80.363z"/>
	<path fill="#8ABA31" d="M10.75,107.492V93.176h7.373c1.367,0,2.412,0.117,3.135,0.352s1.306,0.669,1.748,1.304
		s0.664,1.408,0.664,2.319c0,0.794-0.169,1.479-0.508,2.056s-0.805,1.043-1.397,1.401c-0.378,0.228-0.896,0.417-1.554,0.566
		c0.526,0.176,0.911,0.352,1.151,0.527c0.163,0.118,0.398,0.368,0.708,0.753c0.309,0.385,0.516,0.682,0.619,0.89l2.143,4.148h-4.999
		l-2.364-4.375c-0.3-0.566-0.566-0.935-0.801-1.104c-0.319-0.222-0.681-0.332-1.084-0.332h-0.391v5.811H10.75z M15.193,98.977h1.865
		c0.202,0,0.593-0.065,1.172-0.195c0.293-0.059,0.532-0.208,0.718-0.449s0.278-0.518,0.278-0.83c0-0.462-0.146-0.817-0.439-1.064
		s-0.843-0.371-1.65-0.371h-1.943V98.977z"/>
</g>
<path fill-rule="evenodd" clip-rule="evenodd" fill="#E1E1E1" d="M9.969,128c0,2.323,0,4.646,0,6.969c-2.322,0-4.646,0-6.969,0
	c0-2.322,0-4.646,0-6.969C5.323,128,7.646,128,9.969,128z"/>
<path fill-rule="evenodd" clip-rule="evenodd" fill="#58AB27" d="M9.969,128c2.323,0,4.646,0,6.969,0c0,2.323,0,4.646,0,6.969
	c-2.322,0-4.646,0-6.969,0C9.969,132.646,9.969,130.323,9.969,128z"/>
<path fill-rule="evenodd" clip-rule="evenodd" fill="#ABC600" d="M16.938,128c2.323,0,4.646,0,6.97,0c0,2.323,0,4.646,0,6.969
	c-2.323,0-4.646,0-6.97,0C16.938,132.646,16.938,130.323,16.938,128z"/>
<path fill-rule="evenodd" clip-rule="evenodd" fill="#F4E625" d="M23.907,128c2.323,0,4.646,0,6.969,0c0,2.323,0,4.646,0,6.969
	c-2.323,0-4.646,0-6.969,0C23.907,132.646,23.907,130.323,23.907,128z"/>
<path fill-rule="evenodd" clip-rule="evenodd" fill="#41AE7A" d="M3,134.969c2.323,0,4.646,0,6.969,0c0,2.323,0,4.646,0,6.969
	c-2.322,0-4.646,0-6.969,0C3,139.615,3,137.292,3,134.969z"/>
<path fill-rule="evenodd" clip-rule="evenodd" fill="#6DB122" d="M9.969,134.969c2.323,0,4.646,0,6.969,0c0,2.323,0,4.646,0,6.969
	c-2.322,0-4.646,0-6.969,0C9.969,139.615,9.969,137.292,9.969,134.969z"/>
<path fill-rule="evenodd" clip-rule="evenodd" fill="#D5D80F" d="M16.938,134.969c2.323,0,4.646,0,6.97,0c0,2.323,0,4.646,0,6.969
	c-2.323,0-4.646,0-6.97,0C16.938,139.615,16.938,137.292,16.938,134.969z"/>
<path fill-rule="evenodd" clip-rule="evenodd" fill="#EA661D" d="M23.907,134.969c2.323,0,4.646,0,6.969,0c0,2.323,0,4.646,0,6.969
	c-2.323,0-4.646,0-6.969,0C23.907,139.615,23.907,137.292,23.907,134.969z"/>
<path fill-rule="evenodd" clip-rule="evenodd" fill="#01A9CA" d="M3,141.938c2.323,0,4.646,0,6.969,0c0,2.323,0,4.646,0,6.97
	c-2.322,0-4.646,0-6.969,0C3,146.584,3,144.261,3,141.938z"/>
<path fill-rule="evenodd" clip-rule="evenodd" fill="#4578B7" d="M9.969,141.938c2.323,0,4.646,0,6.969,0c0,2.323,0,4.646,0,6.97
	c-2.322,0-4.646,0-6.969,0C9.969,146.584,9.969,144.261,9.969,141.938z"/>
<path fill-rule="evenodd" clip-rule="evenodd" fill="#B73D8C" d="M16.938,141.938c2.323,0,4.646,0,6.97,0c0,2.323,0,4.646,0,6.97
	c-2.323,0-4.646,0-6.97,0C16.938,146.584,16.938,144.261,16.938,141.938z"/>
<path fill-rule="evenodd" clip-rule="evenodd" fill="#E4224C" d="M23.907,141.938c2.323,0,4.646,0,6.969,0c0,2.323,0,4.646,0,6.97
	c-2.323,0-4.646,0-6.969,0C23.907,146.584,23.907,144.261,23.907,141.938z"/>
<path fill-rule="evenodd" clip-rule="evenodd" fill="#0D1A3E" d="M3,148.907c2.323,0,4.646,0,6.969,0c0,2.323,0,4.646,0,6.969
	c-2.322,0-4.646,0-6.969,0C3,153.553,3,151.23,3,148.907z"/>
<path fill-rule="evenodd" clip-rule="evenodd" fill="#364795" d="M9.969,148.907c2.323,0,4.646,0,6.969,0c0,2.323,0,4.646,0,6.969
	c-2.322,0-4.646,0-6.969,0C9.969,153.553,9.969,151.23,9.969,148.907z"/>
<path fill-rule="evenodd" clip-rule="evenodd" fill="#7B4491" d="M16.938,148.907c2.323,0,4.646,0,6.97,0c0,2.323,0,4.646,0,6.969
	c-2.323,0-4.646,0-6.97,0C16.938,153.553,16.938,151.23,16.938,148.907z"/>
<path fill-rule="evenodd" clip-rule="evenodd" fill="#811A70" d="M23.907,148.907c2.323,0,4.646,0,6.969,0c0,2.323,0,4.646,0,6.969
	c-2.323,0-4.646,0-6.969,0C23.907,153.553,23.907,151.23,23.907,148.907z"/>
<g>
	<path fill="#1B171B" d="M5.419,128.303h23.162c1.145,0,2.075,0.919,2.075,2.05v23.294c0,1.131-0.931,2.05-2.075,2.05H5.419
		c-1.145,0-2.075-0.919-2.075-2.05v-23.294C3.344,129.222,4.274,128.303,5.419,128.303 M3.399,125C1.522,125,0,126.504,0,128.357
		v27.284C0,157.495,1.522,159,3.399,159h27.201c1.877,0,3.399-1.505,3.399-3.358v-27.284c0-1.854-1.522-3.357-3.399-3.357H3.399
		L3.399,125z"/>
</g>
</svg>
