<?xml version="1.0" encoding="utf-8"?>
<!-- Generator: Adobe Illustrator 15.1.0, SVG Export Plug-In . SVG Version: 6.00 Build 0)  -->
<!DOCTYPE svg PUBLIC "-//W3C//DTD SVG 1.1//EN" "http://www.w3.org/Graphics/SVG/1.1/DTD/svg11.dtd">
<svg version="1.1" id="Calque_1" xmlns="http://www.w3.org/2000/svg" xmlns:xlink="http://www.w3.org/1999/xlink" x="0px" y="0px"
	 width="200px" height="200px" viewBox="0 0 200 200" enable-background="new 0 0 200 200" xml:space="preserve">
<g>
	<path fill="#8ABA2F" d="M200.5,180.5c0,11.046-8.954,20-20,20h-160c-11.046,0-20-8.954-20-20v-160c0-11.046,8.954-20,20-20h160
		c11.046,0,20,8.954,20,20V180.5z"/>
	<path fill="#1A171B" d="M168.627,20.169c6.729,0,12.204,5.475,12.204,12.204v136.254c0,6.729-5.475,12.204-12.204,12.204H32.373
		c-6.729,0-12.204-5.475-12.204-12.204V32.373c0-6.729,5.475-12.204,12.204-12.204H168.627 M180.5,0.5h-160
		c-11.046,0-20,8.954-20,20v160c0,11.046,8.954,20,20,20h160c11.046,0,20-8.954,20-20v-160C200.5,9.454,191.546,0.5,180.5,0.5
		L180.5,0.5z"/>
</g>
<g>
	<path fill="#FFFFFF" d="M169.464,27.619h-32.505c-1.891,0-3.423,1.533-3.423,3.423v9.127c0,1.891,1.532,3.423,3.423,3.423h8.658
		l-26.072,26.072c-0.642,0.642-1.002,1.513-1.002,2.42s0.36,1.779,1.002,2.42L126,80.959c0.668,0.668,1.544,1.003,2.42,1.003
		s1.752-0.335,2.421-1.003l26.073-26.072v8.66c0,1.89,1.532,3.422,3.423,3.422h9.127c1.892,0,3.423-1.532,3.423-3.422V31.042
		C172.887,29.151,171.354,27.619,169.464,27.619z"/>
	<path fill="#FFFFFF" d="M55.383,43.592h8.659c1.891,0,3.423-1.532,3.423-3.423v-9.127c0-1.891-1.532-3.423-3.423-3.423H31.537
		c-1.891,0-3.423,1.533-3.423,3.423v32.505c0,1.89,1.532,3.422,3.423,3.422h9.128c1.891,0,3.423-1.532,3.423-3.422v-8.659
		l26.071,26.071c0.668,0.668,1.545,1.003,2.421,1.003s1.752-0.335,2.421-1.003l6.455-6.455c0.642-0.641,1.002-1.512,1.002-2.42
		s-0.361-1.778-1.002-2.42L55.383,43.592z"/>
	<path fill="#FFFFFF" d="M75.001,118.04c-1.337-1.336-3.504-1.336-4.842,0l-26.071,26.072v-8.66c0-1.89-1.532-3.423-3.423-3.423
		h-9.128c-1.891,0-3.423,1.533-3.423,3.423v32.505c0,1.89,1.532,3.423,3.423,3.423h32.505c1.891,0,3.423-1.533,3.423-3.423v-9.127
		c0-1.891-1.532-3.423-3.423-3.423h-8.659l26.072-26.071c0.642-0.642,1.002-1.513,1.002-2.42c0-0.908-0.36-1.778-1.002-2.42
		L75.001,118.04z"/>
	<path fill="#FFFFFF" d="M169.464,132.029h-9.127c-1.892,0-3.423,1.533-3.423,3.423v8.661l-26.074-26.072
		c-1.337-1.337-3.504-1.337-4.84,0l-6.455,6.455c-0.642,0.642-1.002,1.513-1.002,2.42s0.36,1.779,1.003,2.421l26.071,26.07h-8.658
		c-1.891,0-3.423,1.532-3.423,3.423v9.128c0,1.891,1.532,3.424,3.423,3.424h32.505c1.891,0,3.423-1.533,3.423-3.424v-32.506
		C172.887,133.563,171.354,132.029,169.464,132.029z"/>
</g>
</svg>
