<?xml version="1.0" encoding="utf-8"?>
<!-- Generator: Adobe Illustrator 15.1.0, SVG Export Plug-In . SVG Version: 6.00 Build 0)  -->
<!DOCTYPE svg PUBLIC "-//W3C//DTD SVG 1.1//EN" "http://www.w3.org/Graphics/SVG/1.1/DTD/svg11.dtd">
<svg version="1.1" id="Calque_1" xmlns="http://www.w3.org/2000/svg" xmlns:xlink="http://www.w3.org/1999/xlink" x="0px" y="0px"
	 width="200px" height="200px" viewBox="0 0 200 200" enable-background="new 0 0 200 200" xml:space="preserve">
<g>
	<path fill="#FFFFFF" d="M200,180c0,11.046-8.954,20-20,20H20c-11.046,0-20-8.954-20-20V20C0,8.954,8.954,0,20,0h160
		c11.046,0,20,8.954,20,20V180z"/>
	<path fill="#1A171B" d="M167.981,19.841c6.715,0,12.178,5.463,12.178,12.178v135.963c0,6.715-5.463,12.178-12.178,12.178H32.019
		c-6.715,0-12.178-5.463-12.178-12.178V32.019c0-6.715,5.463-12.178,12.178-12.178H167.981 M180,0H20C8.954,0,0,8.954,0,20v160
		c0,11.046,8.954,20,20,20h160c11.046,0,20-8.954,20-20V20C200,8.954,191.046,0,180,0L180,0z"/>
</g>
<g>
	<g>
		<path fill="#1A171B" d="M166.401,149.182l-33.263-33.266c-4.956,7.709-11.516,14.265-19.224,19.221l33.265,33.266
			c5.313,5.311,13.922,5.311,19.221,0C171.713,163.102,171.713,154.491,166.401,149.182z"/>
		<path fill="#1A171B" d="M134.137,81.765c0-30.026-24.344-54.372-54.371-54.372c-30.026,0-54.372,24.346-54.372,54.372
			s24.346,54.37,54.372,54.37C109.793,136.135,134.137,111.791,134.137,81.765z M79.766,122.542
			c-22.486,0-40.778-18.29-40.778-40.777c0-22.486,18.292-40.777,40.778-40.777c22.486,0,40.779,18.291,40.779,40.777
			C120.545,104.252,102.252,122.542,79.766,122.542z"/>
		<path fill="#1A171B" d="M48.05,81.765h9.061c0-12.491,10.164-22.655,22.655-22.655v-9.062C62.28,50.049,48.05,64.279,48.05,81.765
			z"/>
	</g>
</g>
</svg>
