<?xml version="1.0" encoding="utf-8"?>
<!-- Generator: Adobe Illustrator 15.1.0, SVG Export Plug-In . SVG Version: 6.00 Build 0)  -->
<!DOCTYPE svg PUBLIC "-//W3C//DTD SVG 1.1//EN" "http://www.w3.org/Graphics/SVG/1.1/DTD/svg11.dtd">
<svg version="1.1" id="Calque_1" xmlns="http://www.w3.org/2000/svg" xmlns:xlink="http://www.w3.org/1999/xlink" x="0px" y="0px"
	 width="200px" height="200px" viewBox="0 0 200 200" enable-background="new 0 0 200 200" xml:space="preserve">
<g>
	<path fill="#FFFFFF" d="M200.5,180.5c0,11.046-8.954,20-20,20h-160c-11.046,0-20-8.954-20-20v-160c0-11.046,8.954-20,20-20h160
		c11.046,0,20,8.954,20,20V180.5z"/>
	<path fill="#1A171B" d="M168.481,20.341c6.715,0,12.178,5.463,12.178,12.178v135.963c0,6.715-5.463,12.178-12.178,12.178H32.519
		c-6.715,0-12.178-5.463-12.178-12.178V32.519c0-6.715,5.463-12.178,12.178-12.178H168.481 M180.5,0.5h-160
		c-11.046,0-20,8.954-20,20v160c0,11.046,8.954,20,20,20h160c11.046,0,20-8.954,20-20v-160C200.5,9.454,191.546,0.5,180.5,0.5
		L180.5,0.5z"/>
</g>
<g>
	<path fill="#1A171B" d="M130.569,35.804l-51.84,51.84c-0.412,0.412-0.706,0.925-0.853,1.49l-4.45,17.135
		c-0.291,1.121,0.034,2.313,0.853,3.133c0.621,0.621,1.455,0.957,2.312,0.957c0.273,0,0.549-0.033,0.821-0.104l17.135-4.451
		c0.564-0.146,1.079-0.44,1.489-0.853l51.839-51.838c0-0.001,0.002-0.002,0.002-0.002c0,0,0.002-0.002,0.003-0.002l10.436-10.437
		c1.276-1.276,1.276-3.346,0-4.622l-12.686-12.688c-0.613-0.613-1.444-0.958-2.312-0.958c-0.866,0-1.698,0.344-2.312,0.958
		L130.573,35.8c0,0.001-0.001,0.002-0.001,0.002C130.571,35.803,130.57,35.804,130.569,35.804z M92.045,99.701l-10.892,2.828
		l2.828-10.892l48.901-48.901l8.063,8.064L92.045,99.701z M143.32,32.298l8.063,8.063l-5.814,5.816l-8.064-8.064L143.32,32.298z"/>
	<path fill="#1A171B" d="M156.008,59.83c-1.806,0-3.271,1.463-3.271,3.269v105.043H50.188V43.156h60.505
		c1.806,0,3.269-1.464,3.269-3.268c0-1.806-1.463-3.27-3.269-3.27H46.919c-1.805,0-3.269,1.463-3.269,3.27V171.41
		c0,1.806,1.464,3.269,3.269,3.269h109.089c1.805,0,3.268-1.463,3.268-3.269V63.099C159.275,61.293,157.813,59.83,156.008,59.83z"/>
</g>
</svg>
