<?xml version="1.0" encoding="utf-8"?>
<!-- Generator: Adobe Illustrator 15.1.0, SVG Export Plug-In . SVG Version: 6.00 Build 0)  -->
<!DOCTYPE svg PUBLIC "-//W3C//DTD SVG 1.1//EN" "http://www.w3.org/Graphics/SVG/1.1/DTD/svg11.dtd">
<svg version="1.1" id="Calque_1" xmlns="http://www.w3.org/2000/svg" xmlns:xlink="http://www.w3.org/1999/xlink" x="0px" y="0px"
	 width="200px" height="200px" viewBox="0 0 200 200" enable-background="new 0 0 200 200" xml:space="preserve">
<g>
	<path fill="#FFFFFF" d="M200.5,180.5c0,11.046-8.954,20-20,20h-160c-11.046,0-20-8.954-20-20v-160c0-11.046,8.954-20,20-20h160
		c11.046,0,20,8.954,20,20V180.5z"/>
	<path fill="#1A171B" d="M168.481,20.341c6.715,0,12.178,5.463,12.178,12.178v135.963c0,6.715-5.463,12.178-12.178,12.178H32.519
		c-6.715,0-12.178-5.463-12.178-12.178V32.519c0-6.715,5.463-12.178,12.178-12.178H168.481 M180.5,0.5h-160
		c-11.046,0-20,8.954-20,20v160c0,11.046,8.954,20,20,20h160c11.046,0,20-8.954,20-20v-160C200.5,9.454,191.546,0.5,180.5,0.5
		L180.5,0.5z"/>
</g>
<g>
	<g>
		<path fill="#1A171B" d="M100.5,85.1c-12.013,0-21.75,9.741-21.75,21.75c0,12.014,9.737,21.75,21.75,21.75
			c12.011,0,21.751-9.736,21.751-21.75C122.251,94.84,112.511,85.1,100.5,85.1z M158.501,63.35h-17.4
			c-2.394,0-4.971-1.856-5.727-4.127l-4.498-13.498c-0.759-2.27-3.334-4.125-5.727-4.125h-49.3c-2.392,0-4.97,1.856-5.726,4.126
			l-4.498,13.499c-0.758,2.269-3.333,4.125-5.726,4.125H42.5c-7.975,0-14.5,6.525-14.5,14.5v65.25c0,7.976,6.525,14.501,14.5,14.501
			h116.001c7.974,0,14.499-6.525,14.499-14.501V77.85C173,69.875,166.475,63.35,158.501,63.35z M100.5,143.1
			c-20.02,0-36.25-16.229-36.25-36.25c0-20.018,16.23-36.25,36.25-36.25c20.017,0,36.25,16.231,36.25,36.25
			C136.75,126.87,120.517,143.1,100.5,143.1z M153.425,87.99c-2.801,0-5.075-2.271-5.075-5.075c0-2.802,2.274-5.075,5.075-5.075
			c2.804,0,5.076,2.273,5.076,5.075C158.501,85.719,156.228,87.99,153.425,87.99z"/>
	</g>
</g>
</svg>
