<?xml version="1.0" encoding="utf-8"?>
<!-- Generator: Adobe Illustrator 15.1.0, SVG Export Plug-In . SVG Version: 6.00 Build 0)  -->
<!DOCTYPE svg PUBLIC "-//W3C//DTD SVG 1.1//EN" "http://www.w3.org/Graphics/SVG/1.1/DTD/svg11.dtd">
<svg version="1.1" id="Calque_1" xmlns="http://www.w3.org/2000/svg" xmlns:xlink="http://www.w3.org/1999/xlink" x="0px" y="0px"
	 width="200px" height="200px" viewBox="0 0 200 200" enable-background="new 0 0 200 200" xml:space="preserve">
<g id="Calque_1_-_copie">
	<g>
		<path fill="#288932" d="M200,180.223c0,11.047-8.954,20-20,20H20c-11.046,0-20-8.953-20-20v-160c0-11.046,8.954-20,20-20h160
			c11.046,0,20,8.954,20,20V180.223z"/>
		<path d="M169.127,19.893c6.729,0,12.204,5.475,12.204,12.203V168.35c0,6.729-5.476,12.205-12.204,12.205H32.873
			c-6.729,0-12.204-5.477-12.204-12.205V32.096c0-6.729,5.475-12.203,12.204-12.203H169.127 M181,0.223H21c-11.046,0-20,8.954-20,20
			v160c0,11.047,8.954,20,20,20h160c11.046,0,20-8.953,20-20v-160C201,9.177,192.046,0.223,181,0.223L181,0.223z"/>
	</g>
</g>
<g>
	<polygon fill="#FFFFFF" points="29.175,156.057 84.854,156.057 84.854,46.167 78.901,46.167 	"/>
	<polygon fill="#FFFFFF" points="118.266,46.167 112.313,46.167 112.313,156.057 167.992,156.057 	"/>
	<rect x="95.833" y="30.723" fill="#FFFFFF" width="5.167" height="9.942"/>
	<rect x="95.833" y="52.315" fill="#FFFFFF" width="5.167" height="9.942"/>
	<rect x="95.833" y="73.909" fill="#FFFFFF" width="5.167" height="9.942"/>
	<rect x="95.833" y="95.501" fill="#FFFFFF" width="5.167" height="9.944"/>
	<rect x="95.833" y="117.096" fill="#FFFFFF" width="5.167" height="9.939"/>
	<rect x="95.833" y="138.688" fill="#FFFFFF" width="5.167" height="9.942"/>
	<rect x="95.833" y="160.281" fill="#FFFFFF" width="5.167" height="9.941"/>
</g>
</svg>
