<?xml version="1.0" encoding="utf-8"?>
<!-- Generator: Adobe Illustrator 15.1.0, SVG Export Plug-In . SVG Version: 6.00 Build 0)  -->
<!DOCTYPE svg PUBLIC "-//W3C//DTD SVG 1.1//EN" "http://www.w3.org/Graphics/SVG/1.1/DTD/svg11.dtd">
<svg version="1.1" id="Calque_1" xmlns="http://www.w3.org/2000/svg" xmlns:xlink="http://www.w3.org/1999/xlink" x="0px" y="0px"
	 width="200px" height="200px" viewBox="0 0 200 200" enable-background="new 0 0 200 200" xml:space="preserve">
<g>
	<path fill="#FFFFFF" d="M200.5,180.5c0,11.046-8.954,20-20,20h-160c-11.046,0-20-8.954-20-20v-160c0-11.046,8.954-20,20-20h160
		c11.046,0,20,8.954,20,20V180.5z"/>
	<path fill="#1A171B" d="M168.481,20.341c6.715,0,12.178,5.463,12.178,12.178v135.963c0,6.715-5.463,12.178-12.178,12.178H32.519
		c-6.715,0-12.178-5.463-12.178-12.178V32.519c0-6.715,5.463-12.178,12.178-12.178H168.481 M180.5,0.5h-160
		c-11.046,0-20,8.954-20,20v160c0,11.046,8.954,20,20,20h160c11.046,0,20-8.954,20-20v-160C200.5,9.454,191.546,0.5,180.5,0.5
		L180.5,0.5z"/>
</g>
<g>
	<path fill="#1A171B" d="M158.666,28.168l1.542,33.783h-3.904c-0.754-5.949-1.782-10.198-3.083-12.748
		c-2.123-4.106-4.949-7.134-8.476-9.083c-3.53-1.946-8.17-2.921-13.924-2.921h-19.626v110.061c0,8.854,0.926,14.378,2.774,16.572
		c2.603,2.976,6.61,4.461,12.022,4.461h4.829v3.933H71.739v-3.933h4.932c5.891,0,10.069-1.84,12.536-5.523
		c1.506-2.265,2.261-7.436,2.261-15.51V37.198H74.719c-6.508,0-11.132,0.497-13.871,1.488c-3.563,1.346-6.611,3.931-9.145,7.755
		c-2.535,3.824-4.042,8.995-4.521,15.51h-3.905l1.644-33.783H158.666z"/>
</g>
</svg>
