<?xml version="1.0" encoding="utf-8"?>
<!-- Generator: Adobe Illustrator 15.1.0, SVG Export Plug-In . SVG Version: 6.00 Build 0)  -->
<!DOCTYPE svg PUBLIC "-//W3C//DTD SVG 1.1//EN" "http://www.w3.org/Graphics/SVG/1.1/DTD/svg11.dtd">
<svg version="1.1" id="Calque_1" xmlns="http://www.w3.org/2000/svg" xmlns:xlink="http://www.w3.org/1999/xlink" x="0px" y="0px"
	 width="200px" height="200px" viewBox="0 0 200 200" enable-background="new 0 0 200 200" xml:space="preserve">
<g>
	<path fill="#8ABA2F" d="M200.5,180.5c0,11.046-8.954,20-20,20h-160c-11.046,0-20-8.954-20-20v-160c0-11.046,8.954-20,20-20h160
		c11.046,0,20,8.954,20,20V180.5z"/>
	<path fill="#1A171B" d="M168.627,20.169c6.729,0,12.204,5.475,12.204,12.204v136.254c0,6.729-5.475,12.204-12.204,12.204H32.373
		c-6.729,0-12.204-5.475-12.204-12.204V32.373c0-6.729,5.475-12.204,12.204-12.204H168.627 M180.5,0.5h-160
		c-11.046,0-20,8.954-20,20v160c0,11.046,8.954,20,20,20h160c11.046,0,20-8.954,20-20v-160C200.5,9.454,191.546,0.5,180.5,0.5
		L180.5,0.5z"/>
</g>
<path fill="#FFFFFF" d="M169.234,89.521h-28.203V34.831c0-2.689-2.18-4.87-4.869-4.87H34.366c-2.689,0-4.87,2.181-4.87,4.87v101.795
	c0,2.69,2.181,4.87,4.87,4.87h55.121v27.773c0,1.345,1.09,2.436,2.435,2.436h77.313c1.345,0,2.436-1.091,2.436-2.436V91.957
	C171.67,90.612,170.579,89.521,169.234,89.521z M39.236,131.757V39.701h92.056v49.821H91.921c-1.345,0-2.435,1.09-2.435,2.435v39.8
	H39.236z M141.031,94.392h25.768v72.443H94.356v-25.339v-9.739V94.392h36.936H141.031z"/>
</svg>
