<?xml version="1.0" encoding="utf-8"?>
<!-- Generator: Adobe Illustrator 15.1.0, SVG Export Plug-In . SVG Version: 6.00 Build 0)  -->
<!DOCTYPE svg PUBLIC "-//W3C//DTD SVG 1.1//EN" "http://www.w3.org/Graphics/SVG/1.1/DTD/svg11.dtd">
<svg version="1.1" id="Calque_1" xmlns="http://www.w3.org/2000/svg" xmlns:xlink="http://www.w3.org/1999/xlink" x="0px" y="0px"
	 width="200px" height="200px" viewBox="0 0 200 200" enable-background="new 0 0 200 200" xml:space="preserve">
<g>
	<path fill="#8ABA2F" d="M200.5,180.5c0,11.046-8.954,20-20,20h-160c-11.046,0-20-8.954-20-20v-160c0-11.046,8.954-20,20-20h160
		c11.046,0,20,8.954,20,20V180.5z"/>
	<path fill="#1A171B" d="M168.627,20.169c6.729,0,12.204,5.475,12.204,12.204v136.254c0,6.729-5.475,12.204-12.204,12.204H32.373
		c-6.729,0-12.204-5.475-12.204-12.204V32.373c0-6.729,5.475-12.204,12.204-12.204H168.627 M180.5,0.5h-160
		c-11.046,0-20,8.954-20,20v160c0,11.046,8.954,20,20,20h160c11.046,0,20-8.954,20-20v-160C200.5,9.454,191.546,0.5,180.5,0.5
		L180.5,0.5z"/>
</g>
<path fill="#FFFFFF" d="M169.877,89.416H141.41V34.213c0-2.715-2.201-4.916-4.916-4.916H33.747c-2.715,0-4.916,2.201-4.916,4.916
	v102.748c0,2.715,2.201,4.916,4.916,4.916h55.636v28.033c0,1.357,1.1,2.458,2.458,2.458h78.037c1.357,0,2.458-1.101,2.458-2.458
	V91.874C172.335,90.516,171.234,89.416,169.877,89.416z M131.579,94.331v37.715H94.298h-4.915H38.662V39.129h92.917v50.287V94.331z
	 M167.419,167.452H94.298v-25.575h42.196c2.715,0,4.916-2.201,4.916-4.916v-42.63h26.009V167.452z"/>
</svg>
