<?xml version="1.0" encoding="utf-8"?>
<!-- Generator: Adobe Illustrator 15.1.0, SVG Export Plug-In . SVG Version: 6.00 Build 0)  -->
<!DOCTYPE svg PUBLIC "-//W3C//DTD SVG 1.1//EN" "http://www.w3.org/Graphics/SVG/1.1/DTD/svg11.dtd">
<svg version="1.1" id="Calque_1" xmlns="http://www.w3.org/2000/svg" xmlns:xlink="http://www.w3.org/1999/xlink" x="0px" y="0px"
	 width="200px" height="200px" viewBox="0 0 200 200" enable-background="new 0 0 200 200" xml:space="preserve">
<g>
	<path fill="#8ABA2F" d="M200.5,180.5c0,11.046-8.954,20-20,20h-160c-11.046,0-20-8.954-20-20v-160c0-11.046,8.954-20,20-20h160
		c11.046,0,20,8.954,20,20V180.5z"/>
	<path fill="#1A171B" d="M168.627,20.169c6.729,0,12.204,5.475,12.204,12.204v136.254c0,6.729-5.475,12.204-12.204,12.204H32.373
		c-6.729,0-12.204-5.475-12.204-12.204V32.373c0-6.729,5.475-12.204,12.204-12.204H168.627 M180.5,0.5h-160
		c-11.046,0-20,8.954-20,20v160c0,11.046,8.954,20,20,20h160c11.046,0,20-8.954,20-20v-160C200.5,9.454,191.546,0.5,180.5,0.5
		L180.5,0.5z"/>
</g>
<g id="Delete__x2F__Trash">
	<path fill="#FFFFFF" d="M60.158,162.083c0,0,2.17,9.886,13.338,9.886h50.498c11.168,0,13.337-9.886,13.337-9.886l9.97-96.936
		h-97.11L60.158,162.083z M118.168,79.714c0-2.682,2.172-4.855,4.854-4.855c2.682,0,4.855,2.174,4.855,4.855l-4.855,72.834
		c0,2.681-2.174,4.854-4.854,4.854c-2.683,0-4.857-2.174-4.857-4.854L118.168,79.714z M93.89,79.714
		c0-2.682,2.173-4.855,4.854-4.855c2.682,0,4.855,2.174,4.855,4.855v72.834c0,2.681-2.174,4.854-4.855,4.854
		c-2.681,0-4.854-2.174-4.854-4.854V79.714z M74.467,74.858c2.682,0,4.855,2.174,4.855,4.855l4.856,72.834
		c0,2.682-2.173,4.855-4.856,4.855c-2.681,0-4.855-2.174-4.855-4.855l-4.855-72.833C69.611,77.032,71.786,74.858,74.467,74.858z
		 M144.387,45.732h-21.364v-9.718c0-7.367-2.383-9.712-9.712-9.712H84.178c-6.722,0-9.711,3.256-9.711,9.712v9.719H53.103
		c-4.293,0-7.769,3.259-7.769,7.287c0,4.028,3.475,7.288,7.769,7.288h91.284c4.294,0,7.769-3.26,7.769-7.288
		C152.155,48.992,148.681,45.732,144.387,45.732z M113.311,45.732H84.178l0-9.719h29.133L113.311,45.732L113.311,45.732z"/>
</g>
</svg>
