<?xml version="1.0" encoding="utf-8"?>
<!-- Generator: Adobe Illustrator 15.1.0, SVG Export Plug-In . SVG Version: 6.00 Build 0)  -->
<!DOCTYPE svg PUBLIC "-//W3C//DTD SVG 1.1//EN" "http://www.w3.org/Graphics/SVG/1.1/DTD/svg11.dtd">
<svg version="1.1" id="Calque_1" xmlns="http://www.w3.org/2000/svg" xmlns:xlink="http://www.w3.org/1999/xlink" x="0px" y="0px"
	 width="200px" height="200px" viewBox="0 0 200 200" enable-background="new 0 0 200 200" xml:space="preserve">
<g>
	<path fill="#8ABA2F" d="M200.5,180.5c0,11.046-8.954,20-20,20h-160c-11.046,0-20-8.954-20-20v-160c0-11.046,8.954-20,20-20h160
		c11.046,0,20,8.954,20,20V180.5z"/>
	<path fill="#1A171B" d="M168.627,20.169c6.729,0,12.204,5.475,12.204,12.204v136.254c0,6.729-5.475,12.204-12.204,12.204H32.373
		c-6.729,0-12.204-5.475-12.204-12.204V32.373c0-6.729,5.475-12.204,12.204-12.204H168.627 M180.5,0.5h-160
		c-11.046,0-20,8.954-20,20v160c0,11.046,8.954,20,20,20h160c11.046,0,20-8.954,20-20v-160C200.5,9.454,191.546,0.5,180.5,0.5
		L180.5,0.5z"/>
</g>
<g>
	<path fill="#FFFFFF" d="M50.526,115.793c-0.311,0-0.585-0.104-0.823-0.311c-0.238-0.207-0.409-0.616-0.513-1.227
		c-0.104-0.611-0.155-2.273-0.155-4.986v-9.661c0-2.754-0.187-4.577-0.559-5.467c-0.58-1.367-1.481-2.371-2.703-3.013
		c-1.615-0.849-3.687-1.274-6.213-1.274c-3.293,0-5.851,0.746-7.673,2.237s-2.733,3.127-2.733,4.908c0,0.932,0.243,1.667,0.73,2.206
		c0.486,0.539,1.113,0.808,1.879,0.808c0.787,0,1.424-0.259,1.911-0.776c0.486-0.518,0.73-1.253,0.73-2.206l-0.063-1.802
		c0-0.912,0.393-1.719,1.181-2.423c0.766-0.704,1.802-1.056,3.106-1.056c1.719,0,3.029,0.528,3.93,1.584s1.352,3.003,1.352,5.84
		v1.118c-4.888,1.781-8.383,3.293-10.484,4.535c-2.102,1.243-3.578,2.568-4.427,3.977c-0.622,1.015-0.932,2.216-0.932,3.604
		c0,2.195,0.637,3.966,1.911,5.313c1.273,1.346,2.894,2.019,4.861,2.019c1.263,0,2.454-0.259,3.573-0.776
		c0.746-0.352,2.578-1.657,5.499-3.914c0.02,1.698,0.331,2.899,0.932,3.604c0.601,0.704,1.409,1.057,2.423,1.057
		c2.112,0,4.328-1.554,6.648-4.66v-1.739c-1.243,1.242-2.082,1.998-2.517,2.268C51.147,115.721,50.857,115.793,50.526,115.793z
		 M43.91,113.028c-2.568,2.071-4.64,3.106-6.213,3.106c-1.161,0-2.186-0.491-3.076-1.476c-0.891-0.983-1.336-2.221-1.336-3.712
		c0-1.181,0.352-2.268,1.056-3.262s1.875-1.947,3.511-2.858c0.911-0.518,2.93-1.397,6.058-2.64V113.028z"/>
	<path fill="#FFFFFF" d="M72.738,89.854c-3.189,0-6.162,1.916-8.916,5.747V74.974h-1.398l-8.543,3.479l0.435,1.087
		c0.87-0.331,1.595-0.497,2.174-0.497c0.497,0,0.911,0.135,1.243,0.404c0.331,0.27,0.575,0.777,0.73,1.522s0.233,2.733,0.233,5.964
		v29.481c1.781,1.201,3.526,2.102,5.234,2.702c1.709,0.601,3.391,0.901,5.048,0.901c3.542,0,6.751-1.326,9.63-3.977
		c3.355-3.086,5.033-7.155,5.033-12.209c0-4.328-1.087-7.74-3.262-10.235C78.205,91.102,75.658,89.854,72.738,89.854z
		 M75.829,114.644c-1.626,2.071-3.381,3.106-5.265,3.106c-1.181,0-2.335-0.264-3.464-0.792c-1.129-0.528-2.221-1.31-3.277-2.345
		V97.589c1.284-1.243,2.34-2.071,3.168-2.485c1.098-0.559,2.195-0.839,3.293-0.839c2.07,0,3.919,0.979,5.545,2.936
		c1.626,1.957,2.439,4.758,2.439,8.403C78.268,109.56,77.455,112.573,75.829,114.644z"/>
	<path fill="#FFFFFF" d="M107.779,113.091c-1.615,1.388-3.438,2.081-5.468,2.081c-2.837,0-5.089-1.3-6.756-3.898
		c-1.667-2.6-2.501-5.597-2.501-8.993c0-3.334,0.839-6.016,2.516-8.046c1.264-1.533,2.931-2.299,5.002-2.299
		c1.284,0,2.288,0.311,3.013,0.932c0.726,0.642,1.145,1.574,1.259,2.796c0.113,1.223,0.347,2.05,0.698,2.485
		c0.622,0.788,1.543,1.181,2.766,1.181c0.911,0,1.62-0.244,2.128-0.73c0.507-0.486,0.761-1.124,0.761-1.911
		c0-1.595-0.901-3.132-2.703-4.613c-1.802-1.48-4.101-2.221-6.896-2.221c-3.728,0-6.922,1.398-9.583,4.194
		s-3.992,6.431-3.992,10.904c0,4.618,1.201,8.283,3.604,10.996c2.402,2.714,5.219,4.07,8.45,4.07c2.713,0,5.188-1.01,7.424-3.029
		c2.237-2.02,3.738-4.903,4.505-8.651l-0.901-0.435C110.026,110.409,108.918,112.138,107.779,113.091z"/>
	<path fill="#FFFFFF" d="M143.473,115.948c-0.456,0-0.854-0.145-1.196-0.435s-0.59-0.803-0.745-1.538
		c-0.155-0.734-0.233-2.77-0.233-6.104V74.974H139.9l-8.48,3.479l0.403,1.087c0.891-0.331,1.605-0.497,2.144-0.497
		c0.497,0,0.911,0.135,1.242,0.404c0.332,0.27,0.575,0.777,0.73,1.522s0.233,2.744,0.233,5.995v5.25
		c-1.637-1.594-3.707-2.392-6.214-2.392c-4.038,0-7.341,1.693-9.909,5.079c-2.568,3.386-3.853,7.119-3.853,11.199
		c0,4.079,1.16,7.419,3.479,10.018c2.319,2.6,5.032,3.899,8.14,3.899c1.532,0,2.961-0.316,4.286-0.948
		c1.326-0.631,2.683-1.672,4.07-3.122v4.07h1.429l8.449-3.511l-0.342-1.087C144.777,115.772,144.032,115.948,143.473,115.948z
		 M136.173,113.774c-1.761,1.885-3.583,2.826-5.468,2.826c-2.236,0-4.267-1.112-6.089-3.339s-2.733-5.432-2.733-9.615
		c0-4.142,0.942-7.289,2.826-9.443c1.43-1.636,3.056-2.454,4.878-2.454c0.973,0,1.973,0.295,2.997,0.885
		c1.025,0.59,1.849,1.465,2.47,2.625c0.622,1.16,0.994,2.444,1.119,3.852V113.774z"/>
	<path fill="#FFFFFF" d="M167.905,113.417c-1.377,1.025-2.998,1.538-4.861,1.538c-2.796,0-5.229-1.201-7.301-3.604
		c-2.071-2.402-3.096-5.716-3.075-9.94h19.664c0-3.521-1.025-6.332-3.075-8.434c-2.051-2.102-4.67-3.153-7.859-3.153
		c-3.77,0-6.902,1.362-9.397,4.085s-3.743,6.519-3.743,11.385c0,4.494,1.217,8.072,3.65,10.733c2.433,2.661,5.358,3.992,8.775,3.992
		c3.148,0,5.768-1.165,7.859-3.495s3.355-4.913,3.79-7.751l-0.963-0.621C170.438,110.637,169.282,112.392,167.905,113.417z
		 M155.044,94.032c1.357-1.335,2.895-2.003,4.613-2.003c1.118,0,2.19,0.331,3.216,0.994c1.024,0.663,1.796,1.574,2.314,2.733
		c0.331,0.746,0.549,2.03,0.652,3.852h-13.172C152.896,97.228,153.688,95.368,155.044,94.032z"/>
</g>
</svg>
