<?xml version="1.0" encoding="utf-8"?>
<!-- Generator: Adobe Illustrator 15.1.0, SVG Export Plug-In . SVG Version: 6.00 Build 0)  -->
<!DOCTYPE svg PUBLIC "-//W3C//DTD SVG 1.1//EN" "http://www.w3.org/Graphics/SVG/1.1/DTD/svg11.dtd">
<svg version="1.1" id="Calque_1" xmlns="http://www.w3.org/2000/svg" xmlns:xlink="http://www.w3.org/1999/xlink" x="0px" y="0px"
	 width="200px" height="200px" viewBox="0 0 200 200" enable-background="new 0 0 200 200" xml:space="preserve">
<g>
	<path fill="#8ABA2F" d="M200.5,180.5c0,11.046-8.954,20-20,20h-160c-11.046,0-20-8.954-20-20v-160c0-11.046,8.954-20,20-20h160
		c11.046,0,20,8.954,20,20V180.5z"/>
	<path fill="#1A171B" d="M168.627,20.169c6.729,0,12.204,5.475,12.204,12.204v136.254c0,6.729-5.475,12.204-12.204,12.204H32.373
		c-6.729,0-12.204-5.475-12.204-12.204V32.373c0-6.729,5.475-12.204,12.204-12.204H168.627 M180.5,0.5h-160
		c-11.046,0-20,8.954-20,20v160c0,11.046,8.954,20,20,20h160c11.046,0,20-8.954,20-20v-160C200.5,9.454,191.546,0.5,180.5,0.5
		L180.5,0.5z"/>
</g>
<g>
	<path fill="#FFFFFF" d="M51.084,82.095c-2.844-1.702-5.439-2.378-7.783-2.031c-2.344,0.346-3.977,1.289-4.896,2.828
		c-0.481,0.805-0.651,1.566-0.509,2.282c0.143,0.716,0.545,1.273,1.207,1.668c0.68,0.406,1.363,0.512,2.051,0.316
		c0.688-0.196,1.278-0.706,1.77-1.528l0.877-1.589c0.471-0.787,1.228-1.282,2.271-1.482c1.025-0.212,2.103,0.018,3.229,0.692
		c1.485,0.888,2.343,2.021,2.576,3.398c0.233,1.378-0.383,3.292-1.849,5.743l-0.578,0.966c-5.143-0.986-8.941-1.487-11.398-1.499
		c-2.458-0.012-4.417,0.371-5.878,1.149c-1.061,0.555-1.95,1.432-2.667,2.63c-1.134,1.896-1.499,3.755-1.093,5.576
		c0.404,1.819,1.457,3.239,3.156,4.255c1.091,0.652,2.253,1.044,3.487,1.175c0.825,0.081,3.083-0.1,6.771-0.541
		c-0.859,1.477-1.212,2.675-1.057,3.594s0.671,1.64,1.547,2.164c1.825,1.091,4.541,0.895,8.149-0.593l0.898-1.502
		c-1.715,0.433-2.83,0.651-3.345,0.66c-0.29-0.004-0.578-0.091-0.864-0.262c-0.268-0.16-0.453-0.392-0.551-0.693
		c-0.099-0.302-0.035-0.743,0.191-1.326c0.226-0.58,1.04-2.042,2.441-4.385l4.99-8.346c1.423-2.379,2.203-4.05,2.341-5.011
		c0.206-1.48-0.054-2.814-0.777-3.999C54.836,84.836,53.267,83.399,51.084,82.095z M42.872,104.358
		c-3.289,0.462-5.613,0.286-6.972-0.526c-1.002-0.599-1.633-1.553-1.894-2.862c-0.261-1.31-0.007-2.608,0.763-3.897
		c0.61-1.02,1.476-1.777,2.597-2.271c1.122-0.496,2.624-0.713,4.508-0.655c1.054,0.023,3.253,0.306,6.597,0.848L42.872,104.358z"/>
	<path fill="#FFFFFF" d="M76.954,94.023c-3.113-0.783-6.483,0.357-10.112,3.42l5.064-20.133l-1.364-0.343l-9.192,1.299l0.157,1.168
		c0.93-0.11,1.679-0.095,2.244,0.048c0.485,0.122,0.856,0.356,1.114,0.7c0.257,0.344,0.37,0.899,0.338,1.665
		c-0.031,0.765-0.444,2.726-1.236,5.879L56.729,116.5c1.444,1.608,2.925,2.916,4.446,3.922c1.52,1.005,3.088,1.713,4.706,2.119
		c3.457,0.87,6.916,0.364,10.375-1.517c4.032-2.188,6.669-5.749,7.909-10.681c1.063-4.226,0.839-7.821-0.67-10.792
		C81.985,96.583,79.804,94.739,76.954,94.023z M78.485,110.753c-0.972,3.86-2.505,6.602-4.6,8.224
		c-2.095,1.622-4.063,2.202-5.902,1.738c-1.152-0.287-2.214-0.83-3.186-1.622s-1.846-1.823-2.623-3.094l4.18-16.615
		c1.558-0.898,2.793-1.447,3.703-1.648c1.208-0.276,2.348-0.28,3.419-0.009c2.021,0.508,3.585,1.917,4.691,4.226
		S79.379,107.195,78.485,110.753z"/>
	<path fill="#FFFFFF" d="M108.323,120.763c-1.626,1.396-3.46,2.095-5.503,2.095c-2.855,0-5.123-1.309-6.8-3.924
		c-1.678-2.616-2.517-5.634-2.517-9.052c0-3.355,0.844-6.055,2.533-8.098c1.271-1.542,2.949-2.313,5.034-2.313
		c1.292,0,2.303,0.313,3.032,0.938c0.729,0.646,1.151,1.584,1.267,2.813c0.114,1.23,0.349,2.063,0.703,2.501
		c0.625,0.792,1.553,1.188,2.782,1.188c0.917,0,1.631-0.245,2.143-0.734c0.51-0.49,0.766-1.131,0.766-1.923
		c0-1.604-0.906-3.153-2.721-4.644c-1.813-1.49-4.127-2.235-6.94-2.235c-3.751,0-6.967,1.407-9.645,4.22
		c-2.678,2.814-4.018,6.473-4.018,10.974c0,4.648,1.208,8.338,3.627,11.068c2.417,2.73,5.252,4.096,8.503,4.096
		c2.731,0,5.222-1.016,7.473-3.048s3.762-4.935,4.533-8.708l-0.906-0.438C110.585,118.063,109.47,119.804,108.323,120.763z"/>
	<path fill="#FFFFFF" d="M146.938,114.718c-0.442,0.12-0.867,0.086-1.277-0.104c-0.407-0.19-0.785-0.623-1.131-1.296
		s-0.96-2.627-1.845-5.864l-8.724-31.939l-1.356,0.371l-7.311,5.626l0.68,0.949c0.776-0.559,1.426-0.909,1.949-1.052
		c0.482-0.131,0.921-0.111,1.313,0.063s0.764,0.602,1.113,1.285c0.348,0.683,0.953,2.602,1.815,5.759l1.392,5.097
		c-2.011-1.115-4.233-1.339-6.666-0.674c-3.921,1.07-6.68,3.59-8.274,7.558c-1.595,3.968-1.852,7.934-0.771,11.895
		c1.082,3.961,3.094,6.896,6.034,8.804c2.94,1.909,5.92,2.45,8.937,1.627c1.487-0.406,2.791-1.091,3.911-2.057
		c1.118-0.965,2.159-2.334,3.122-4.109l1.08,3.95l1.387-0.379l7.272-5.648l-0.62-0.965
		C148.158,114.201,147.48,114.569,146.938,114.718z M134.716,118.736c-2.172,0.594-4.437,0.051-6.797-1.628
		c-2.359-1.678-4.095-4.548-5.203-8.608c-1.099-4.022-1.019-7.328,0.24-9.919c0.954-1.967,2.314-3.193,4.084-3.676
		c0.945-0.258,1.993-0.237,3.145,0.064c1.153,0.302,2.184,0.933,3.095,1.895c0.911,0.961,1.612,2.108,2.107,3.442l3.888,14.237
		C138.065,116.839,136.545,118.237,134.716,118.736z"/>
	<path fill="#FFFFFF" d="M171.261,92.108l-1.153-0.027c0.507,2.623,0.438,4.736-0.204,6.34c-0.643,1.604-1.764,2.895-3.363,3.875
		c-2.399,1.471-5.119,1.72-8.159,0.746c-3.041-0.973-5.662-3.277-7.866-6.913l16.874-10.34c-1.852-3.021-4.208-4.895-7.074-5.621
		c-2.864-0.726-5.666-0.25-8.401,1.427c-3.236,1.982-5.208,4.797-5.916,8.447c-0.71,3.649,0.215,7.562,2.773,11.738
		c2.362,3.856,5.289,6.288,8.777,7.292c3.487,1.004,6.697,0.607,9.629-1.189c2.701-1.655,4.335-4.032,4.907-7.132
		C172.653,97.653,172.379,94.771,171.261,92.108z M148.674,88.548c0.462-1.859,1.432-3.241,2.905-4.145
		c0.961-0.588,2.054-0.868,3.283-0.838c1.228,0.03,2.369,0.406,3.424,1.129c0.675,0.466,1.536,1.453,2.584,2.963l-11.302,6.925
		C148.51,92.419,148.214,90.408,148.674,88.548z"/>
</g>
</svg>
