<?xml version="1.0" encoding="utf-8"?>
<!-- Generator: Adobe Illustrator 15.1.0, SVG Export Plug-In . SVG Version: 6.00 Build 0)  -->
<!DOCTYPE svg PUBLIC "-//W3C//DTD SVG 1.1//EN" "http://www.w3.org/Graphics/SVG/1.1/DTD/svg11.dtd">
<svg version="1.1" id="Calque_1" xmlns="http://www.w3.org/2000/svg" xmlns:xlink="http://www.w3.org/1999/xlink" x="0px" y="0px"
	 width="200px" height="200px" viewBox="0 0 200 200" enable-background="new 0 0 200 200" xml:space="preserve">
<g>
	<path fill="#8ABA2F" d="M200.5,180.5c0,11.046-8.954,20-20,20h-160c-11.046,0-20-8.954-20-20v-160c0-11.046,8.954-20,20-20h160
		c11.046,0,20,8.954,20,20V180.5z"/>
	<path fill="#1A171B" d="M168.627,20.169c6.729,0,12.204,5.475,12.204,12.204v136.254c0,6.729-5.475,12.204-12.204,12.204H32.373
		c-6.729,0-12.204-5.475-12.204-12.204V32.373c0-6.729,5.475-12.204,12.204-12.204H168.627 M180.5,0.5h-160
		c-11.046,0-20,8.954-20,20v160c0,11.046,8.954,20,20,20h160c11.046,0,20-8.954,20-20v-160C200.5,9.454,191.546,0.5,180.5,0.5
		L180.5,0.5z"/>
</g>
<g>
	<path fill="#FFFFFF" d="M56.981,113.617c-0.139,0.264-0.356,0.487-0.648,0.669c-0.273,0.171-0.573,0.229-0.896,0.178
		c-0.323-0.052-0.699-0.319-1.125-0.802c-0.428-0.48-1.385-1.918-2.874-4.313l-5.304-8.521c-1.511-2.43-2.676-3.936-3.495-4.516
		c-1.261-0.887-2.607-1.279-4.037-1.174c-1.891,0.137-3.951,0.899-6.18,2.286c-2.905,1.808-4.751,3.87-5.541,6.185
		c-0.789,2.315-0.696,4.259,0.282,5.829c0.512,0.823,1.129,1.338,1.855,1.546c0.725,0.208,1.425,0.101,2.1-0.318
		c0.695-0.433,1.116-1.01,1.261-1.734c0.144-0.724-0.045-1.506-0.566-2.347l-1.044-1.555c-0.5-0.804-0.596-1.732-0.289-2.785
		c0.29-1.041,1.01-1.921,2.161-2.638c1.516-0.943,2.961-1.196,4.336-0.759c1.374,0.437,2.84,1.906,4.396,4.41l0.615,0.986
		c-3.335,4.254-5.587,7.505-6.76,9.756c-1.172,2.25-1.747,4.229-1.722,5.937c0.009,1.237,0.395,2.467,1.156,3.689
		c1.205,1.938,2.739,3.151,4.601,3.638c1.863,0.49,3.661,0.193,5.396-0.887c1.114-0.692,2.022-1.575,2.726-2.646
		c0.464-0.72,1.364-2.877,2.702-6.472c0.949,1.488,1.883,2.377,2.799,2.667c0.917,0.293,1.822,0.16,2.717-0.397
		c1.864-1.16,2.967-3.746,3.308-7.76l-0.955-1.533C57.541,112.014,57.217,113.141,56.981,113.617z M45.204,121.63
		c-1.024,0.637-2.199,0.766-3.524,0.387c-1.325-0.38-2.397-1.227-3.215-2.542c-0.649-1.041-0.934-2.194-0.858-3.457
		c0.075-1.263,0.584-2.746,1.527-4.447c0.52-0.957,1.818-2.842,3.895-5.654l5.95,9.563C47.85,118.715,46.591,120.767,45.204,121.63z
		"/>
	<path fill="#FFFFFF" d="M77.236,82.456c-2.838-1.941-5.726-2.531-8.662-1.77c-3.208,0.833-5.696,3.535-7.466,8.106L55.725,68.05
		l-1.406,0.365l-7.683,5.729l0.722,0.979c0.788-0.56,1.474-0.916,2.057-1.068c0.5-0.13,0.952-0.102,1.355,0.082
		c0.403,0.185,0.779,0.631,1.13,1.341c0.352,0.709,0.949,2.688,1.792,5.938l7.695,29.646c2.104,0.743,4.094,1.193,5.969,1.352
		s3.646,0.021,5.312-0.412c3.561-0.925,6.443-3.094,8.646-6.512c2.568-3.979,3.194-8.509,1.875-13.59
		C82.058,87.545,80.074,84.397,77.236,82.456z M78.152,104.81c-1.094,2.506-2.588,4.006-4.483,4.497
		c-1.187,0.308-2.417,0.345-3.691,0.107c-1.272-0.236-2.575-0.738-3.907-1.504l-4.444-17.118c0.967-1.584,1.813-2.694,2.538-3.326
		c0.957-0.849,1.988-1.417,3.093-1.703c2.082-0.541,4.196-0.04,6.342,1.504c2.146,1.543,3.694,4.148,4.646,7.814
		C79.278,99.059,79.247,102.302,78.152,104.81z"/>
	<path fill="#FFFFFF" d="M106.531,98.277c-1.678,1.441-3.571,2.162-5.68,2.162c-2.949,0-5.289-1.35-7.021-4.051
		c-1.732-2.7-2.598-5.814-2.598-9.343c0-3.464,0.872-6.25,2.614-8.359c1.313-1.592,3.044-2.388,5.196-2.388
		c1.334,0,2.376,0.323,3.13,0.968c0.753,0.667,1.189,1.635,1.308,2.905s0.36,2.13,0.726,2.582c0.646,0.817,1.604,1.227,2.872,1.227
		c0.947,0,1.685-0.253,2.211-0.758c0.527-0.506,0.792-1.167,0.792-1.985c0-1.656-0.938-3.254-2.809-4.792
		c-1.872-1.539-4.261-2.308-7.165-2.308c-3.873,0-7.192,1.453-9.957,4.357c-2.765,2.905-4.147,6.681-4.147,11.329
		c0,4.799,1.248,8.607,3.744,11.426c2.496,2.819,5.422,4.228,8.778,4.228c2.819,0,5.389-1.049,7.714-3.146
		c2.323-2.098,3.884-5.094,4.68-8.988l-0.937-0.452C108.865,95.49,107.715,97.287,106.531,98.277z"/>
	<path fill="#FFFFFF" d="M138.379,109.761c-0.459-0.118-0.822-0.366-1.092-0.746c-0.27-0.379-0.389-0.959-0.355-1.739
		c0.032-0.779,0.478-2.849,1.334-6.205l8.458-33.115l-1.408-0.359l-9.431,1.321l0.127,1.199c0.981-0.105,1.743-0.088,2.286,0.051
		c0.501,0.127,0.883,0.369,1.146,0.726s0.38,0.929,0.345,1.72c-0.037,0.79-0.473,2.822-1.308,6.096l-1.35,5.285
		c-1.237-2.026-3.116-3.361-5.64-4.006c-4.065-1.038-7.826-0.183-11.281,2.565s-5.708,6.176-6.757,10.283
		c-1.049,4.107-0.74,7.766,0.927,10.979c1.666,3.213,4.063,5.218,7.191,6.018c1.543,0.393,3.063,0.443,4.559,0.148
		c1.496-0.296,3.129-0.994,4.899-2.097l-1.047,4.096l1.438,0.368l9.408-1.361l-0.064-1.183
		C139.737,109.918,138.942,109.905,138.379,109.761z M135.358,90.935l-3.77,14.76c-2.256,1.444-4.334,1.924-6.23,1.439
		c-2.252-0.575-4.009-2.217-5.271-4.928c-1.263-2.708-1.355-6.169-0.28-10.381c1.066-4.169,2.823-7.095,5.274-8.778
		c1.859-1.28,3.705-1.686,5.54-1.217c0.979,0.25,1.91,0.804,2.79,1.661c0.879,0.858,1.483,1.951,1.812,3.278
		C135.551,88.097,135.596,89.485,135.358,90.935z"/>
	<path fill="#FFFFFF" d="M171.381,112.982c1.925-3.109,2.558-6.154,1.896-9.132c-0.663-2.979-2.402-5.339-5.22-7.083
		c-3.33-2.061-6.842-2.57-10.535-1.529c-3.694,1.042-6.871,3.711-9.532,8.011c-2.457,3.971-3.338,7.797-2.645,11.479
		c0.696,3.68,2.552,6.455,5.571,8.323c2.781,1.721,5.732,2.125,8.854,1.21c3.122-0.914,5.649-2.506,7.587-4.774l-0.512-1.075
		c-2.182,1.686-4.161,2.604-5.939,2.757c-1.777,0.152-3.488-0.279-5.134-1.3c-2.471-1.527-3.965-3.92-4.481-7.174
		c-0.515-3.255,0.392-6.743,2.719-10.464L171.381,112.982z M160.144,97.013c1.928-0.439,3.651-0.188,5.171,0.752
		c0.987,0.611,1.752,1.49,2.296,2.636c0.544,1.146,0.727,2.373,0.55,3.681c-0.116,0.839-0.624,2.092-1.529,3.759l-11.636-7.202
		C156.497,98.66,158.214,97.451,160.144,97.013z"/>
</g>
</svg>
