<?xml version="1.0" encoding="utf-8"?>
<!-- Generator: Adobe Illustrator 15.1.0, SVG Export Plug-In . SVG Version: 6.00 Build 0)  -->
<!DOCTYPE svg PUBLIC "-//W3C//DTD SVG 1.1//EN" "http://www.w3.org/Graphics/SVG/1.1/DTD/svg11.dtd">
<svg version="1.1" xmlns="http://www.w3.org/2000/svg" xmlns:xlink="http://www.w3.org/1999/xlink" x="0px" y="0px" width="50px"
	 height="50px" viewBox="0 0 50 50" enable-background="new 0 0 50 50" xml:space="preserve">
<g id="Calque_1">
	<circle opacity="0.5" fill="#00A4D6" cx="25" cy="25" r="25"/>
</g>
<g id="Calque_2">
	<path fill="#FFFFFF" d="M49.185,23.435c-0.718-0.718-6.209-4.869-7.48-5.827c-0.3-0.277-0.834-0.661-1.503-0.661
		c-0.446,0-0.864,0.173-1.177,0.486c-0.367,0.368-0.553,0.889-0.551,1.547v1.669l-6.289,0.002l-2.601-0.002
		c-0.06,0-0.146,0.005-0.247,0.02c0.021-0.149,0.031-0.299,0.015-0.45l0.003-8.871l1.93-0.04c1.202,0,1.627-0.739,1.754-1.057
		c0.279-0.701,0.048-1.487-0.635-2.169l-5.898-7.125c-0.153-0.182-0.726-0.774-1.625-0.774c-0.377,0-0.937,0.109-1.457,0.628
		c-0.724,0.724-4.857,6.204-5.821,7.485c-0.619,0.659-0.822,1.45-0.541,2.135c0.167,0.409,0.638,1.094,1.908,1.094l1.672,0.001
		l-0.004,8.851c-0.001,0.042,0.008,0.084,0.01,0.127c-0.079-0.011-0.158-0.023-0.24-0.023l-0.259,0.008c-1.965,0-6.35,0-8.807-0.004
		l-0.032,0v-1.918c0.001-0.586-0.172-1.059-0.516-1.403c-0.303-0.303-0.707-0.47-1.139-0.47c-0.694,0-1.257,0.442-1.567,0.752
		l-7.134,5.895c-0.171,0.147-0.733,0.691-0.767,1.544c-0.022,0.561,0.199,1.103,0.623,1.526c0.727,0.728,6.214,4.872,7.487,5.831
		c0.299,0.278,0.832,0.66,1.5,0.66c0.445,0,0.863-0.172,1.176-0.485c0.367-0.367,0.553-0.889,0.552-1.547l0-1.668l1.28,0.001
		l7.609-0.004c0.024,0,0.067-0.005,0.099-0.007c-0.043,0.19-0.061,0.387-0.04,0.582v8.913l-1.926-0.002
		c-1.206,0.002-1.63,0.742-1.757,1.061c-0.279,0.701-0.048,1.487,0.633,2.169l5.901,7.127c0.153,0.182,0.724,0.771,1.621,0.771
		c0.379,0,0.939-0.109,1.458-0.63c0.723-0.722,4.86-6.202,5.823-7.48c0.618-0.659,0.819-1.449,0.538-2.135
		c-0.168-0.408-0.638-1.093-1.912-1.095l-1.325,0.001l-0.336-0.001l-0.001-1.052c-0.003-2.563-0.008-6.273-0.006-7.791
		c0.003-0.106-0.008-0.213-0.024-0.319c0.135,0.032,0.273,0.054,0.416,0.054l0.27-0.01c1.151,0.004,3.119,0.005,5.045,0.005
		l3.796,0.003c0,0.688,0,1.462-0.001,1.926c0.004,1.283,0.863,1.867,1.66,1.867c0.694,0,1.26-0.442,1.569-0.751l7.134-5.894
		c0.171-0.147,0.731-0.695,0.762-1.55C49.833,24.401,49.608,23.856,49.185,23.435z M19.418,25.312c0,0.378-0.001,0.743-0.001,1.055
		l-6.61,0.003l-4.112-0.009l-0.002,2.627c-2.128-1.613-4.198-3.207-5.232-4.038l5.018-4.146l0,2.518l1.413,0.005l1.462-0.005
		c2.176,0.003,5.891,0.004,8.068,0.004C19.42,23.887,19.419,24.624,19.418,25.312z M27.748,26.626v0.685
		c0,0.191,0.02,0.363,0.05,0.52c-0.179-0.047-0.365-0.08-0.563-0.08h-1.933c-1.104,0-2.337-0.001-2.777-0.003
		c-0.127,0-0.228,0.024-0.34,0.038c0.04-0.162,0.068-0.338,0.066-0.54c-0.001-0.245,0-1.047,0.001-1.93
		c0.001-1.11,0.002-2.348,0-2.769c0-0.123-0.019-0.224-0.032-0.332c0.112,0.02,0.223,0.041,0.353,0.043l0.016,0h0.016
		c0.458-0.003,2.853-0.005,4.097-0.005l0.599,0c0.183,0,0.337-0.027,0.488-0.055c-0.022,0.126-0.042,0.256-0.041,0.403
		C27.747,23.048,27.747,25.355,27.748,26.626z M24.893,3.455l4.156,5.021L26.522,8.48l-0.005,10.938
		c-0.872,0-2.165,0.001-3.044,0.002l0.004-8.002l-0.011-2.721l-2.61-0.003C22.47,6.561,24.063,4.488,24.893,3.455z M24.937,46.544
		l-4.156-5.02l2.536,0.003L23.31,30.584c0.564,0,1.303,0.001,1.993,0.001h1.049c0,1.825,0.003,4.726,0.006,6.842l0.002,1.157
		l-0.014,2.725l2.629,0.002C27.359,43.44,25.766,45.512,24.937,46.544z M41.522,29.056c0-0.625-0.001-1.113-0.001-1.113l-0.001-1.42
		l-2.869,0.009l-3.757-0.003c-1.563-0.001-3.154-0.002-4.313-0.004c0-0.871,0-2.16,0-3.039l1.603,0.001l6.394-0.001l2.729,0.009
		l0.002-2.632c2.132,1.618,4.205,3.214,5.237,4.044L41.522,29.056z"/>
</g>
<g id="Calque_2_-_copie">
	<g>
		<path fill="#020202" d="M1.876,24.42l7.175-5.929c0,0,0.845-0.899,0.843,0.074c0.001,0.98,0,3.344,0,3.344s0.578,0.002,1.46-0.005
			c2.521,0.004,7.107,0.004,8.973,0.004c0,0,0.509-0.13,0.508,0.636c0.004,0.772-0.004,4.154-0.001,4.707
			c0.004,0.543-0.42,0.533-0.42,0.533c-1.814,0-6.559,0.005-8.998,0.003c-0.791-0.005-1.307-0.006-1.307-0.006
			s-0.002,1.9-0.001,3.092c0.002,1.186-0.89,0.29-0.89,0.29s-6.698-5.044-7.405-5.752C1.308,24.905,1.876,24.42,1.876,24.42z"/>
		<path fill="#020202" d="M48.126,25.439l-7.17,5.923c0,0-0.849,0.899-0.852-0.075c0.003-0.973,0-3.343,0-3.343
			s-0.573,0.002-1.455,0.004c-2.524-0.004-7.109-0.002-8.98-0.009c0,0-0.505,0.143-0.504-0.627c0-0.771-0.001-4.155,0.001-4.707
			c-0.003-0.549,0.42-0.538,0.42-0.538c1.814,0.004,6.563,0,8.996,0c0.79,0.002,1.309,0.004,1.309,0.004s0.002-1.902,0-3.093
			c-0.003-1.186,0.894-0.289,0.894-0.289s6.7,5.049,7.397,5.747C48.696,24.948,48.126,25.439,48.126,25.439z"/>
		<path fill="#020202" d="M24.407,48.127l-5.937-7.171c0,0-0.895-0.85,0.083-0.852c0.973,0.002,3.343,0.004,3.343,0.004
			s-0.001-0.574-0.003-1.458c0-2.521,0-7.107,0-8.982c0,0-0.132-0.502,0.636-0.504c0.773,0.005,4.158,0.003,4.707,0.003
			c0.547-0.002,0.534,0.423,0.534,0.423c-0.003,1.816,0.004,6.56,0.007,8.998c-0.002,0.791-0.005,1.305-0.005,1.305
			s1.898,0.002,3.085,0c1.189,0.002,0.293,0.89,0.293,0.89s-5.043,6.698-5.746,7.401C24.891,48.697,24.407,48.127,24.407,48.127z"/>
		<path fill="#020202" d="M25.424,1.875l5.935,7.17c0,0,0.896,0.849-0.079,0.847c-0.982,0-3.343,0.003-3.343,0.003
			s-0.001,0.575,0,1.456c-0.001,2.521-0.002,7.109-0.003,8.979c0,0,0.135,0.504-0.635,0.505c-0.771-0.001-4.149,0.001-4.704,0.005
			c-0.551-0.009-0.541-0.427-0.541-0.427c0.002-1.816,0.002-6.561,0.004-8.996c0-0.793-0.003-1.306-0.003-1.306
			s-1.895-0.002-3.087-0.002c-1.188,0-0.288-0.888-0.288-0.888s5.039-6.701,5.744-7.406C24.939,1.303,25.424,1.875,25.424,1.875z"/>
	</g>
</g>
</svg>
