<?xml version="1.0" encoding="utf-8"?>
<!-- Generator: Adobe Illustrator 15.1.0, SVG Export Plug-In . SVG Version: 6.00 Build 0)  -->
<!DOCTYPE svg PUBLIC "-//W3C//DTD SVG 1.1//EN" "http://www.w3.org/Graphics/SVG/1.1/DTD/svg11.dtd">
<svg version="1.1" id="Calque_1" xmlns="http://www.w3.org/2000/svg" xmlns:xlink="http://www.w3.org/1999/xlink" x="0px" y="0px"
	 width="25px" height="25px" viewBox="0 0 25 25" enable-background="new 0 0 25 25" xml:space="preserve">
<g>
	<g>
		<path fill="#FFFFFF" d="M10.203,13.731c-0.496,0-0.967-0.196-1.327-0.553l-3.77-3.771l-1.064,1.065
			c-0.904,0.903-2.395,0.899-3.296,0.001c-0.451-0.45-0.689-1.02-0.689-1.649V2.394c0-0.628,0.238-1.199,0.688-1.649
			c0.45-0.45,1.021-0.688,1.649-0.688h6.432c0.629,0,1.2,0.239,1.649,0.689c0.449,0.449,0.687,1.019,0.687,1.647
			c0,0.628-0.238,1.198-0.688,1.648L9.407,5.107l3.765,3.764c0.361,0.363,0.559,0.835,0.559,1.333c0,0.498-0.197,0.97-0.556,1.33
			l-1.639,1.639C11.17,13.535,10.698,13.731,10.203,13.731z M5.106,5.399l5.097,5.097l0.292-0.292L5.398,5.107l2.215-2.215H2.891
			v4.723L5.106,5.399z"/>
		<path fill="#FFFFFF" d="M22.607,24.943h-6.433c-0.626,0-1.194-0.236-1.645-0.685c-0.454-0.453-0.691-1.022-0.691-1.65
			c0-0.631,0.238-1.202,0.691-1.652l1.062-1.062l-3.764-3.765c-0.361-0.362-0.559-0.835-0.559-1.333c0-0.497,0.197-0.97,0.556-1.33
			l1.639-1.639c0.725-0.722,1.943-0.719,2.664-0.002l3.766,3.767l1.063-1.065c0.909-0.903,2.4-0.899,3.298,0
			c0.452,0.456,0.688,1.024,0.688,1.648v6.433c0,0.628-0.237,1.198-0.688,1.647C23.809,24.705,23.238,24.943,22.607,24.943z
			 M17.386,22.109h4.723v-4.723l-2.215,2.216l-5.097-5.099l-0.293,0.293l5.098,5.098L17.386,22.109z"/>
	</g>
</g>
<g>
	<g>
		<path d="M12.163,10.492c0.098-0.098,0.146-0.21,0.146-0.337c0-0.127-0.049-0.24-0.146-0.337L7.293,4.948l2.112-2.112
			c0.186-0.186,0.278-0.405,0.278-0.66s-0.093-0.475-0.278-0.66C9.22,1.33,9,1.237,8.746,1.237h-6.57
			c-0.254,0-0.474,0.093-0.66,0.279C1.33,1.702,1.236,1.922,1.236,2.176v6.57c0,0.254,0.093,0.474,0.279,0.66
			c0.186,0.186,0.406,0.279,0.66,0.279c0.254,0,0.474-0.093,0.66-0.279l2.111-2.112l4.869,4.869c0.098,0.098,0.21,0.146,0.337,0.146
			s0.239-0.049,0.337-0.146L12.163,10.492z"/>
		<path d="M23.484,23.485c0.186-0.186,0.278-0.405,0.278-0.66v-6.57c0-0.254-0.093-0.474-0.278-0.66
			c-0.186-0.186-0.405-0.278-0.66-0.278c-0.254,0-0.474,0.093-0.66,0.278l-2.111,2.112l-4.869-4.869
			c-0.098-0.098-0.21-0.147-0.337-0.147c-0.128,0-0.24,0.049-0.338,0.147l-1.672,1.672c-0.098,0.098-0.146,0.21-0.146,0.337
			c0,0.128,0.049,0.239,0.146,0.338l4.869,4.869l-2.111,2.111c-0.187,0.186-0.279,0.406-0.279,0.66s0.093,0.474,0.279,0.66
			c0.186,0.186,0.405,0.278,0.659,0.278h6.57C23.079,23.764,23.299,23.672,23.484,23.485z"/>
	</g>
</g>
</svg>
