<?xml version="1.0" encoding="utf-8"?>
<!-- Generator: Adobe Illustrator 15.1.0, SVG Export Plug-In . SVG Version: 6.00 Build 0)  -->
<!DOCTYPE svg PUBLIC "-//W3C//DTD SVG 1.1//EN" "http://www.w3.org/Graphics/SVG/1.1/DTD/svg11.dtd">
<svg version="1.1" id="Calque_1" xmlns="http://www.w3.org/2000/svg" xmlns:xlink="http://www.w3.org/1999/xlink" x="0px" y="0px"
	 width="25px" height="25px" viewBox="0 0 25 25" enable-background="new 0 0 25 25" xml:space="preserve">
<g>
	<g>
		<path fill="#FFFFFF" d="M11.934,14.319c-0.265,0.256-0.619,0.397-1,0.399H6.925l0,1.098c0,0.932-0.795,1.699-1.751,1.7
			c-0.479,0.001-0.909-0.17-1.243-0.495l-3.419-3.316C0.177,13.381,0,12.964,0,12.5c0-0.464,0.177-0.881,0.511-1.205l3.419-3.317
			c0.334-0.324,0.765-0.495,1.243-0.495c0.478,0,0.907,0.171,1.241,0.496c0.334,0.324,0.51,0.741,0.511,1.205l-0.001,1.099l4.003,0
			c0.385,0.001,0.741,0.143,1.006,0.399c0.264,0.256,0.41,0.602,0.411,0.972v1.69C12.343,13.72,12.197,14.064,11.934,14.319z
			 M4.794,12.651h5.42V12.35h-5.42v-2.285L2.283,12.5l2.511,2.436V12.651z"/>
		<path fill="#FFFFFF" d="M24.489,13.704l-3.42,3.317c-0.332,0.323-0.761,0.494-1.238,0.495c-0.482,0-0.911-0.171-1.246-0.495
			c-0.334-0.324-0.512-0.742-0.509-1.208v-1.095h-4.004c-0.385-0.001-0.741-0.143-1.006-0.399c-0.264-0.257-0.41-0.603-0.411-0.973
			l0-1.69c0.001-0.746,0.65-1.374,1.415-1.375l4.006,0l-0.002-1.098c0.003-0.935,0.799-1.702,1.754-1.701
			c0.483,0.002,0.91,0.174,1.241,0.496l3.42,3.317c0.334,0.324,0.512,0.74,0.511,1.204C25.001,12.962,24.824,13.379,24.489,13.704z
			 M20.206,14.936l2.512-2.436l-2.512-2.436l0.001,2.285l-5.42-0.001v0.302h5.42L20.206,14.936z"/>
	</g>
</g>
<g>
	<g>
		<path d="M11.253,11.638c0-0.1-0.034-0.184-0.102-0.249c-0.068-0.066-0.153-0.099-0.257-0.099H5.717V9.112
			c0-0.191-0.067-0.353-0.203-0.484s-0.302-0.197-0.5-0.197S4.651,8.497,4.516,8.627l-3.494,3.389
			C0.887,12.147,0.82,12.309,0.82,12.5s0.067,0.353,0.202,0.484l3.494,3.389c0.135,0.13,0.301,0.196,0.499,0.196
			c0.198,0,0.364-0.066,0.5-0.197s0.203-0.292,0.203-0.484V13.71h5.178c0.104,0,0.188-0.032,0.257-0.099
			c0.068-0.065,0.102-0.147,0.102-0.249V11.638z"/>
		<path d="M24.18,12.5c0-0.191-0.067-0.352-0.202-0.484l-3.493-3.388c-0.135-0.131-0.301-0.196-0.498-0.197
			c-0.198,0-0.365,0.065-0.5,0.197c-0.135,0.131-0.202,0.292-0.203,0.484l0.001,2.178h-5.178c-0.104,0-0.189,0.032-0.257,0.098
			c-0.068,0.066-0.102,0.15-0.102,0.25v1.725c0,0.101,0.034,0.184,0.102,0.249c0.067,0.066,0.152,0.099,0.257,0.099h5.178v2.178
			c-0.001,0.192,0.067,0.354,0.202,0.484s0.302,0.197,0.5,0.197c0.197,0,0.363-0.066,0.498-0.197l3.493-3.388
			C24.112,12.853,24.181,12.692,24.18,12.5z"/>
	</g>
</g>
</svg>
