<?xml version="1.0" encoding="utf-8"?>
<!-- Generator: Adobe Illustrator 15.1.0, SVG Export Plug-In . SVG Version: 6.00 Build 0)  -->
<!DOCTYPE svg PUBLIC "-//W3C//DTD SVG 1.1//EN" "http://www.w3.org/Graphics/SVG/1.1/DTD/svg11.dtd">
<svg version="1.1" id="Calque_1" xmlns="http://www.w3.org/2000/svg" xmlns:xlink="http://www.w3.org/1999/xlink" x="0px" y="0px"
	 width="25px" height="25px" viewBox="0 0 25 25" enable-background="new 0 0 25 25" xml:space="preserve">
<g>
	<g>
		<path fill="#FFFFFF" d="M10.681,11.934c-0.256-0.265-0.397-0.618-0.399-1V6.925l-1.098,0c-0.932,0-1.699-0.795-1.7-1.751
			c-0.001-0.479,0.17-0.909,0.495-1.243l3.316-3.419C11.619,0.177,12.036,0,12.5,0c0.464,0,0.881,0.177,1.205,0.511l3.316,3.419
			c0.324,0.334,0.495,0.765,0.495,1.243c0,0.478-0.171,0.907-0.495,1.241s-0.741,0.51-1.205,0.511l-1.099-0.001v4.003
			c-0.001,0.385-0.143,0.741-0.399,1.006c-0.256,0.264-0.602,0.41-0.972,0.411h-1.69C11.28,12.343,10.936,12.197,10.681,11.934z
			 M12.349,4.794v5.42h0.301v-5.42h2.285L12.5,2.283l-2.436,2.511H12.349z"/>
		<path fill="#FFFFFF" d="M11.296,24.489l-3.317-3.42c-0.323-0.332-0.494-0.761-0.495-1.238c0-0.482,0.171-0.911,0.495-1.246
			c0.324-0.334,0.742-0.512,1.208-0.509h1.095v-4.004c0.001-0.385,0.143-0.741,0.399-1.006s0.603-0.41,0.973-0.411h1.69
			c0.746,0.001,1.373,0.65,1.375,1.415l-0.001,4.006l1.098-0.002c0.936,0.003,1.702,0.799,1.701,1.754
			c-0.002,0.483-0.174,0.91-0.496,1.241l-3.316,3.42C13.38,24.823,12.964,25.001,12.5,25C12.038,25.001,11.621,24.824,11.296,24.489
			z M10.064,20.206l2.436,2.512l2.436-2.512l-2.285,0.001l0.001-5.42h-0.302v5.42L10.064,20.206z"/>
	</g>
</g>
<g>
	<g>
		<path d="M13.362,11.253c0.1,0,0.184-0.034,0.249-0.102c0.065-0.068,0.099-0.153,0.099-0.257V5.717h2.178
			c0.191,0,0.353-0.067,0.484-0.203c0.131-0.135,0.196-0.302,0.196-0.5s-0.065-0.364-0.196-0.499l-3.388-3.494
			C12.853,0.887,12.691,0.82,12.5,0.82s-0.353,0.067-0.484,0.202L8.627,4.516C8.497,4.65,8.431,4.817,8.431,5.015
			s0.066,0.364,0.197,0.499C8.759,5.649,8.92,5.717,9.112,5.717h2.178v5.178c0,0.104,0.032,0.188,0.099,0.257
			c0.065,0.067,0.147,0.102,0.249,0.102H13.362z"/>
		<path d="M12.5,24.18c0.191,0,0.352-0.067,0.484-0.202l3.388-3.493c0.131-0.135,0.196-0.301,0.196-0.498
			c0-0.198-0.065-0.365-0.196-0.5s-0.292-0.202-0.484-0.203l-2.178,0.001v-5.178c0-0.104-0.032-0.189-0.098-0.257
			c-0.066-0.068-0.15-0.102-0.25-0.102h-1.725c-0.101,0-0.184,0.034-0.249,0.102c-0.066,0.067-0.099,0.152-0.099,0.257v5.178H9.112
			c-0.192-0.001-0.354,0.067-0.484,0.202s-0.197,0.302-0.197,0.5c0,0.197,0.066,0.363,0.197,0.498l3.388,3.493
			C12.147,24.112,12.308,24.181,12.5,24.18z"/>
	</g>
</g>
</svg>
