<?xml version="1.0" encoding="utf-8"?>
<!-- Generator: Adobe Illustrator 15.1.0, SVG Export Plug-In . SVG Version: 6.00 Build 0)  -->
<!DOCTYPE svg PUBLIC "-//W3C//DTD SVG 1.1//EN" "http://www.w3.org/Graphics/SVG/1.1/DTD/svg11.dtd">
<svg version="1.1" id="Calque_2" xmlns="http://www.w3.org/2000/svg" xmlns:xlink="http://www.w3.org/1999/xlink" x="0px" y="0px"
	 width="25px" height="25px" viewBox="0 0 25 25" enable-background="new 0 0 25 25" xml:space="preserve">
<circle fill="#FFFFFF" cx="12.5" cy="12.5" r="12.484"/>
<g>
	<g>
		<path d="M20.938,4.61c-0.142-0.06-0.306-0.026-0.415,0.083l-1.582,1.582c-1.697-1.748-3.967-2.71-6.388-2.71
			c-0.512,0-1.028,0.044-1.535,0.133c-3.446,0.599-6.24,3.18-7.115,6.574c-0.029,0.113-0.004,0.235,0.068,0.327
			c0.072,0.094,0.184,0.148,0.301,0.148h2.424c0.159,0,0.302-0.101,0.356-0.25c0.71-1.94,2.472-3.42,4.491-3.771
			c0.333-0.057,0.671-0.086,1.006-0.086c1.604,0,3.102,0.642,4.217,1.808l-1.606,1.606c-0.107,0.109-0.142,0.273-0.083,0.416
			c0.061,0.142,0.199,0.233,0.352,0.233h5.363c0.21,0,0.381-0.17,0.381-0.381V4.962C21.174,4.808,21.08,4.669,20.938,4.61z"/>
		<path d="M20.696,14.283h-2.423c-0.16,0-0.303,0.101-0.357,0.251c-0.71,1.938-2.473,3.419-4.49,3.77
			c-0.334,0.058-0.671,0.086-1.007,0.086c-1.604,0-3.102-0.641-4.218-1.807l1.606-1.607c0.109-0.108,0.142-0.272,0.083-0.414
			c-0.059-0.143-0.198-0.235-0.352-0.235H4.176c-0.21,0-0.381,0.17-0.381,0.381v5.362c0,0.153,0.092,0.293,0.235,0.353
			c0.142,0.059,0.306,0.025,0.415-0.083l1.582-1.582c1.698,1.747,3.966,2.709,6.388,2.709c0.512,0,1.028-0.045,1.536-0.132
			c3.446-0.599,6.238-3.18,7.113-6.574c0.03-0.114,0.006-0.235-0.066-0.328C20.926,14.338,20.813,14.283,20.696,14.283z"/>
	</g>
</g>
</svg>
