<?xml version="1.0" encoding="utf-8"?>
<!-- Generator: Adobe Illustrator 15.1.0, SVG Export Plug-In . SVG Version: 6.00 Build 0)  -->
<!DOCTYPE svg PUBLIC "-//W3C//DTD SVG 1.1//EN" "http://www.w3.org/Graphics/SVG/1.1/DTD/svg11.dtd">
<svg version="1.1" id="Calque_1" xmlns="http://www.w3.org/2000/svg" xmlns:xlink="http://www.w3.org/1999/xlink" x="0px" y="0px"
	 width="208.342px" height="590px" viewBox="0 0 208.342 590" enable-background="new 0 0 208.342 590" xml:space="preserve">
<g>
	<path d="M121.769,283.272c39.66-1.894,65.057,12.87,78.916,45.019c14.658,34.012,8.014,71.578-17.721,95.939
		c-7.008,6.637-15.32,12.019-23.525,17.202c-3.844,2.434-5.146,4.368-4.184,8.921c4.037,19.07,7.844,38.194,11.332,57.37
		c1.303,7.158,2.139,14.519,2.1,21.78c-0.146,27.356-13.545,46.767-37.938,55.819c-26.603,9.877-54.404,3.84-71.639-15.555
		c-16.362-18.412-16.005-45.748,0.806-61.721c10.522-9.998,24.118-12.229,35.891-5.894c12.841,6.909,20.113,21.689,17.865,36.3
		c-1.973,12.82-12.617,23.189-26.208,25.467c-2.328,0.389-4.691,0.56-7.887,0.928c2.885,7.753,9.04,10.364,15.51,12.181
		c28.707,8.058,58.736-12.266,61.289-41.96c0.777-9.058,0.244-18.473-1.33-27.434c-3.361-19.158-7.797-38.127-11.9-57.7
		c-7.395,1.128-14.213,2.656-21.107,3.145c-47.267,3.332-87.978-20.812-108.529-64.879c-22.83-48.951-16.129-95.39,15.64-137.729
		c16.684-22.236,36.36-42.258,55.19-62.818c4.217-4.604,5.241-8.313,3.864-14.241c-9.522-40.959-12.387-81.917,1.451-122.646
		c5.094-14.99,11.222-29.437,22.54-40.932c13.813-14.026,20.971-13.36,30.154,4.003c37.891,71.629,30.301,143.147-25.979,206.583
		c-4.525,5.102-5.82,9.322-4.338,15.738C115.614,251.679,118.524,267.358,121.769,283.272z M110.837,286.15
		c-3.309-16.488-6.558-32.704-10.063-50.167c-21.938,19.519-42.578,38.015-56.767,62.101c-6.394,10.851-11.943,22.65-15.334,34.734
		c-11.619,41.407,4.95,80.338,41.241,98.505c22.396,11.213,45.797,13.594,70.84,6.241c-7.48-37.814-14.842-75.024-22.354-112.994
		c-19.228,8.039-31.095,20.805-33.985,40.471c-2.882,19.599,7.101,32.408,23.52,41.486c1.979,1.097,2.859,4.181,4.248,6.344
		c-2.709,0.154-5.756,1.209-8.071,0.33c-25.896-9.789-43.845-40.683-39.5-68.043C69.011,317.461,85.501,298.935,110.837,286.15z
		 M100.046,172.142c27.017-25.387,47.148-53.116,51.324-89.752c0.768-6.736-0.082-14.226-2.338-20.604
		c-3.764-10.642-14.877-14.644-23.58-7.709c-7.736,6.165-15.09,14.325-19.258,23.181C92.091,107.243,90.851,138.663,100.046,172.142
		z M151.88,432.966c23.146-8.543,38.004-40.519,31.43-66.616c-6.666-26.471-30.314-45.352-53.422-42.027
		C137.218,360.531,144.54,396.703,151.88,432.966z"/>
</g>
</svg>
