<?xml version="1.0" encoding="utf-8"?>
<!-- Generator: Adobe Illustrator 15.1.0, SVG Export Plug-In . SVG Version: 6.00 Build 0)  -->
<!DOCTYPE svg PUBLIC "-//W3C//DTD SVG 1.1//EN" "http://www.w3.org/Graphics/SVG/1.1/DTD/svg11.dtd">
<svg version="1.1" id="Calque_1" xmlns="http://www.w3.org/2000/svg" xmlns:xlink="http://www.w3.org/1999/xlink" x="0px" y="0px"
	 width="590px" height="318.732px" viewBox="0 0 590 318.732" enable-background="new 0 0 590 318.732" xml:space="preserve">
<g>
	<path d="M346.84,111.39c6.023,30.558,2.158,66.442-1.104,97.054c-32.905,1.067-73.077,7.673-102.568-1.104
		c-7.758-27.756-8.448-67.776-3.309-99.26C275.726,104.331,314.283,105.926,346.84,111.39z"/>
	<path d="M68.914,0c2.941,0,5.883,0,8.823,0c62.492,6.99,99.208,39.755,135.654,72.79C171.13,47.775,129.313,12.761,62.298,8.823
		C63.377,4.756,67.127,3.359,68.914,0z"/>
	<path d="M538.741,4.411c4.148,3.204,6.37,8.335,8.823,13.235c-63.51,8.178-121.993,21.381-162.124,52.938
		c-2.292,1.233-2.337,1.189-1.103-1.103C422.93,34.914,471.129,9.957,538.741,4.411z"/>
	<path d="M556.388,318.732c-0.735,0-1.472,0-2.206,0c-90.299-14.475-156.686-52.863-201.827-112.494
		c1.983-6.472,1.563-15.347,3.309-22.058c18.07,9.87,41.146,20.613,59.556,26.469c-21.259-15.137-44.635-28.156-61.762-47.423
		c1.696-3.451,2.143-8.152,2.206-13.235c36.019-19.494,76.175-34.85,113.597-52.938c-37.709,10.817-71.545,25.508-112.493,33.086
		c-2.147-4.837-1.16-12.81-3.31-17.646c43.146-55.013,118.793-77.519,210.65-83.818c10.117,49.975,29.313,101.286,25.365,155.506
		C586.015,231.71,565.891,280.024,556.388,318.732z"/>
	<path d="M154.938,106.979c-0.735,0-1.47,0-2.206,0c21.753,10.23,55.725,17.8,77.202,31.983c-2.058,7.534,2.769,19.133,1.103,25.366
		c-3.964,14.831-44.275,23.951-55.144,33.086c17.046-1.707,34.536-12.517,57.35-12.131c0.621,7.834,2.039,14.872,3.309,22.058
		c-57.613,41.646-113.664,84.854-204.033,93.745C14.98,258.905-3.389,209.622,0.535,151.095
		c3.387-50.508,25.873-96.366,39.703-134.553c89.484,5.364,144.54,45.156,194.107,90.437c-2.198,4.42-1.266,11.97-3.31,16.543
		C202.586,121.092,179.232,113.566,154.938,106.979z"/>
</g>
</svg>
