<?xml version="1.0" encoding="utf-8"?>
<!-- Generator: Adobe Illustrator 15.1.0, SVG Export Plug-In . SVG Version: 6.00 Build 0)  -->
<!DOCTYPE svg PUBLIC "-//W3C//DTD SVG 1.1//EN" "http://www.w3.org/Graphics/SVG/1.1/DTD/svg11.dtd">
<svg version="1.1" id="Calque_1" xmlns="http://www.w3.org/2000/svg" xmlns:xlink="http://www.w3.org/1999/xlink" x="0px" y="0px"
	 width="590px" height="469.359px" viewBox="0 0 590 469.359" enable-background="new 0 0 590 469.359" xml:space="preserve">
<g>
	<path d="M187.009,0c-10.873,35.66-29.799,63.266-73.75,65.848C121.187,27.243,146.677,6.202,187.009,0z"/>
	<path d="M405.625,0c40.233,6.297,65.452,27.615,73.75,65.848C435.66,63.03,416.078,36.081,405.625,0z"/>
	<path d="M94.82,5.268c20.378,25.277,13.521,85.34-15.804,97.455C62.463,70.223,76.365,25.907,94.82,5.268z"/>
	<path d="M492.545,7.903c27.5,11.357,37.729,67.836,18.438,94.82C486.111,87.493,478.596,39.432,492.545,7.903z"/>
	<path d="M42.143,63.213c23.646,13.875,35.767,67.152,18.438,97.455C32.832,147.846,28.498,94.508,42.143,63.213z"/>
	<path d="M547.857,63.213c19.123,26.688,10.154,82.311-13.17,97.455C511.142,135.5,528.514,78.547,547.857,63.213z"/>
	<path d="M173.839,71.116c-12.512,24.279-42.473,42.475-79.019,34.24C104.24,78.354,138.68,63.754,173.839,71.116z"/>
	<path d="M497.813,105.358c-36.546,8.232-66.508-9.961-79.018-34.24C454.211,64.012,488.207,78.17,497.813,105.358z"/>
	<path d="M144.865,121.161c-11.307,27.18-40.691,47.852-76.384,42.143C78.688,134,104.468,120.272,144.865,121.161z"/>
	<path d="M447.768,121.161c40.283-0.773,65.55,13.469,76.384,42.143C488.485,168.989,458.371,149.045,447.768,121.161z"/>
	<path d="M13.168,147.5c29.723,11.879,48.063,48.057,39.51,89.553C26.806,221.538,3.275,190.045,13.168,147.5z"/>
	<path d="M537.321,237.053c-4.069-46.211,12.515-71.771,36.875-89.553C595.348,180.594,564.371,226.208,537.321,237.053z"/>
	<path d="M118.526,168.571c0.265,30.131-19.873,62.646-55.313,65.85C65.389,196.208,90.379,180.809,118.526,168.571z"/>
	<path d="M471.473,168.571c30.008,11.26,54.947,27.582,57.947,65.85C492.848,229.725,478.17,203.139,471.473,168.571z"/>
	<path d="M110.625,229.153c13.49,31.197-7.597,70.676-34.241,79.018C67.576,271.565,90.591,245.542,110.625,229.153z"/>
	<path d="M476.74,231.786c29.279,8.359,44.453,42.295,39.51,76.385C488.356,297.434,475.797,271.362,476.74,231.786z"/>
	<path d="M0,242.321c35.062,0.068,63.648,29.408,68.481,68.482C26.136,307.497,10.95,277.026,0,242.321z"/>
	<path d="M590,242.321c-7.095,37.686-25.506,64.049-65.849,68.482C527.984,271.606,557.366,243.942,590,242.321z"/>
	<path d="M126.429,287.098c22.671,19.516,6.839,71.98-10.536,84.285C93.961,349.44,111.263,303.624,126.429,287.098z"/>
	<path d="M460.938,287.098c22.373,12.564,31.216,52.176,21.07,81.652C457.899,370.536,447.871,314.43,460.938,287.098z"/>
	<path d="M21.07,326.608c44.616-0.719,70.934,16.863,81.652,50.045C64.183,381.389,31.17,358.975,21.07,326.608z"/>
	<path d="M155.401,326.608c21.556,14.766,24.164,67.424,5.269,86.92C137.838,400.5,142.195,346.881,155.401,326.608z"/>
	<path d="M434.598,326.608c17.904,17.074,17.717,69.816,0,86.92C410.18,398.786,417.344,343.477,434.598,326.608z"/>
	<path d="M571.563,326.608c-10.786,31.477-43.136,55.037-81.652,50.045C500.68,343.524,526.654,325.598,571.563,326.608z"/>
	<path d="M194.91,360.848c22.355,12.873,38.375,50.803,26.34,81.652C194.088,433.245,184.916,391.497,194.91,360.848z"/>
	<path d="M395.088,360.848c12.875,28.746,2.07,74.512-23.705,81.652C358.656,412.067,375.607,375.542,395.088,360.848z"/>
	<path d="M152.768,424.063c-30.999,14.326-80.23,6.563-94.821-18.438C85.012,392.698,146.488,392.333,152.768,424.063z"/>
	<path d="M534.688,405.625c-14.698,25.525-69.113,34.277-97.455,15.803C449.568,395.752,505.933,391.006,534.688,405.625z"/>
	<path d="M215.981,455.67c-20.594,17.594-83.606,20.436-97.456-5.268C140.454,435.84,202.433,427.174,215.981,455.67z"/>
	<path d="M474.107,450.403c-13.4,26.152-77.1,22.621-97.456,5.268C390.201,427.174,452.179,435.84,474.107,450.403z"/>
</g>
</svg>
