<?xml version="1.0" encoding="utf-8"?>
<!-- Generator: Adobe Illustrator 15.1.0, SVG Export Plug-In . SVG Version: 6.00 Build 0)  -->
<!DOCTYPE svg PUBLIC "-//W3C//DTD SVG 1.1//EN" "http://www.w3.org/Graphics/SVG/1.1/DTD/svg11.dtd">
<svg version="1.1" id="Calque_1" xmlns="http://www.w3.org/2000/svg" xmlns:xlink="http://www.w3.org/1999/xlink" x="0px" y="0px"
	 width="393.613px" height="493.803px" viewBox="0 0 393.613 493.803" enable-background="new 0 0 393.613 493.803"
	 xml:space="preserve">
<g id="couronne">
	<path d="M153.761,58.486c7.69,5.393,9.962,12.541,7.361,21.456c3.446-2.91,6.82-5.73,11.7-4.478
		c2.707,0.695,4.521,2.563,5.873,4.879c3.096,5.3,1.084,12.02-4.523,14.911c-0.023-0.496-0.053-0.929-0.068-1.363
		c-0.105-3.166-2.715-6.003-5.667-6.337c-4.575-0.518-6.563,1.999-7.293,5.11c-1.133,4.832,1.036,9.184,6.083,11.844
		c7.375,3.887,14.72,3.304,21.634-1.101c4.453-2.837,6.309-7.843,5.053-13.525c-1.672,0.742-3.318,1.454-4.949,2.202
		c-1.643,0.752-3.268,1.54-5.078,2.396c-0.256-6.395-0.504-12.607-0.762-19.035c3.467,2.118,6.73,4.112,9.996,6.106
		c0.16-0.115,0.32-0.23,0.479-0.346c-0.828-2.386-1.594-4.796-2.506-7.15c-0.906-2.336-1.959-4.616-3.014-7.077
		c6.135,0,12.113,0,18.031,0c-1.67,4.806-3.336,9.604-5.002,14.402c0.164,0.122,0.328,0.243,0.492,0.364
		c3.213-2.085,6.428-4.169,9.563-6.204c0,6.209,0,12.511,0,19.007c-3.361-1.619-6.441-3.101-9.689-4.665
		c-0.076,3.194-0.227,6.121,0.805,8.958c1.42,3.908,4.082,6.553,8.074,7.702c6.146,1.767,11.945,0.968,17.137-2.876
		c3.715-2.751,5.09-7.909,3.436-11.621c-1.727-3.876-7.248-5.057-9.881-1.069c-0.768,1.162-1.541,2.32-2.396,3.604
		c-2.145-2.251-3.666-4.75-3.857-7.875c-0.16-2.612,0.348-5.122,1.656-7.415c2.473-4.328,8.584-5.523,12.848-2.467
		c1.494,1.072,2.85,2.339,4.537,3.741c-0.789-5.454-0.572-10.484,2.455-15.019c1.537-2.305,3.326-4.355,5.627-6.091
		c6.436,7.596,5.238,15.381,0.777,23.604c0.994-0.723,1.682-1.244,2.391-1.735c4.104-2.841,8.406-2.78,12.16,0.162
		c3.885,3.045,5.211,7.44,3.408,11.976c-1.783,4.486-5.025,7.678-9.336,9.802c-0.16,0.079-0.354,0.089-0.523,0.129
		c0.354-1.572,0.877-3.101,1-4.662c0.113-1.449,0.102-3.039-0.377-4.38c-1.207-3.386-6.656-3.813-9.021-0.819
		c-2.676,3.388-3.158,9.983-0.959,13.694c1.545,2.605,4.162,3.76,6.783,4.924c4.668,2.071,9.379,2.158,14.166,0.486
		c2.352-0.822,4.309-2.176,5.844-4.154c2.895-3.726,4.271-8.084,5.588-12.945c-3.932,1.538-7.51,2.938-11.242,4.397
		c1.77-6.728,3.539-13.461,5.215-19.831c2.695,2.549,5.387,5.09,8.074,7.632c0.176-0.078,0.352-0.155,0.527-0.233
		c-0.061-4.669-0.896-9.283-1.451-14.331c4.266,0.982,8.311,1.914,12.553,2.89c-0.883,2.564-1.623,4.751-2.391,6.929
		c-0.666,1.888-1.393,3.755-2.027,5.652c-0.15,0.453-0.119,1.001-0.051,1.489c0.445,3.208,0.063,6.509-2.248,8.644
		c-2.967,2.739-3.904,6.337-5.482,9.688c-1.152,2.443-2.156,4.958-3.164,7.465c-0.211,0.525-0.311,1.19-0.195,1.736
		c0.631,3.008,1.367,5.994,2.018,8.998c0.387,1.774,0.074,3.384-1.131,4.85c-2.934,3.567-5.797,7.192-8.633,10.725
		c-3.84-1.433-7.514-3.065-11.338-4.171c-6.303-1.821-12.645-3.603-19.074-4.868c-15.887-3.125-31.971-3.801-48.102-2.837
		c-14.799,0.884-29.388,3.153-43.518,7.813c-2.911,0.96-5.715,2.262-8.525,3.501c-0.886,0.39-1.487,0.396-2.243-0.258
		c-3.247-2.811-6.55-5.556-9.821-8.339c-1.344-1.144-2.18-2.526-2.01-4.391c0.33-3.624,0.5-7.268,0.981-10.871
		c0.27-2.014-0.297-3.76-0.877-5.574c-1.206-3.772-2.371-7.557-3.599-11.321c-0.141-0.434-0.501-0.881-0.884-1.139
		c-3.578-2.404-5.268-7.233-3.703-11.235c0.488-1.248,0.383-2.292-0.032-3.448c-0.915-2.542-1.802-5.094-2.685-7.647
		c-0.117-0.337-0.14-0.707-0.246-1.286c4.474-1.084,8.882-2.153,13.581-3.293c-1.804,4.934-3.483,9.528-5.162,14.124
		c0.167,0.121,0.333,0.241,0.5,0.362c3.787-1.222,6.24-4.287,9.043-7.071c0.152,0.535,0.29,0.916,0.367,1.308
		c1.175,6.027,2.343,12.056,3.563,18.354c-3.12-2.122-6.346-3.373-9.81-3.977c-0.136,0.091-0.271,0.181-0.408,0.271
		c1.034,2.399,1.918,4.876,3.129,7.182c3.646,6.943,10.387,10.607,17.78,9.53c5.418-0.789,10.002-3.163,12.421-8.409
		c1.786-3.874,1.577-7.706-0.999-11.268c-1.945-2.69-4.698-3.033-7.643-2.506c-2.918,0.521-4.62,2.533-5.049,5.321
		c-0.324,2.114-0.063,4.317-0.063,6.594c-1.666-0.228-3.175-0.92-4.222-2.261c-5.113-6.552-3.479-17.381,4.196-20.961
		c3.979-1.857,8.045-1.87,12.134,0.991C147.631,72.565,148.833,65.431,153.761,58.486z M233.832,127.294
		c2.389,0.141,4.525-0.547,6.416-1.964c2.768-2.076,3.301-5.784,1.271-8.575c-3.383-4.657-11.227-6.016-15.992-2.772
		c-3.021,2.056-3.711,5.907-1.48,8.811C226.502,125.996,229.949,127.157,233.832,127.294z M159.829,127.255
		c3.824,0.02,6.792-1.05,9.269-3.317c3.381-3.093,2.975-7.715-0.845-10.236c-4.604-3.04-12.457-1.51-15.581,3.035
		c-2.004,2.916-1.484,6.408,1.337,8.57C155.849,126.717,157.973,127.324,159.829,127.255z M197.813,123.954
		c1.188-1.853,2.1-3.509,3.236-4.994c1.477-1.931,1.52-3.608-0.117-5.495c-1.229-1.415-2.17-3.076-3.455-4.938
		c-1.029,1.495-1.854,2.606-2.59,3.773c-2.293,3.637-2.281,3.646-0.15,7.368c0.395,0.687,0.77,1.389,1.227,2.032
		C196.436,122.366,196.996,122.969,197.813,123.954z M127.95,134.34c0.194-0.053,0.39-0.107,0.584-0.161
		c0.078-2.262,0.17-4.524,0.218-6.788c0.005-0.229-0.206-0.525-0.402-0.687c-1.541-1.268-3.102-2.511-4.896-3.955
		c-0.258,2.279-0.524,4.296-0.681,6.321c-0.029,0.391,0.285,0.916,0.6,1.207C124.869,131.665,126.419,132.992,127.95,134.34z
		 M267.311,133.178c3.992-3.724,4.633-7.637,1.621-11.034c-1.373,1.479-2.744,2.933-4.082,4.418
		c-0.182,0.201-0.354,0.624-0.262,0.824C265.455,129.319,266.381,131.225,267.311,133.178z M211.842,119.999
		c-1.779,0.035-3.064,1.436-3.031,3.308c0.029,1.751,1.51,3.258,3.186,3.243c1.785-0.015,3.297-1.558,3.283-3.352
		C215.268,121.502,213.615,119.963,211.842,119.999z M182.27,126.644c1.777,0.037,3.289-1.456,3.277-3.235
		c-0.012-1.592-1.635-3.197-3.266-3.225c-1.637-0.029-3.203,1.556-3.195,3.231C179.096,125.101,180.582,126.608,182.27,126.644z
		 M251.445,126.319c-1.67-0.005-3.133,1.414-3.168,3.073c-0.033,1.737,1.512,3.27,3.303,3.275c1.713,0.005,3.197-1.504,3.172-3.224
		C254.725,127.789,253.176,126.325,251.445,126.319z M141.635,132.804c1.805,0.035,3.238-1.221,3.296-2.889
		c0.059-1.679-1.583-3.276-3.351-3.259c-1.573,0.015-3.092,1.461-3.141,2.99C138.386,131.386,139.784,132.768,141.635,132.804z
		 M184.42,114.464c0.01-1.839-1.281-3.111-3.158-3.114c-1.887-0.002-2.912,1.009-2.955,2.917c-0.043,1.847,1.377,3.365,3.15,3.369
		C183.152,117.64,184.41,116.291,184.42,114.464z M212.971,111.35c-1.93-0.005-2.895,0.959-2.916,2.912
		c-0.02,1.938,1.301,3.373,3.105,3.374c1.656,0,3.01-1.417,3.025-3.172C216.205,112.699,214.816,111.354,212.971,111.35z
		 M138.792,124.704c1.855-0.019,2.902-1.109,2.889-3.01c-0.013-1.8-1.41-3.18-3.196-3.158c-1.712,0.021-2.984,1.411-2.941,3.212
		C135.583,123.42,137.012,124.722,138.792,124.704z M253.924,118.076c-1.893-0.005-2.916,1.025-2.922,2.933
		c-0.004,1.887,1.262,3.19,3.1,3.196c1.732,0.005,3.059-1.359,3.037-3.124C257.117,119.431,255.672,118.081,253.924,118.076z
		 M113.47,90.986c0.172,2.402,0.685,4.187,2.038,5.573c0.418,0.428,1.316,0.809,1.793,0.64c0.461-0.163,1.026-1.146,0.914-1.62
		c-0.407-1.728-0.944-3.458-1.716-5.05c-0.312-0.641-1.356-0.927-2.067-1.374C114.049,89.884,113.667,90.613,113.47,90.986z
		 M280.824,91.905c-0.363-0.688-0.602-1.525-1.15-1.996c-0.25-0.213-1.314,0.121-1.676,0.513c-1.506,1.636-2.275,3.625-2.078,5.869
		c0.045,0.511,0.482,1.303,0.869,1.39c0.508,0.114,1.307-0.183,1.693-0.582C279.824,95.716,280.445,93.973,280.824,91.905z
		 M200.293,85.418c0.014-1.506-1.227-2.74-2.752-2.74c-1.41,0-2.633,1.285-2.604,2.739c0.029,1.372,1.361,2.711,2.701,2.715
		C199.031,88.138,200.281,86.86,200.293,85.418z"/>
	<path d="M201.254,155.477c-10.146,0.103-20.25-0.575-30.327-1.659c-11.159-1.201-22.012-3.824-32.646-7.383
		c-0.351-0.118-0.705-0.258-1.018-0.454c-0.887-0.557-0.954-1.291-0.098-1.881c0.604-0.416,1.313-0.698,2.004-0.966
		c7.672-2.986,15.646-4.823,23.729-6.27c15.924-2.852,31.963-3.729,48.102-2.777c8.754,0.517,17.449,1.544,26.059,3.323
		c6.719,1.389,13.33,3.083,19.695,5.664c0.967,0.392,2.273,0.581,2.332,1.898c0.064,1.447-1.311,1.66-2.318,2.041
		c-9.764,3.688-19.785,6.345-30.221,7.157c-8.416,0.655-16.846,1.139-25.27,1.698C201.27,155.737,201.262,155.607,201.254,155.477z"
		/>
	<path d="M203.527,0c-0.969,3.38-1.902,6.636-2.932,10.221c2.613-0.691,5-1.322,7.416-1.961c0,3.264,0,6.4,0,9.74
		c-2.875-1.016-5.533-1.955-8.324-2.941c0,1.894,0,3.678,0,5.581c0.684,0.203,1.455,0.371,2.178,0.659
		c3.723,1.479,6.146,5.836,5.752,10.27c-0.324,3.65-3.635,7.175-7.432,7.97c-3.689,0.772-6.959-0.048-9.699-2.629
		c-2.586-2.436-3.516-5.488-2.652-8.924c0.885-3.519,3.174-5.907,6.672-6.883c1.232-0.344,1.547-0.855,1.473-2.004
		c-0.084-1.294-0.02-2.597-0.02-4.068c-1.533,0.526-2.889,0.985-4.238,1.454c-1.357,0.471-2.709,0.952-4.332,1.522
		c0-3.313,0-6.45,0-9.7c2.318,0.597,4.723,1.217,7.424,1.913c-1.123-3.537-2.166-6.822-3.246-10.218C195.592,0,199.447,0,203.527,0z
		 M203.406,33.956c-2.631-2.073-9.129-2.023-11.271,0.037C194.66,37.737,200.586,37.761,203.406,33.956z M195.977,23.736
		c-2.424,0.54-4.598,2.562-5.01,4.611c-0.061,0.299,0.273,0.927,0.539,1.001c1.443,0.407,2.926,0.689,4.471,1.031
		C195.977,28.003,195.977,25.934,195.977,23.736z M204.613,29.141c-0.727-3.032-2.604-4.382-4.979-5.431c0,2.23,0,4.302,0,6.808
		C201.395,30.032,202.947,29.602,204.613,29.141z"/>
	<path d="M186.285,41.309c0.982,3.225,2.039,6.306,2.854,9.449c0.969,3.739,1.768,7.524,2.543,11.308
		c0.133,0.655,0.74,1.758-0.703,1.98c-1.459,0.224-1.889-0.161-2.277-1.548c-1.408-5.013-2.768-10.046-4.393-14.99
		c-0.832-2.531-0.541-2.123-2.93-1.534c-16.162,3.984-30.991,10.904-44.639,20.383c-2.295,1.594-4.398,3.463-6.607,5.183
		c-0.539,0.419-1.069,1.231-1.841,0.252c-0.641-0.812-1.279-1.639-0.202-2.531c2.371-1.961,4.694-3.994,7.182-5.797
		c12.876-9.328,27.179-15.639,42.454-19.857c1.391-0.385,2.777-0.793,4.172-1.168C183.24,42.077,184.592,41.743,186.285,41.309z"/>
	<path d="M269.18,70.919c-0.543,0.853-0.959,1.506-1.484,2.332c-1.309-0.944-2.539-1.763-3.695-2.675
		c-14.219-11.198-30.152-18.979-47.523-23.91c-1.209-0.343-2.432-0.654-3.623-1.054c-0.867-0.291-1.314-0.122-1.707,0.78
		c-2.162,4.982-3.621,10.174-4.682,15.482c-0.436,2.17-0.615,2.355-3.092,2.062c0-0.566-0.08-1.161,0.014-1.726
		c1.141-6.868,3.178-13.494,5.379-20.08c0.313-0.93,0.805-0.845,1.479-0.677c18.844,4.696,36.291,12.401,51.9,24.067
		C264.488,67.272,266.789,69.083,269.18,70.919z"/>
	<path d="M210.674,35.818c0.016-2.516,1.916-4.378,4.441-4.351c2.43,0.027,4.373,2.044,4.346,4.511
		c-0.027,2.363-1.93,4.232-4.287,4.213C212.713,40.173,210.658,38.176,210.674,35.818z"/>
	<path d="M183.814,35.502c-0.051,2.303-2.063,4.366-4.242,4.352c-2.404-0.016-4.568-2.302-4.498-4.752
		c0.066-2.291,2.086-4.19,4.404-4.143C181.865,31.007,183.865,33.103,183.814,35.502z"/>
	<path d="M227.387,34.926c2.395,0.012,4.43,2.005,4.414,4.32c-0.016,2.268-2.063,4.336-4.293,4.338
		c-2.217,0.002-4.279-2.067-4.322-4.337C223.141,36.91,225.08,34.914,227.387,34.926z"/>
	<path d="M167.757,34.306c2.403-0.007,4.458,1.957,4.473,4.274c0.015,2.277-1.99,4.333-4.258,4.37
		c-2.295,0.038-4.36-2.06-4.345-4.415C163.642,36.189,165.474,34.312,167.757,34.306z"/>
	<path d="M238.568,39.436c2.412-0.016,4.139,1.701,4.135,4.111c-0.008,2.363-1.588,4.019-3.865,4.047
		c-2.473,0.031-4.32-1.731-4.314-4.113C234.529,41.134,236.211,39.452,238.568,39.436z"/>
	<path d="M152.636,42.775c0.036-2.339,1.729-3.962,4.115-3.943c2.382,0.019,4.104,1.801,4.052,4.192
		c-0.051,2.307-1.719,3.976-3.968,3.971C154.396,46.988,152.599,45.182,152.636,42.775z"/>
	<path d="M201.746,45.644c-0.02,2.21-1.904,4.08-4.129,4.096c-2.24,0.017-4.076-1.932-4.035-4.285
		c0.037-2.245,1.902-4.065,4.139-4.037C199.828,41.446,201.764,43.477,201.746,45.644z"/>
	<path d="M247.887,44.799c2.094-0.008,3.797,1.605,3.807,3.607c0.012,2.127-1.592,3.792-3.633,3.772
		c-2.031-0.019-3.748-1.72-3.773-3.739C244.262,46.414,245.85,44.808,247.887,44.799z"/>
	<path d="M147.216,44.195c2.063,0,3.847,1.676,3.847,3.616c0,2.056-1.711,3.782-3.714,3.748c-2.004-0.035-3.748-1.778-3.762-3.761
		C143.573,45.803,145.191,44.196,147.216,44.195z"/>
	<path d="M200.908,54.646c0.014,1.815-1.412,3.271-3.244,3.313c-1.914,0.044-3.658-1.474-3.707-3.229
		c-0.051-1.796,1.629-3.434,3.506-3.418C199.281,51.328,200.896,52.891,200.908,54.646z"/>
	<path d="M138.33,56.583c-1.774-0.028-3.305-1.567-3.278-3.298c0.025-1.67,1.591-3.208,3.252-3.194
		c1.76,0.016,3.288,1.549,3.28,3.292C141.575,55.276,140.216,56.613,138.33,56.583z"/>
	<path d="M256.938,57.203c-1.805-0.018-3.309-1.497-3.313-3.261c-0.004-1.674,1.531-3.237,3.197-3.25
		c1.791-0.015,3.361,1.592,3.318,3.396C260.096,55.917,258.756,57.22,256.938,57.203z"/>
	<path d="M130.691,55.891c1.721-0.011,3.33,1.46,3.377,3.085c0.05,1.65-1.521,3.198-3.229,3.186
		c-1.653-0.012-3.161-1.468-3.199-3.089C127.6,57.397,129.036,55.901,130.691,55.891z"/>
	<path d="M268.162,59.671c-0.012,1.795-1.414,3.135-3.236,3.094c-1.742-0.04-3.027-1.389-3.014-3.165
		c0.014-1.741,1.354-3.086,3.082-3.098C266.787,56.492,268.176,57.881,268.162,59.671z"/>
	<path d="M200.467,62.354c-0.027,1.571-1.193,2.688-2.789,2.671c-1.641-0.018-2.887-1.216-2.885-2.775
		c0.002-1.492,1.262-2.701,2.805-2.69C199.223,59.57,200.49,60.806,200.467,62.354z"/>
	<path d="M274.168,65.929c-0.008,1.39-1.293,2.67-2.688,2.681c-1.449,0.01-2.754-1.326-2.721-2.787
		c0.031-1.431,1.18-2.586,2.564-2.581C272.809,63.247,274.176,64.539,274.168,65.929z"/>
	<path d="M121.972,65.271c-0.001-1.504,1.052-2.621,2.483-2.635c1.555-0.015,2.832,1.194,2.824,2.675
		c-0.006,1.427-1.283,2.711-2.678,2.692C123.19,67.985,121.973,66.721,121.972,65.271z"/>
</g>
<g id="texte">
	<g>
		<path d="M14.372,183.888h28.534v34.896l29.889-34.896h37.949l-33.697,34.854l35.208,57.486H77.118l-19.47-37.975l-14.742,15.441
			v22.533H14.372V183.888L14.372,183.888z"/>
		<path d="M121.641,183.888h76.468v19.715h-47.873v14.676h44.408v18.833h-44.408v18.205h49.257v20.912H121.64L121.641,183.888
			L121.641,183.888z"/>
		<path d="M214.801,183.888h76.469v19.715h-47.871v14.676h44.406v18.833h-44.406v18.205h49.256v20.912h-77.854V183.888
			L214.801,183.888z"/>
		<path d="M307.898,183.888h47.43c10.33,0,18.066,2.457,23.213,7.37c5.143,4.913,7.715,11.905,7.715,20.975
			c0,9.322-2.803,16.608-8.408,21.857c-5.605,5.25-14.162,7.874-25.668,7.874h-15.621v34.267h-28.66V183.888L307.898,183.888z
			 M336.559,223.256h6.99c5.502,0,9.363-0.955,11.59-2.866s3.34-4.356,3.34-7.338c0-2.897-0.967-5.354-2.898-7.37
			s-5.564-3.023-10.896-3.023h-8.125V223.256L336.559,223.256z"/>
	</g>
	<g>
		<path d="M64.816,373.422l25.006,7.559c-1.68,7.014-4.325,12.871-7.937,17.574c-3.612,4.703-8.094,8.252-13.448,10.645
			c-5.354,2.395-12.168,3.592-20.44,3.592c-10.037,0-18.235-1.459-24.597-4.375c-6.361-2.916-11.853-8.047-16.471-15.391
			C2.309,385.682,0,376.281,0,364.825c0-15.274,4.063-27.015,12.188-35.22c8.126-8.203,19.621-12.307,34.486-12.307
			c11.631,0,20.774,2.354,27.432,7.055c6.655,4.705,11.601,11.928,14.833,21.668l-25.194,5.606
			c-0.883-2.812-1.807-4.871-2.771-6.173c-1.596-2.184-3.549-3.863-5.858-5.039c-2.31-1.175-4.893-1.764-7.748-1.764
			c-6.467,0-11.422,2.602-14.865,7.802c-2.604,3.858-3.905,9.92-3.905,18.181c0,10.234,1.553,17.25,4.661,21.045
			c3.107,3.797,7.474,5.693,13.102,5.693c5.458,0,9.583-1.531,12.376-4.598C61.53,383.711,63.556,379.26,64.816,373.422z"/>
		<path d="M160.45,395.973h-32.396l-4.5,15.242H94.42l34.707-92.341h31.124l34.7,92.341H165.07L160.45,395.973z M154.531,376.004
			l-10.191-33.193l-10.086,33.193H154.531z"/>
		<path d="M204.02,318.874h28.535v69.603h44.531v22.738H204.02V318.874L204.02,318.874z"/>
		<path d="M289.746,318.874h37.525l14.473,56.187l14.367-56.187h37.502v92.341h-23.367v-70.421l-18.006,70.421h-21.152
			l-17.973-70.421v70.421h-23.369V318.874z"/>
	</g>
	<g>
		<path d="M157.15,486.713h-15.066l-2.095,7.09h-13.551l16.144-42.949h14.477l16.139,42.949H159.3L157.15,486.713z M154.397,477.426
			l-4.741-15.439l-4.69,15.439H154.397z"/>
		<path d="M177.502,450.854h12.393l16.172,23.762v-23.762h12.512v42.949h-12.512l-16.084-23.582v23.582h-12.479v-42.949H177.502z"/>
		<path d="M227.57,450.854h19.717c3.887,0,7.025,0.527,9.42,1.582c2.393,1.055,4.369,2.568,5.932,4.541
			c1.564,1.973,2.695,4.268,3.398,6.885s1.055,5.391,1.055,8.32c0,4.59-0.521,8.148-1.566,10.678
			c-1.045,2.531-2.496,4.648-4.352,6.357s-3.848,2.848-5.977,3.414c-2.91,0.779-5.547,1.172-7.91,1.172H227.57V450.854
			L227.57,450.854z M240.842,460.58v23.467h3.252c2.773,0,4.746-0.309,5.918-0.922c1.172-0.615,2.09-1.689,2.754-3.225
			c0.664-1.533,0.996-4.018,0.996-7.455c0-4.551-0.742-7.666-2.227-9.346s-3.945-2.521-7.383-2.521h-3.311V460.58z"/>
	</g>
</g>
</svg>
