<?xml version="1.0" encoding="utf-8"?>
<!-- Generator: Adobe Illustrator 15.1.0, SVG Export Plug-In . SVG Version: 6.00 Build 0)  -->
<!DOCTYPE svg PUBLIC "-//W3C//DTD SVG 1.1//EN" "http://www.w3.org/Graphics/SVG/1.1/DTD/svg11.dtd">
<svg version="1.1" id="Calque_1" xmlns="http://www.w3.org/2000/svg" xmlns:xlink="http://www.w3.org/1999/xlink" x="0px" y="0px"
	 width="198.327px" height="590px" viewBox="0 0 198.327 590" enable-background="new 0 0 198.327 590" xml:space="preserve">
<g>
	<path fill-rule="evenodd" clip-rule="evenodd" d="M31.785,221.759c-4.107,4.558-8.315,11.361-7.852,21.391
		c-0.859-4.105-4.413-5.516-7.311-7.582c0-1.083,0-2.166,0-3.249c-0.375-0.708-2.297,0.131-2.708-0.542
		c-1.023-4.587,2.131-7.224,2.437-11.373c-5.473-3.346-8.71-13.779-8.394-21.661c0.4-9.962,4.963-17.655,9.206-24.91
		c1.294-2.213,3.666-5.15,4.061-7.04c0.78-3.724-0.889-10.936-1.895-15.975c-1.425-7.135-1.833-13.785-2.166-21.12
		c-0.528-11.632,1.1-23.003,0.271-33.034c-0.082-0.987,0.059-0.953-0.813-1.895c1.625-1.426,0.039-2.812,1.625-4.062
		c-2.907-4.521-8.936-12.021-4.874-18.412c-0.128-2.006-1.786-3.25-0.542-5.145c-2.077-1.31-2.91-4.826-0.812-6.769
		c-1.858-3.106-4.35-5.578-3.52-11.373c-4.18-0.507-7.9-5.1-4.874-9.477c-1.623-3.235,0.865-6.632-0.812-9.477
		c0.872,0.06,1.146-0.479,2.166-0.271c0.233-1.121,0.138-2.57,0.542-3.52c2.754-1.849,6.654-2.552,10.289-3.52
		c-0.646-2.465-2.875-3.85-2.979-6.228c-0.102-2.345,2.509-3.827,1.625-6.499c1.163,0.169,1.745-0.241,2.166-0.812
		c0.743-2.848-2.068-3.182-1.354-5.145c2.692-1.143,4.148,3.083,6.769,2.437c1.327-0.328,1.878-2.298,2.166-3.52
		c0.98-0.932,2.098-0.432,3.25-1.083c1.19-0.674,0.974-1.953,2.437-1.896c3.506,0.137,1.724,6.79,5.416,7.852
		c-0.667,1.538,0.676,1.738,0.812,2.979c0.6,5.458-3.786,8.642-5.415,12.455c3.333,1.19,9.04,1.1,10.831,3.52
		c0.511,0.69,0.139,1.761,0.542,2.166c-0.661,1.351-1.607-1.371-1.625-2.437c-2.765-0.952-6.353-2.47-10.019-1.625
		c-0.542,0.736-0.408,3.105,0.271,3.52c4.628-0.527,6.616,1.107,10.018,1.354c1.105,0.069,0.865,1.481,1.625,1.896
		c1.004,0.235,1.652-2.309,2.166-0.813c0.735,2.113-1.175,2.13-1.896,3.249c-0.718,1.116,0.511,2.364-0.812,2.979
		c0.279,2.234,2.894,3.404,2.978,5.416c0.064,1.526-1.535,2.089-1.354,4.062c-2.298,2.305-6.417,2.789-10.56,3.249
		c-0.423,0.618,0.551,2.146,0.813,2.979c-1.537,1.893-3.38,3.48-2.708,7.582c0.969,1.214,2.519,1.275,3.25,2.437
		c0.571,0.908,0.168,1.45,0.542,2.708c0.815,2.745,2.604,4.045,2.979,6.769c1.217,8.847-2.428,15.724-2.708,25.181
		c-0.264,8.945,2.681,18.584,4.603,27.618c2.078,9.765,2.551,19.333,3.25,28.701c6.702-0.204,12.569,0.428,19.224,0.271
		c1.936-1.313,2.959-3.539,5.416-4.332c-4.268-7.195-9.956-12.969-14.08-20.308c7.153,5.032,12.977,11.393,19.766,16.788
		c2.915-1.146,5.815-2.308,9.748-2.437c2.162-8.217,3.38-17.378,6.228-24.91c1.572,6.574-0.175,16.519,0.271,24.64
		c2.751,0.679,5.815,1.044,7.853,2.437c8.845-5.145,16.055-11.924,25.452-16.517c-2.146,4.278-6.106,7.191-9.478,10.289
		c-3.384,3.111-6.614,6.385-10.018,9.477c1.717,1.351,3.144,2.994,4.062,5.145c10.162-1.751,19.214-4.613,29.513-6.228
		c0.544,1.208-1.314,1.511-2.166,1.895c-7.83,3.538-17.944,5.969-25.993,9.206c0,1.534,0,3.069,0,4.603
		c9.29,1.631,20.176,1.666,29.514,3.249c-2.94,1.972-7.098,0.901-11.102,1.083c-6.104,0.277-11.881,0.585-18.412,0.542
		c-0.445,1.631-1.041,3.111-1.896,4.332c0.36,3.792,2.359,5.944,2.708,9.748c-1.162,0.462-2.327,0.922-4.062,0.813
		c-1.081,7.185,8.685,18.556,0.541,21.932c2.741,4.66,4.692,10.11,5.416,16.788c2.241,1.098,3.658,3.02,3.52,6.499
		c2.878,1.815,8.019,1.368,8.394,5.686c6.556,3.082,8.148,13.206,8.665,23.015c0.05,0.961-0.26,2.243,0,3.249
		c0.335,1.299,2.12,2.431,2.979,3.791c1.19,1.888,1.128,4.509,1.895,6.228c1.656,3.711,6.256,5.025,9.206,6.769
		c0.413,2.024,1.569,3.305,3.25,4.062c3.786-3.795,6.378-8.784,9.747-12.997c0.967,0.387,1.745,0.962,2.979,1.083
		c0.585-1.401,0.729-3.243,1.083-4.874c11.145,4.289,21.564,9.303,32.763,13.538c0.88,1.105,1.636,2.335,2.437,3.52
		c0.273,1.334-2.097,2.187-2.707,3.52c0.216,1.138,1.449,1.258,1.624,2.437c-1.989,3.064-3.536,6.572-5.415,9.748
		c0.252,2.34,3.977,4.594,3.791,7.582c-0.112,1.804-3.652,4.571-5.145,6.498c-1.895,2.445-2.916,4.352-4.604,6.77
		c-3.846,5.51-7.005,12.354-14.892,11.102c-0.604,0.276,0.354,1.244,0,2.166c-2.487,4.042-7.207,8.312-8.665,13.809
		c-1.15,4.341-1.661,8.832-2.979,12.997c-1.259,3.98-2.522,7.829-5.415,10.56c-0.968,0.115-1.444,0.722-2.708,0.542
		c1.401,12.84,5.54,26.433,6.499,39.802c0.224,3.12-0.688,5.674-0.813,8.395c-0.379,8.299,3.693,16.568,2.708,24.91
		c-0.15,1.114-1.104,1.423-2.438,1.354c0.379,2.815-2.051,2.823-2.979,4.332c0.221,4.473,0.669,8.718,0.542,13.539
		c-0.45,0.903-1.178,1.53-2.166,1.896c0.449,9.64,2.014,19.108,2.437,28.43c0.139,3.057,0.562,6.839,0,10.019
		c-0.423,2.394-2.868,3.322-3.249,6.228c-0.612,4.665,1.051,11.376,1.625,18.142c0.911,10.745,1.409,20.17,1.895,31.138
		c2.178,1.252,3.229,3.632,4.333,5.957c1.915,0.431,4.077,0.615,5.956,1.083c1.038,6.079-1.429,10.001,0,14.621
		c1.373,4.437,12.971,2.769,8.123,10.56c-57.854,0-115.705,0-173.561,0c-0.033-6.459-0.86-11.816,2.708-14.892
		c-0.244-1.313-0.939-2.716-0.813-4.062c0.214-2.269,3.207-3.582,3.791-5.957c0.33-1.341-0.285-2.934,0-4.062
		c1.261-4.997,8.588-7.715,11.373-12.455c1.699-2.894,1.789-6.557,2.978-10.019c0.864-2.516,3.381-6.583,2.979-9.747
		c-0.282-2.219-2.639-2.38-2.979-4.604c-0.583-3.821,3.526-5.14,3.791-8.123c0.153-1.732-1.46-3.165-1.625-4.873
		c-0.043-1.126,1.625-0.541,1.895-1.354c-0.287-14.09-1.842-27.909,1.896-39.531c0.667-2.076,1.501-4.289,2.437-6.498
		c0.937-2.213,2.369-4.762,2.437-6.499c0.081-2.068-1.728-3.977-1.895-5.957c-0.536-6.351,5.378-11.665,5.686-18.141
		c0.207-4.344-2.696-9.732-2.708-15.976c-0.007-3.812,1.315-9.162,0.542-12.726c-0.262-1.205-1.614-2.131-2.167-3.521
		c-2.666-6.708,1.678-16.403-3.52-19.766c0.521-3.41-1.934-3.842-2.979-5.687c1.063-4.056,2.985-7.372,4.874-10.83
		c1.796-3.288,4.502-6.595,5.686-10.019c1.474-4.262,0.106-9.528,0.271-15.163c-6.288-0.148-13.257,0.287-14.08-4.873
		c-0.341-2.141-0.135-4.756,0-6.77c0.895-13.338,7.972-25.857,14.08-32.763c-3.446-4.282-6.93-9.473-5.416-17.871
		c-3.155-0.996-4.07-4.233-6.769-5.686c0.157-2.955-1.596-4-2.979-5.415c-0.837-4.989,1.494-6.81,3.791-8.665
		c-0.462-1.621-1.099-1.843,0.271-2.979c-0.353-1.181-2.552-0.516-2.979-1.625c0.165-3.445,2.159-5.062,2.979-7.852
		c0.748-0.74,0.254,0.396,0.813,0.542C24.222,234.954,27.48,227.834,31.785,221.759z M17.706,22.746
		c2.884-2.136,9.462-1.271,11.643,0C27.521,20.167,18.658,20.192,17.706,22.746z M6.333,28.432c0.677-0.919,1.147,0.637,1.083,1.354
		c1.979,0.634,2.235-2.452,3.52-0.813c0.336-0.566,0.788-1.018,1.354-1.354c1.31,1.076,3.126-0.687,4.062,1.083
		c0.991-0.839,0.037-2.89,0-4.333C12.082,24.615,7.233,25.721,6.333,28.432z M9.312,40.888c4.229-2.18,13.006-1.254,17.871-1.896
		C20.765,38.984,12.582,38.651,9.312,40.888z M30.702,39.263C27.122,38.925,27.678,40.073,30.702,39.263L30.702,39.263z
		 M42.074,42.783c-0.921-1.44-7.204-3.615-11.102-2.979C35.431,40.04,39.265,40.899,42.074,42.783z M24.745,40.888
		c-1.898,0.178-4.509-0.358-5.957,0.271C20.687,40.98,23.298,41.516,24.745,40.888z M7.417,43.595
		c0.989-0.391,5.434-1.948,8.394-2.166c0.58-0.074,2.889,0.209,2.166-0.271C13.736,41.25,10.07,41.917,7.417,43.595z M27.182,41.158
		c-4.07,0.082,0.375,0.642,2.166,0C28.656,41.169,27.898,41.144,27.182,41.158z M33.681,41.7c-1.404,0.221-2.951-0.828-4.062,0
		C31.028,41.373,33.607,42.462,33.681,41.7z M41.262,44.407c-0.473-1.335-4.028-1.926-6.228-2.437
		c-0.379-0.021-1.035,0.06-0.542,0.271C37.136,42.577,39.563,43.128,41.262,44.407z M18.518,48.74c1.354,0,2.708,0,4.062,0
		c0.722,0,1.444,0,2.166,0c0.862-0.373-0.957-0.268-1.354-0.271c-5.199-0.324-11.095,0.096-10.019,5.145
		C13.275,50.176,15.749,49.31,18.518,48.74z M16.081,54.426c2.938-2.292,11.289-2.394,13.539,0.542
		C28.627,50.236,17.033,51.045,16.081,54.426z M19.059,94.499c4.063-1.068,8.107-0.792,11.914,0.271
		c0.591-0.649,0.745-2.084,0-2.708c0.158,3.704-3.079,0.88-5.686,0.813c-2.432-0.063-3.715,0.828-5.415,1.083
		c-0.563-4.229,0.358-10.546-0.542-15.705c-0.271,0-0.542,0-0.813,0C19.487,83.077,18.737,89.75,19.059,94.499z M30.431,90.167
		c-0.172-3.62,0.351-9.375-0.271-11.643C30.333,82.143,29.81,87.898,30.431,90.167z M28.807,100.727
		c-0.149-1.481,0.318-5.004-0.271-5.145C28.685,97.063,28.218,100.586,28.807,100.727z M27.453,107.225
		c-0.091-0.125-1.176,1.806-0.542,1.083c-1.243,1.417-4.58,1.569-4.603-0.813c-0.74,0.584,0.634,1.333,0.812,1.896
		C24.755,111.165,27.995,107.967,27.453,107.225z M90.541,146.486c8.898,0.829,14.13,6.351,17.329,12.456
		c-3.284-7.473-8.584-12.583-18.142-13.268c-15.606-1.118-27.856,7.874-30.596,18.412c0.375-0.437,0.229-1.396,0.813-1.625
		c0.736,1.881,2.232,3.002,3.52,4.332c2.234-1.944-1.586-5.009-3.25-5.416C64.887,152.28,76.106,145.141,90.541,146.486z
		 M84.313,155.15c0.873-0.391,2.271-0.256,3.521-0.271c-0.297-1.959-0.313-4.199-0.271-6.499
		C83.251,145.443,83.677,151.564,84.313,155.15z M89.188,154.88c1.173,0,2.347,0,3.52,0c-0.024-2.371,0.61-4.083,0.542-6.499
		C89.218,145.351,89.243,151.453,89.188,154.88z M79.711,155.421c0.794,0.458,1.997-0.599,3.52-0.271
		c-0.501-2.026,0.133-5.187-0.813-6.769C77.761,146.613,79.49,152.56,79.711,155.421z M93.249,155.421
		c1.269,0.086,2.129,0.579,3.249,0.812c0.603-2.104,1.655-3.76,1.896-6.228C94.802,146.875,93.837,152.343,93.249,155.421z
		 M75.379,156.775c1.2-0.153,1.83-0.877,3.249-0.812c-0.453-2.436-0.83-4.946-1.896-6.769
		C71.473,148.793,74.951,154.356,75.379,156.775z M71.317,158.941c1.091-0.533,2.429-0.82,3.249-1.625
		c-1.03-1.768-1.487-4.109-2.438-5.957C66.319,151.28,70.64,156.377,71.317,158.941z M97.04,156.504
		c0.985,0.278,1.675,0.853,2.707,1.083c0.938-1.5,1.795-3.079,2.438-4.874C99.755,149.149,97.452,153.948,97.04,156.504z
		 M68.067,153.797c-3.13,0.939,0.316,5.146,1.083,6.498c0.406-0.316,0.662-0.782,1.354-0.812
		C69.819,157.46,68.971,155.602,68.067,153.797z M100.019,158.941c2.344,2.658,3.893,0.317,5.145-2.167
		C103.607,153.341,100.463,156.568,100.019,158.941z M87.021,155.421c-12.764,0-22.922,7.159-25.723,16.517
		c-0.48,1.605,0.964-1.675,1.083-1.896c4.366-8.12,12.319-13.229,23.557-13.809c10.733-0.553,17.009,5.455,20.036,12.456
		C103.046,160.735,97.32,155.421,87.021,155.421z M47.76,164.356c3.159,0,5.859-0.458,9.206-0.271
		c0.011-2.245,0.88-3.633,1.625-5.145c-5.442-0.786-10.533-1.922-15.975-2.708C41.882,161.39,47.122,160.572,47.76,164.356z
		 M64.006,156.775c-0.045,2.663,1.895,3.34,2.437,5.416c0.808-0.004,0.92-0.704,1.624-0.813
		C66.975,159.732,66.384,155.418,64.006,156.775z M61.569,159.753c0.178,2.35,2.22,2.834,2.979,4.603
		c0.897-0.095,1.175-0.811,1.625-1.354C64.562,162.111,63.925,158.196,61.569,159.753z M102.996,161.919
		c0.547,0.357,0.917,0.889,1.083,1.625c1.1-0.616,2.541-0.889,2.979-2.167C106.558,158.437,103.913,160.75,102.996,161.919z
		 M104.351,178.437c0.623-7.02-4.126-7.562-8.394-10.019c-2.479-1.426-4.401-2.913-6.229-3.791
		C94.063,169.77,103.482,169.827,104.351,178.437z M62.111,168.689c0.108-0.704,0.808-0.817,0.813-1.625
		c-1.167-1.108-2.547-2.767-4.333-2.437C58.617,167.129,60.794,167.478,62.111,168.689z M64.548,180.061
		c2.973-6.505,11.364-10.659,16.246-13.539C73.871,169.348,66.394,173.062,64.548,180.061z M57.779,169.23
		c0.784,0.84,1.869,1.38,3.249,1.625c-0.071-0.793,0.612-0.832,0.542-1.625c-1.163-0.372-1.782-1.286-2.979-1.625
		C58.44,168.267,57.543,168.183,57.779,169.23z M51.822,174.104c4.761,3.16-2.125,13.211,3.791,15.163
		c1.488-1.742,2.747-4.419,3.25-6.769c1.096-5.128-2.395-8.175-2.166-13.268c-1.89-0.547-4.288-0.586-6.77-0.542
		C50.151,170.901,52.346,171.143,51.822,174.104z M13.373,191.433c1.079-5.829,3.016-11.978,4.603-15.975
		C15.829,180.17,12.942,184.143,13.373,191.433z M27.995,200.368c-0.958,0.476-1.395-0.909-1.625-0.271
		c0.633,0.45,0.655,1.512,1.896,1.354c3.934-3.648,7.15-9.457,9.206-14.08C34.616,192.007,32.296,197.179,27.995,200.368z
		 M101.913,191.704c-0.151,2.917-1.236,4.901-3.249,5.957c0,0.993,0,1.986,0,2.979c0.62-0.463,0.1-2.067,0.271-2.979
		c2.093-0.886,2.987-2.97,3.25-5.686c1.998,0.099,2.961-2.268,2.166-4.062C104.516,190.154,103.948,191.663,101.913,191.704z
		 M27.995,209.574c-2.25,1.694-12.936,10.652-14.08,2.708c-0.761-5.285,2.602-13.439,4.062-17.6
		c0.496-1.413,1.772-5.254,1.354-4.332c-2.212,5.738-7.946,13.139-7.04,21.391c0.428,3.901,3.311,5.366,7.311,4.062
		c3.316-1.082,6.867-3.907,10.019-6.499c3.353-2.757,6.703-5.637,8.123-8.123C34.854,204.291,31.867,206.659,27.995,209.574z
		 M61.84,196.036c1.227,0.758,1.883,2.088,2.708,3.249c-0.061,0.46,0.305,0.67,0.271,0c-0.633-0.992-1.292-1.957-1.895-2.978
		c-0.912-0.171-1.389-0.778-2.708-0.542c-0.712-0.592-1.806-1.536-2.708-2.708c-0.67-0.872-1.833-3.188-1.625-2.437
		C57.295,193,58.154,195.932,61.84,196.036z M27.724,219.051c9.806-5.087,21.313-9.915,22.203-23.015
		C47.185,208.187,35.963,213.301,27.724,219.051z M67.797,204.159c-0.396-1.875,0.773-4.022-0.271-4.874
		C66.615,200.131,64.821,204.175,67.797,204.159z M99.206,207.679c-0.125-0.969,0.283-3.88-0.271-3.52
		C99.06,205.128,98.651,208.039,99.206,207.679z M73.754,211.199c0.058,0.304,0.301,0.421,0.541,0.542
		c0.058,0.304,0.301,0.421,0.542,0.542c0.236,0.906,0.906,0.236,0,0c-0.834-1.278-3.537-3.455-3.791-3.52
		C71.813,209.711,72.564,210.673,73.754,211.199z M97.852,219.593c2.419-1.002,3.477,2.033,4.062,1.083
		c0.14-2.234-0.56-3.755,0-5.686c-1.386-0.212-1.967,0.38-3.249,0.271c-0.337-0.836-0.32-2.025-1.624-1.895
		C96.98,215.771,97.551,217.547,97.852,219.593z M52.093,224.196c-0.674,2.625-1.379,5.27-2.167,7.582
		c-4.22,12.393-11.937,20.835-21.661,27.347c-1.794,1.201-4.671,1.584-5.415,4.062c18.237-8.208,29.448-24.886,31.679-48.196
		C53.154,217.34,52.845,221.264,52.093,224.196z M85.668,225.82c4.883,1.725,10.348-0.777,14.621-1.896
		c-4.8-0.12-9.337,1.998-13.538,1.083c-4.49-0.977-5.537-7.736-8.936-8.935C80.729,218.62,81.542,224.363,85.668,225.82z
		 M50.468,217.968c0.323-1.014-0.552,0.56-0.542,0.542c-2.105,3.69-5.489,9.116-8.664,2.708
		C42.803,230.511,49.865,222.763,50.468,217.968z M50.468,249.918c-0.365,5.454,0.841,10.708,1.896,15.975
		c0.402-0.011,0.392,1.608,0.542,0.271c-0.879-4.426-2.257-8.553-2.166-13.268c0.219-11.342,10.998-16.767,10.831-27.889
		C60.46,235.273,51.215,238.777,50.468,249.918z M102.996,247.211c-6.393,15.393-13.792,26.789-24.64,37.636
		c-13.807,13.808-27.852,27.389-40.614,42.239c13.221-12.852,26.96-27.772,40.886-41.698c7.223-7.223,13.359-14.21,18.412-23.286
		c4.904-8.81,9.467-18.331,12.185-29.243C106.578,237.568,104.94,242.532,102.996,247.211z M53.717,296.761
		c0.515-0.972,3.199-5.022,4.603-7.311c10.413-16.965,23.597-32.359,33.304-48.738C78.332,258.738,63.944,275.67,53.717,296.761z
		 M139.55,289.992c2.964,12.872,4.14,27.261,6.77,41.698c-1.159-13.533-3.37-28.337-5.687-41.698
		c-2.391-13.792-9.412-23.985-11.643-37.095C129.994,266.361,136.629,277.307,139.55,289.992z M108.953,344.416
		c0.015,0.285,0.348,0.213,0.271-0.271c2.155-27.11,4.286-59.266,0.812-86.104C110.772,287.193,110.037,316.285,108.953,344.416z
		 M33.681,278.89c0.417,2.563,0.411,6.987,1.625,7.853c-2.028-4.156-0.678-13.451-0.542-16.788
		C34.125,272.655,34.045,275.916,33.681,278.89z M146.319,292.97c4.107-7.445,9.492-15.057,12.996-22.203
		C154.45,277.455,149.684,285.684,146.319,292.97z M189.642,291.616c0.841-2.139,2.952-4.446,3.249-6.228
		C191.581,287.06,189.963,289.859,189.642,291.616z M86.209,358.496c-6.912,20.886-13.932,40.864-21.661,60.381
		c0.177,0.596-0.009,0.49,0.271,0c2.415-4.234,4.009-9.44,5.957-14.351c5.872-14.799,11.471-29.303,16.787-44.406
		c7.367-20.927,9.259-44.842,10.561-70.94C96.021,313.73,92.98,338.037,86.209,358.496z M79.439,297.302
		c-13.229,34.788-30.946,66.529-41.968,102.62C50.452,364.885,70.084,335.06,79.439,297.302z M131.969,308.674
		c-0.742-1.255-0.066,0.312,0,0.542c6.621,23.116,13.87,49.614,16.246,76.355c0.015,0.285,0.347,0.213,0.271-0.271
		c-2.936-24.862-6.328-49.27-13.81-69.587C133.618,312.626,133.2,310.757,131.969,308.674z M165.002,334.126
		c2.585-5.267,6.421-10.727,8.394-15.704C170.673,323.552,166.918,329.093,165.002,334.126z M108.953,349.019
		c-0.088-0.652,0.231-3.095-0.271-2.438C108.771,347.234,108.451,349.676,108.953,349.019z M113.557,375.825
		c-0.26-0.824-0.319-1.848-1.083-2.166c0.352,0.672-0.795,1.123,0,1.354c0.03-0.33,0.081-0.642,0.541-0.542
		C112.974,375.143,113.154,375.594,113.557,375.825z M46.407,448.389c9.854-4.655,14.231-15.803,20.037-23.827
		c6.374-8.811,13.642-15.84,22.202-21.661c2.811-1.911,6.086-3.272,9.206-5.415c7.032-4.828,10.935-13.62,14.351-21.661
		c-0.572-0.881-0.613,0.707-0.541,0.541c-3.629,8.313-7.022,15.178-14.08,20.037c-3.661,2.521-7.549,4.423-11.102,7.04
		c-10.37,7.638-18.673,17.166-25.722,28.701c-5.665,9.269-12.301,18.939-25.994,17.058
		C39.001,451.499,43.374,449.822,46.407,448.389z M106.517,461.386c1.127-11.544,2.771-23.807,3.791-36.282
		c0.984-12.06,2.662-25.816-0.271-37.095c-0.06-0.211-0.227-0.315-0.541-0.271C108.813,412.417,106.676,437.087,106.517,461.386z
		 M71.046,460.303c4.514-14.188,8.595-29.367,11.644-43.864c-8.425,28.581-14.492,60.962-29.514,82.042
		C61.907,488.5,66.547,474.448,71.046,460.303z M60.486,461.657c5.527-14.329,12.257-28.899,17.329-42.78
		C71.459,432.376,65.362,447.58,60.486,461.657z M139.009,446.223c-6.944,4.385-13.359,8.384-20.579,12.455
		c-2.252,1.271-14.101,5.069-10.018,8.936c0.873,0.827-0.463-0.387-0.271-0.813c1.046-2.313,1.557-2.685,4.062-3.79
		c5.416-2.39,10.78-5.809,15.434-8.665c7.07-4.34,14.329-7.938,19.767-12.185c1.955-1.527,4.327-3.962,3.52-7.311
		C149.578,440.328,144.176,442.96,139.009,446.223z M129.531,551.822c0.932,0.181,0.616-0.896,0.813-1.354
		c10.204-23.718,8.415-61.048,8.665-93.414C137.356,490.613,137.897,525.835,129.531,551.822z M145.777,546.407
		c0.015,0.285,0.348,0.213,0.271-0.271c2.555-26.395,5.275-57.786,1.625-84.479C147.189,490.056,147.902,519.65,145.777,546.407z
		 M123.033,513.644c0,1.414-0.017,7.762,0.271,5.687c0.635-4.577,0.324-9.681,0.542-14.351c0.678-14.578,1.525-28.944,0.271-42.511
		C123.084,478.667,123.033,496.497,123.033,513.644z M111.391,486.568c-9.258,5.57-16.641,9.105-25.994,13.538
		c-4.111,1.948-10.248,3.387-13.809,6.228c-3.623,2.891-3.785,8.289-5.957,12.185c-3.667,6.578-12.855,6.444-19.495,9.206
		c0.503,13.145-16.03,7.677-22.474,4.332c3.834,1.799,13.899,7.336,19.766,4.332c2.429-1.243,2.878-4.359,3.52-7.852
		c5.085-2.439,13.276-2.61,17.329-6.499c4.522-4.338,4.227-12.82,9.748-15.975c4.069-2.325,9.234-3.528,13.81-5.687
		c8.953-4.224,17.344-8.732,25.451-13.809c3.244-2.031,9.927-5.365,8.395-10.289c-0.016-0.285-0.348-0.214-0.271,0.271
		C121.804,480.041,115.058,484.361,111.391,486.568z M118.159,488.192c-0.632,14.229-1.574,30.292-5.957,41.428
		c-1.365,3.469-3.912,9.053-2.978,12.996c0.555,2.347,3.978,4.687,5.686,6.77c2.093,2.553,3.418,5.132,5.415,6.498
		c-1.894-2.057-3.365-4.31-5.415-6.769c-1.764-2.116-4.95-4.326-5.415-7.04c-0.636-3.714,1.556-9.328,2.979-12.997
		c4.551-11.737,5.599-27.848,5.956-41.969C118.384,487.514,118.527,488.108,118.159,488.192z M94.603,538.554
		c11.369-11.015,18.962-27.249,20.308-47.384C112.495,511.139,103.697,526.167,94.603,538.554z M92.166,533.139
		c-1.623,11.153-3.138,21.644-11.102,25.182c3.882-0.476,6.691-3.15,8.123-5.957c5.709-11.196,5.828-35.69,6.498-49.55
		C94.942,512.298,93.713,522.505,92.166,533.139z M69.422,558.862c10.728-11.655,14.7-30.066,17.87-49.279c0-0.36,0-0.722,0-1.083
		c-0.015-0.285-0.347-0.213-0.271,0.271c0,0.181,0,0.361,0,0.542C82.786,527.28,77.806,545.946,69.422,558.862z M72.129,538.826
		c-3.624,7.567-9.374,12.333-14.621,17.328c13.575-8.88,21.641-22.988,19.495-44.676C76.447,522.222,75.669,531.435,72.129,538.826z
		 M51.28,534.764c0.721-2.079,3.484-3.553,2.708-6.228C52.913,530.261,50.861,532.447,51.28,534.764z M53.988,553.176
		c2.247-6.538,11.252-14.258,12.726-21.12c0,0.181,0,0.361,0,0.542C63.1,540.084,56.955,545.041,53.988,553.176z M46.407,558.049
		c4.613,0,4.014-8.065,3.52-11.372C49.508,551.223,48.614,555.292,46.407,558.049z M108.683,548.302
		c-3.029-1.431-9.571-1.491-13.268-0.542C99.867,547.732,105.849,547.615,108.683,548.302z M105.163,561.298
		c2.111,0.188,2.111-0.458,0-0.271c-4.923-0.057-9.661-5.389-12.185-5.415c0.09,0.001,0.18-0.001,0.271,0
		C96.584,558.144,98.828,561.767,105.163,561.298z M161.211,565.089c1.505-0.182-0.929-0.804-1.624-1.083
		c-4.814-1.932-12.818-1.083-19.495-1.083c-37.333-0.002-77.013,0.898-113.722,1.083c-0.285,0.015-0.213,0.348,0.271,0.271
		c42.883-0.351,86.196-0.268,128.885-0.812C157.267,564.161,159.56,564.304,161.211,565.089z M24.745,565.36c0,1.951,0,4.498,0,6.77
		c0,2.07-0.64,5.316,0.813,5.957c0.9-3.264,0.9-10.275,0-13.538c-0.271,0-0.542,0-0.813,0
		C24.745,564.819,24.745,565.089,24.745,565.36z M12.832,565.36c-2.05,1.922-4.091,3.852-6.228,5.687
		c-0.303,0.563-0.292,0.574,0.271,0.271c3.453-3.768,8.826-5.614,15.163-6.498C18.764,564.794,16.043,565.323,12.832,565.36z
		 M155.796,578.357c0.9-3.264,0.9-10.274,0-13.538c-0.181,0-0.361,0-0.542,0C155.608,569.158,154.541,574.918,155.796,578.357z"/>
</g>
</svg>
